<?xml version="1.0" encoding="utf-8"?>
<!-- Generator: Adobe Illustrator 19.0.0, SVG Export Plug-In . SVG Version: 6.00 Build 0)  -->
<!DOCTYPE svg PUBLIC "-//W3C//DTD SVG 1.1//EN" "http://www.w3.org/Graphics/SVG/1.1/DTD/svg11.dtd">
<svg version="1.1" id="图层_1" xmlns="http://www.w3.org/2000/svg" xmlns:xlink="http://www.w3.org/1999/xlink" x="0px" y="0px"
	 viewBox="0 0 720 500" style="enable-background:new 0 0 720 500;" xml:space="preserve">
<style type="text/css">
	.st0{fill-rule:evenodd;clip-rule:evenodd;fill:#C2C1C1;}
	.st1{fill-rule:evenodd;clip-rule:evenodd;fill:#FFE1EB;}
	.st2{fill-rule:evenodd;clip-rule:evenodd;fill:#FFE1D4;}
	.st3{fill-rule:evenodd;clip-rule:evenodd;fill:#D4ECE1;}
	.st4{fill-rule:evenodd;clip-rule:evenodd;fill:#D3EBFC;}
	.st5{fill-rule:evenodd;clip-rule:evenodd;fill:#FEFFE2;}
</style>
<path class="st0" d="M384,679.6c-4.5-2.2-8.2-2.2-9.7-5.2c-0.7-3-1.5-9,0-11.2c0.7-0.7,3-1.5,4.5-2.2c0-1.5,0-3,0.7-4.5
	c0.7-1.5,2.2,0,5.2-0.7c2.2-0.8,4.5-2.2,6-3c3.7-0.8,8.2-0.8,12-0.8c0.7,0,3,1.5,3.7,3.7c0,0.7,0,1.5,0,2.2c0,0.8-0.7,1.5-0.7,2.2
	c-2.2,3-3.7,5.2-5.2,8.2c0,1.5-0.7,3-2.2,3.7c-3.7,2.2-7.5,5.2-10.5,6.7C387,678.8,385.5,679.6,384,679.6L384,679.6z"/>
<path class="st1" d="M384.7,678.1c-2.2-0.7-4.5-1.5-7.5-2.2c-3.7-3-2.2-5.2-2.2-9c0.7-3.7,0-3,3.7-3.7c0-0.7,0.7-1.5,1.5-1.5
	c0-1.5,0-3,0-4.5c0,0,0,0,0.7,0s2.2,0.7,4.5,0c2.2-0.7,3.7-2.2,6-3.7c3.7,0,6.7,0,10.5,0c0.7,0,3,1.5,3,4.5c-0.7,1.5-1.5,3-3,4.5
	c-1.5,2.2-3,4.5-3.7,8.2c-3.7,2.2-7.5,4.5-11.2,6.7C386.2,678.1,385.5,678.1,384.7,678.1L384.7,678.1z"/>
<path class="st0" d="M392.2,650.3c-3-3-2.2-4.5-3-6.7c-1.5-1.5-2.2-3-3.7-4.5c0-3-0.7-5.2,2.2-6.7c0,0,0,0,0-0.7c-3,0-3.7,1.5-6,3
	c-1.5,0-2.2,0-3.7,0c0-1.5-0.7-2.2-0.7-3.7c-3-0.8-2.2-1.5-3-2.2c-1.5,0-0.7,1.5-1.5,3.7c-0.7,0-0.7,0-1.5,0c-0.7-1.5-3-0.7-3.7,0
	c-5.2,0-9.7-1.5-13.5-1.5c-3-1.5-6-6-7.5-8.2c0-0.7,0-1.5,0-3c0.7-1.5,2.2-3,2.2-4.5c-1.5-0.8-2.2-1.5-3-1.5
	c-4.5-0.7-12-1.5-14.2-3.7c0-0.7,0-1.5-0.7-2.2c0,0,0,0-0.7,0c-3,0-5.2,2.2-6.7,4.5c-0.7,0.7-1.5,1.5-2.2,3c-1.5,0-3,0-4.5,0
	c-0.7,0.7-3,3-4.5,3.7c-0.7,0-1.5,0-3,0c0-0.7-0.7-1.5-1.5-2.2c-0.7-2.2-6,1.5-6,1.5c-1.5,0-2.2,0-3,0c-2.2-2.2-3.7-3-5.2-3
	c-1.5,1.5-3,3-3.7,4.5c-1.5,0-2.2,0-3.7,0c-1.5-1.5-2.2-2.2-3-2.2c-2.2,2.2-1.5,1.5-1.5,3.7c1.5,3,2.2,3,2.2,7.5
	c-0.7,2.2,0,3.7,0.7,6.7c0,0.7,0,1.5,0,2.2c-0.7,0.7-0.7,0.7-1.5,1.5c-0.7,0-1.5,0-2.2,0c-2.2-1.5-4.5-3-6.7-4.5c0-2.2,0-3.7,0-6
	c-0.7-0.7-1.5-0.7-2.2-1.5c-1.5,1.5-3.7,3.7-6,4.5c0,0,0,0-0.7,0c-0.7-0.7-2.2-0.7-3-1.5c-1.5-1.5-2.2-3-3-3.7
	c-0.7-0.7-1.5-2.2-2.2-3c-9-0.7-7.5-3.7-7.5-9.7c0-0.7,0.7-1.5,0.7-2.2c0-1.5,0-2.2,0-3c-1.5-0.7-3-0.7-4.5-1.5l-0.7-0.7
	c0-0.8,0-1.5,0-2.2c-0.7,0-0.7-3-0.7-3.7c-0.7-1.5-1.5-2.2-2.2-3.7c-0.7-3.7-1.5-3.7-3-3.7c-2.2,0.7-3.7,1.5-5.2,3
	c-3,0-3.7,0-4.5-1.5c0-3.7,0-7.5,0-12c3-6.7,6.7-9.7,12.7-13.5c1.5,0,1.5-6.7,1.5-6.7c1.5-3,0.7-5.2,1.5-8.2c0-1.5,0-2.2,0.7-3
	c0-1.5,0.7-3,0.7-3.7c-2.2-3.7-5.2-4.5-6.7-6.7c0-1.5,0-3,0-4.5l0,0c-1.5-3-3-4.5-4.5-6c-0.7,0-1.5,0-2.2,0
	c-0.7,0.7-1.5,1.5-2.2,2.2c0,1.5,0,5.2-1.5,6.7c-1.5,0-2.2,0-3,0c-3.7-1.5-5.2-2.2-5.2-5.2c-3-1.5-6-2.2-7.5-2.2
	c0-0.7-0.7-1.5-1.5-2.2c-0.7,0-0.7,0-1.5,0c-3,2.2-6,4.5-9,6c-4.5,0.8-4.5,2.2-6.7,5.2c-4.5,0-4.5,0.7-7.5,4.5
	c-2.2,1.5-4.5,1.5-6,2.2c0,0-0.7,0-0.7,0.8c-3.7-0.8-8.2-0.8-12-0.8c-3,0.8-6.7,0-8.2-1.5c0-0.7,0-1.5,0-2.2c0.7-2.2,1.5-3.7,2.2-6
	c-2.2-0.7-3.7-2.2-4.5-3c-0.7-1.5-0.7-2.2-1.5-3.7c-2.2,0-4.5,0-6-0.7c-0.7-0.8-1.5-1.5-2.2-3c-1.5,0-3-0.7-5.2-1.5
	c-3-2.2-6.7-3.7-9,0c-0.7,0.8-2.2,0.8-3.7,1.5c0,0.7-0.7,1.5-0.7,1.5c-0.7,2.2-1.5,4.5-2.2,6.7c-1.5,0-2.2,0-3,0
	c-4.5-1.5-3.7-4.5-3.7-6.7c0.7-1.5,1.5-3,2.2-4.5c-0.7-0.8-1.5-1.5-2.2-1.5c-3.7,0.7-8.2,1.5-11.2,3c-1.5,1.5-5.2,0-5.2-0.7
	c-2.2-1.5-3.7-3.7-5.2-5.2c-3,0-6.7,0-9.7,0c-0.7,0-0.7-0.7-1.5-0.7c-1.5-3-2.2-5.2-3-6.7c-2.2,0-3-1.5-3.7-2.2
	c-0.7-0.7-2.2-1.5-3-1.5c-0.7-0.8-2.2-0.8-2.2-0.8c-1.5-0.7-3-1.5-3.7-2.2c-3.7-3.7-2.2-8.2-3.7-11.2c-1.5,0-3.7,0-5.2,0.7
	c-3.7-1.5-4.5-3-4.5-4.5c-0.7-1.5-1.5-2.2-1.5-3c-3-1.5-5.2-3.7-7.5-5.2c-1.5-2.2-3-4.5-4.5-7.5c-3,0-4.5,1.5-6.7,3
	c-1.5,0-3.7,0-6,0c-2.2-1.5-3-3-3.7-4.5c0-0.7-0.7-1.5-0.7-2.2c-0.7-4.5-3-6.7-4.5-9.7c-2.2-1.5-4.5-2.2-6.7-3.7
	c-3-0.7-5.2-2.2-6.7-3c-1.5-3.7,0-6,2.2-7.5c0-3,0-6,0.7-9c-2.2-6-3-6.7,3-6.7c1.5,1.5,1.5,1.5,3,4.5c0.7,0,1.5,0,1.5,0
	c2.2-2.2,1.5-7.5,1.5-9.7c-0.7-3-2.2-5.2-3-8.2c0-6,0-6,3-9c0-0.7,0.7-1.5,1.5-2.2c0,0,0,0,0-0.7c-2.2-0.7-3.7-2.2-4.5-3
	c-1.5,0-1.5-0.7-1.5-1.5c-3-2.2-1.5-5.2-1.5-7.5c0-0.7,0-0.7,0.7-1.5c-0.7-4.5-3.7-3.7-6.7-3.7c-3-1.5-5.2-6-6-8.2
	c-6.7-1.5-5.2-1.5-5.2-7.5c0-1.5,0.7-2.2,1.5-3.7c-0.7-3.7-3.7-6-6-7.5c-1.5-0.7-3.7-1.5-5.2-3l-0.7-0.7c0-6.7,0-5.2,4.5-7.5
	c0.7-0.7,1.5-0.7,2.2-1.5c0-4.5,0.7-11.2-0.7-14.2c-2.2-1.5-4.5-0.7-6-0.7c-0.7,2.2-3,0.7-3,0c-0.7-2.2-0.7-4.5-0.7-6
	c0.7-0.7,2.2-0.7,3-1.5c0-2.2-1.5-3-2.2-3.7c0-3.7,0-2.2,3.7-3.7c1.5-1.5,2.2-3.7,3-5.2c1.5-0.7,2.2-0.7,3.7-1.5
	c0.7-0.7,1.5-0.7,2.2-0.7c2.2,0,11.2,0,13.5-3c3,0,4.5-1.5,4.5,3c1.5,3,1.5,3.7,6,3c2.2-1.5,3.7-4.5,5.2-6c2.2,0,3.7,0.7,6.7,0
	c1.5-2.2,3.7-2.2,6.7-3c1.5,0.7,3.7,1.5,5.2,2.2c0.7-1.5,9-1.5,12-2.2c1.5-1.5,3-2.2,5.2-3c0.7-3.7,0.7-3.7,3.7-6
	c0.7-2.2,2.2-4.5,3-6.7c1.5-0.7,3-1.5,3.7-2.2c0.7-1.5,1.5-3,2.2-4.5c0-2.2,0-3.7,0-6c0-0.7-0.7-1.5-0.7-3c0-0.7,0-1.5,0-3
	c0.7-1.5,0.7-3.7,0.7-6c-2.2-1.5-0.7-2.2-1.5-3.7c0.7,0,8.2,0,11.2,0c3,0.7,6,1.5,9.7,2.2c1.5,0,3,0.7,4.5,1.5
	c0-0.7,0.7-0.7,1.5-1.5c-0.7,0-0.7-0.7-1.5-0.7c0-1.5,0-3,0-4.5c1.5-3,4.5-5.2,6-7.5c0.7-4.5,2.2-5.2,4.5-8.2c1.5-3.7,1.5-3,5.2-3
	c2.2,0.7,5.2,3.7,8.2,4.5c1.5,0,4.5,0,6,2.2c3,0,7.5,0,8.2-3c0-1.5,0-2.2,0-3c-1.5-6.7,0-6.7,3-10.5c3.7-2.2,6-2.2,10.5-3
	c0.7,0,0.7,0,1.5,0c0.7-1.5,0.7-2.2,1.5-3.7c0.7-0.7,1.5-1.5,2.2-2.2c2.2,0,4.5,0,6.7,0c1.5,0.7,1.5,2.2,2.2,5.2
	c0.7,2.2,3,5.2,4.5,9c1.5,2.2,5.2,2.2,8.2,3.7c1.5,0.7,3,2.2,4.5,3c0.7,1.5,1.5,2.2,1.5,3c0.7,2.2,0.7,4.5,0.7,6.7h0.7
	c0.7,1.5,1.5,3,2.2,4.5c0,2.2,0.7,7.5-0.7,11.2c-1.5,1.5-3,3-4.5,4.5c0,0.7-0.7,1.5-0.7,2.2c0,0,0.7,3,1.5,4.5
	c1.5,1.5,3,2.2,4.5,3.7c1.5,0,3,0,5.2,0.7c1.5,0.7,3,1.5,4.5,2.2c3.7,0,6.7,0.7,10.5,0.7c0.7,0.7,1.5,1.5,2.2,2.2
	c4.5,4.5,7.5,8.2,14.2,9.7c0.7,1.5,2.2,2.2,3,3c0.7,2.2,1.5,4.5,1.5,6.7c1.5,3,5.2,3.7,3.7,9c0.7,0.7,0.7,3,3,4.5
	c4.5,0,9,0.7,14.9,3c3,0,6,1.5,9.7,2.2c6.7,0,14.2,0,20.9,0c2.2,0.7,6.7,0.7,9,2.2s4.5,3.7,6.7,5.2c0.7,0.7,1.5,0.7,2.2,1.5
	c2.2,0,4.5,0.7,6.7,0.7c0.7,0.7,1.5,1.5,3,2.2c2.2,0.7,5.2,1.5,8.2,2.2c1.5,0.7,5.2,6.7,7.5,2.2c1.5-0.7,2.2-0.7,3-1.5
	c2.2-0.7,4.5-2.2,6-3.7c1.5-0.7,3.7-0.7,5.2-1.5c3-2.2,6.7-2.2,9.7-4.5c0-0.7,0.7-0.7,1.5-0.7c3.7-3,9-1.5,14.2,0c2.2,0,3.7,0,6,0
	c0.7-1.5,3.7-1.5,6-2.2c0.7-0.7,1.5-1.5,3-1.5c3-3.7,4.5-7.5,9-9.7c0.7-0.7,3.7-4.5,5.2-4.5l0,0c1.5-0.7,2.2-1.5,3.7-2.2
	c0-0.7,0-1.5,0-2.2c-0.7,0-1.5-0.7-1.5-1.5c-4.5-4.5-3.7-7.5-2.2-12.7c0.7-1.5,2.2-3,2.2-3.7c0.7-0.7,1.5-0.7,1.5-0.7
	c0.7,0,2.2,0,3.7,0c2.2,3,6.7,6,12,3.7c0.7-1.5,2.2-3.7,3.7-4.5c0-1.5,3.7-4.5,5.2-6c2.2,0,3.7,0,6,0c0,0,0-0.7,0.7-0.7
	c3-0.7,5.2-2.2,7.5-4.5c0.7-5.2,1.5-7.5,6-9c1.5-0.7,3-0.7,4.5-1.5c0.7-0.7,1.5-1.5,2.2-2.2c3-1.5,3.7-2.2,6.7-3.7
	c3.7,0,8.2,0.7,12,0.7c0.7,0,1.5-0.7,2.2-0.7c1.5-3,0-5.2-0.7-6.7c-3-2.2-6-4.5-9-6.7c-2.2-3-3-4.5-6-3.7c-0.7,0.7-1.5,1.5-1.5,2.2
	c-1.5,0-3,0-3.7,0c0,0.7,0,2.2,0,3c-1.5,4.5-9,0-9.7-0.7c-3.7,0-5.2,0.7-7.5,3c-0.7,0-1.5,0-3,0.7c-4.5-1.5-3.7-5.2-3.7-6.7
	c1.5-1.5,3-2.2,3.7-3.7c0-3,0-4.5,0-6.7c0.7-2.2,1.5-3.7,2.2-5.2c0-4.5,0-6,2.2-9c1.5,0,3,0,4.5,0c3.7,0.7,9.7,1.5,12.7-3
	c1.5-0.7,2.2-1.5,3.7-2.2c0-0.7,0.7-1.5,1.5-2.2c0-4.5,0-8.2,0.7-11.2c1.5-3,3.7-5.2,4.5-8.2c0-2.2,0.7-4.5,2.2-6c0-1.5,0-2.2,0-3.7
	c-1.5-1.5-2.2-2.2-3.7-3.7c-1.5-0.7-1.5-0.7-2.2-1.5c0-5.2,0.7-6.7,6-9c3,0,6-2.2,9.7-3c2.2-1.5,3.7-3,6-3.7
	c0.7-0.7,2.2-0.7,3.7-1.5c1.5,0,3,0,4.5,0c1.5,0,4.5,0.7,6,2.2c3,0,6-0.7,9.7,0c1.5,0.7,3,0.7,3.7,1.5c3,3,6,6,9,10.5
	c1.5,1.5,4.5,6,5.2,9.7c2.2,1.5,4.5,3.7,7.5,6.7c0.7,2.2-1.5,3.7,2.2,6c1.5,0.7,2.2,2.2,3,3c0,1.5,0,3,0.7,4.5
	c2.2,0.7,4.5,0.7,6.7,0c1.5,0,3,0,4.5,0c0.7,0.7,1.5,1.5,3.7,1.5l0,0c1.5-0.7,3-0.7,4.5-0.7c1.5,0.7,3,3,5.2,4.5
	c6.7,0,7.5,3,9.7,10.5c0.7,1.5,2.2,3,3.7,3.7c0,0,0.7,0,0.7,0.7c3-1.5,9.7-2.2,11.2-4.5c3-3.7,4.5-6,7.5-8.2c2.2-3,6-6,9-8.2
	c0.7,0,1.5-1.5,1.5-1.5c1.5,0,3,0,5.2,0.7c0,0.7,0,3.7-0.7,5.2c0,1.5,0,3,0,4.5c1.5,0.7,3,2.2,3.7,5.2c0,2.2,0,4.5,0,6.7
	c-0.7,0.7-0.7,2.2-1.5,3c-1.5,1.5-1.5,3.7-0.7,6c0,3,0,6.7,0,9.7c0,2.2-0.7,3.7-0.7,6c0,1.5,0,3,0,4.5c-0.7,0.7-1.5,1.5-1.5,2.2
	c-3,1.5-6.7,0.7-8.2,0c-1.5,0-2.2,0-3,0c-0.7,0.7-0.7,0.7-0.7,1.5c-3.7,3.7-7.5,3-2.2,9c0,3,2.2,7.5,4.5,12c0,1.5,0,3.7,1.5,6.7
	c0,1.5,0.7,6-0.7,7.5c-0.7,0.7-1.5,2.2-1.5,3c-0.7,1.5-0.7,3-0.7,4.5c-0.7,0-0.7,0.7-1.5,0.7c-1.5,0-2.2,0-3-1.5
	c-1.5,0.7-3,0.7-3.7,0c0-1.5,0-3.7,0-6c-2.2-3.7-3.7,3.7-3.7,5.2c-2.2,2.2-3,6-6,8.2c-1.5,1.5-3.7,1.5-6,1.5c0,0.7-0.7,0.7-0.7,3
	c0.7,0,0.7,0,0.7,0.7c1.5,0,3,0.7,3,4.5c-1.5,1.5-2.2,2.2-3.7,3c-2.2,0-4.5,0-6.7,0c-2.2-1.5-4.5-3.7-6-2.2c-2.2,2.2-3,6-3.7,9
	c-1.5,1.5-2.2,3-3,3.7c-0.7,1.5-1.5,2.2-2.2,3c-2.2,1.5-5.2,3-6,4.5c-2.2,1.5-4.5,3.7-6,6c0,1.5,0,3,0,4.5c-1.5,0.7-3.7,1.5-5.2,2.2
	c-6.7,1.5-9.7,3.7-14.2,8.2c0,1.5-0.7,2.2-1.5,3c0,2.2-0.7,4.5-1.5,6.7c-2.2,1.5-8.2,1.5-9.7,0.7c0-3.7,2.2-3.7,4.5-6.7
	c0-0.7,0.7-1.5,0.7-1.5c-3.7-2.2-3.7-4.5-3-7.5c1.5-2.2,3-3.7,4.5-5.2c0-2.2,0.7-3.7,0.7-5.2c-2.2-2.2-4.5-4.5-5.2-4.5
	c-1.5,0-3,0-4.5,0.7c-1.5,0.7-3.7,3.7-5.2,5.2c-0.7,2.2-3,6-5.2,7.5c-3.7,2.2-5.2,6-7.5,9.7c-0.7,0-0.7,0.7-0.7,1.5
	c-0.7,0.7-1.5,1.5-2.2,2.2c-1.5,0.7-3,1.5-4.5,2.2c-3.7,1.5-6.7,1.5-9.7,3.7c-2.2,3,0,6,2.2,9.7c0.7,0,1.5,2.2,1.5,4.5v0.7
	c0.7,0,1.5,0,1.5,0c1.5-3.7,0.7-3,6-3c0.7,0,1.5,0,3,0c0,0.7,0.7,1.5,2.2,3c0,2.2,0,3.7,0,6c0.7,0.7,4.5,3,7.5,3
	c0.7-1.5,2.2-3.7,3-6c4.5-3.7,5.2-6.7,12.7-5.2c1.5,0.7,3,1.5,4.5,1.5c3.7,0,8.2,0,12,0c0.7,0,0.7,0.7,1.5,1.5c0,0.7,0,1.5-0.7,2.2
	c0,1.5,0.7,3-1.5,4.5c-0.7,0-2.2,0-3.7,0.7c-1.5,0-2.2,0.7-3.7,1.5c-2.2,2.2-6.7,4.5-7.5,7.5c-0.7,0.7-2.2,1.5-3,2.2
	c-1.5,0.7-3,1.5-4.5,2.2c0,0.7,0,2.2-0.7,4.5c-0.7,1.5-3,3.7-4.5,5.2c0,1.5,0,3,0,4.5c-0.7,0.7-1.5,1.5-1.5,3c0,0.7,0,1.5,0,2.2
	s3,2.2,6,3c0,0.7,3,3,5.2,3.7c2.2,1.5,4.5,7.5,6.7,11.2c0.7,1.5,2.2,3.7,3.7,6c0,2.2,1.5,6.7,5.2,7.5c2.2,1.5,5.2,3.7,8.2,5.2
	c0.7,1.5,0.7,1.5,0.7,3c-0.7,0.7-1.5,0.7-1.5,1.5c-2.2,0-3.7,0-6,0c0,0,0,0,0.7,0.7c0.7,0,3.7,0,3.7,3c0,0.8,0,0.8-0.7,1.5
	c1.5,0.7,3.7,1.5,6,3c0,0.7,0,2.2,0,3c-0.7,0.7-1.5,1.5-2.2,3c-4.5,1.5-6,4.5-10.5,7.5c-0.7,0-1.5,0.8-2.2,0.8
	c-0.7,0.7-0.7,0.7-0.7,0.7c0.7,0.7,1.5,2.2,3.7,1.5c3-2.2,2.2-3,6.7-3c3,2.2,5.2,2.2,9.7,3c2.2,1.5-3,5.2-4.5,6
	c-0.7,0-1.5,0.7-1.5,1.5c0.7,0,1.5,0,2.2,0c0-0.8,0.7-1.5,1.5-1.5c0,0,0.7,0,1.5,0c0,0.7,0.7,1.5,0.7,4.5c-0.7,0-0.7,0.7-1.5,1.5
	c-0.7,0-3.7,0-3.7,1.5c0.7,0.7,1.5,0.7,2.2,1.5c0,2.2,0,4.5,0,6.7c0,0.8,0,1.5,0.7,2.2c0,0.7,0,3.7-1.5,5.2c-1.5,0-2.2,0-3,0
	c0-0.8,0-0.8-0.7-1.5c-6,6-5.2,6-6,14.2c0,1.5-3,4.5-3.7,5.2c0,1.5,0,3-0.7,4.5c-2.2,2.2-4.5,0-6.7,1.5c0.7,0,1.5,0.7,2.2,1.5
	c0,0,0,0.7,0.7,0.7c0.7,0.8,1.5,1.5,3,1.5v0.7c-3,2.2-3,1.5-3,4.5c-1.5,1.5-1.5,2.2-1.5,5.2c0.7,0.7,2.2,0.7,2.2,3.7
	c-1.5,0-3,0-5.2,0c0.7,0.8,0.7,1.5,1.5,1.5c0,0.7,0,0.7,0,1.5c-1.5,0.8-3,1.5-3.7,2.2c0,1.5-0.7,3.7-2.2,6c-0.7,0.7-1.5,0.7-2.2,1.5
	c-1.5,0-3,0-3.7,0c0,1.5,0,1.5,0.7,2.2c0,0,0,0.8,0,1.5c-0.7,0.7-2.2,0.7-2.2,0.7c-2.2,1.5-4.5,3.7-6,6.7c-0.7,0.7-0.7,0.7-0.7,1.5
	c-3,3-5.2,3.7-9,5.2c-1.5,0.8-2.2,1.5-3.7,3c0,0,0,0,0,0.8c0,0,1.5,2.2,0,3.7c-1.5,0-2.2,0.7-3.7,1.5c-3.7,3-6.7,3.7-9.7,6.7
	c-3,0-3.7-1.5-4.5-1.5c-0.7,0.7-1.5,1.5-1.5,2.2c-1.5,0-2.2,0-3,0c-0.7-0.7-1.5-0.7-1.5-1.5c0,0.8,0,3-1.5,3.7c-3,0.7-2.2,0-3,2.2
	c-1.5,1.5-4.5,0-5.2,0c0-0.7,0-1.5,0-1.5c-0.7-0.7-0.7-0.7-0.7-0.7c-1.5-0.8-3-1.5-3.7-3c-0.7,1.5-0.7,2.2-0.7,3
	c-1.5,2.2-3,3.7-4.5,5.2c-2.2,1.5-3,3-4.5,3.7c-2.2,0-3.7,1.5-4.5,3c-3,0-4.5,0-5.2,0.8c-1.5,2.2-3.7,2.2-6,0.7
	c-3.7,0.7-6.7,3-9.7,3.7c-5.2,0.7-6,0-7.5,5.2c-0.7,1.5-2.2,0.7-3,2.2c1.5,1.5,3,3.7,4.5,5.2c0,0.8,0,2.2,0,3
	C396.7,649.6,394.4,649.6,392.2,650.3L392.2,650.3z"/>
<path class="st2" d="M393.7,648.8c-3-2.2-3-3.7-3.7-5.2c-0.7-2.2-2.2-3.7-3-5.2c0-3.7,0-3,2.2-5.2c0.7-6,0.7-6.7,6-10.5
	c2.2-2.2,4.5-4.5,7.5-6.7c2.2-3,4.5-5.2,7.5-8.2c2.2-1.5,2.2-3,3-5.2c0-6,1.5-4.5,4.5-8.2c0-2.2,0-5.2,0-7.5
	c1.5-1.5,1.5-3.7,2.2-5.2c0-1.5,0.7-2.2,1.5-3c0.7,0,1.5,0,2.2,0c1.5,0.7,3,2.2,4.5,3.7c0.7,0,1.5,0,2.2,0c1.5-1.5,1.5-3.7,1.5-4.5
	c-0.7-0.7-2.2-2.2-3-3c0.7,0,0.7,0,0.7,0c4.5,0,8.2,0,12,0c1.5,0.8,6,0.8,8.2-1.5c0.7,0,0.7,0,1.5,0c0,1.5,0,2.2,0,3
	c-1.5,1.5-3.7,3.7-5.2,6c0,3,0.7,3.7,6,3.7c2.2-1.5,4.5-2.2,7.5-3c0.7,0,1.5,0,2.2,0c0,0,0.7,0.7,1.5,0.7c3.7,0,6-5.2,12-3
	c1.5,1.5,2.2,3,3.7,4.5c1.5,2.2,3.7,4.5,5.2,7.5c0,0.7,0,0.7,0,1.5c-2.2,0-2.2,0.7-3.7,1.5c-1.5,1.5-5.2,2.2-3,6c0,0,0,0,0,0.7
	c-3.7,1.5-8.2,4.5-12,6.7c0,0-0.7,0.7-1.5,1.5c-1.5,0-2.2-0.7-2.2-0.7c-0.7,0-1.5,0-2.2,0c-0.7,0-1.5,0.7-1.5,1.5
	c-0.7,0-1.5,0-1.5,0c-2.2-2.2-3-1.5-4.5-1.5c0,1.5,0,2.2,0,3.7c-1.5,1.5-3-0.7-3.7,3c-3,0-2.2-0.7-3-2.2c-0.7,0-0.7,0-0.7,0
	c-1.5-1.5-2.2-2.2-3.7-3c0,0-0.7,0-1.5,0c-0.7,1.5-0.7,1.5-1.5,3c-0.7,1.5-2.2,3-3,4.5c-3,1.5-3,1.5-4.5,3.7c-0.7,0-1.5,0.7-3,0.7
	c-0.7,0.7-1.5,1.5-2.2,2.2c-3.7,0-4.5,0-6,1.5c0,0,0,0.8-0.7,1.5c0,0-0.7,0-1.5,0c-3-1.5-3-0.7-5.2,0c-3,0.7-5.2,1.5-7.5,2.2
	c-3.7,0.7-5.2,0.7-7.5,3c0,1.5-0.7,2.2-0.7,3c-2.2,1.5-3,1.5-3,4.5c1.5,0.7,4.5,3,4.5,6C395.9,648.1,394.4,648.8,393.7,648.8
	L393.7,648.8z"/>
<path class="st1" d="M281.6,638.3c-2.2-2.2-4.5-3.7-6-4.5c0-3,0-4.5-0.7-6.7c-0.7,0-0.7-0.7-1.5-0.7c-3,0-5.2,1.5-6.7,3.7
	c-0.7,0-2.2-0.7-3.7-0.7c-0.7-2.2-1.5-3.7-3-4.5c-3-4.5-3-3-7.5-3.7c-2.2-2.2-1.5-5.2-1.5-6.7c0.7-3,1.5-5.2,0-7.5
	c-5.2-1.5-4.5-0.7-4.5-3.7c-0.7-1.5-1.5-3-1.5-4.5c-0.7-0.7-0.7-1.5-1.5-2.2c-0.7-4.5-1.5-5.2-5.2-5.2c-2.2,1.5-5.2,3-6.7,3
	c0,0,0,0-0.7,0c0-3.7,0-7.5,0-11.2c0.7-1.5,1.5-3,2.2-4.5c2.2-3.7,4.5-4.5,8.2-7.5c0.7-0.7,2.2-1.5,3-3c0-1.5,0-3.7,0.7-5.2
	c0-0.7,0.7-1.5,0.7-2.2c0-3,0-7.5,1.5-9c0-3,0.7-5.2-0.7-7.5c-1.5-1.5-3.7-3-5.2-4.5c0-1.5,0-2.2,0-3.7c1.5,0,3-0.8,5.2-1.5
	c1.5-3.7-0.7-8.2-0.7-10.5c1.5-1.5,2.2-3,4.5-0.8c1.5,3,3,6,3.7,10.5c0.7,0.7,0.7,0.7,3,0.7c1.5-2.2,0.7-5.2,0.7-6.7
	c0.7-0.7,1.5-0.7,2.2-1.5c0.7,1.5,1.5,3.7,2.2,6.7c1.5,1.5,2.2,4.5,5.2,6.7c1.5,0,3,0.7,4.5,0.7c1.5,3,3,6,4.5,9
	c1.5,1.5,3,3.7,4.5,5.2c0,0.7,0,1.5,0.7,2.2c-2.2,2.2-2.2,1.5-2.2,5.2c1.5,2.2,2.2,3.7,6.7,5.2c0.7,0.7,0.7,1.5,3.7,2.2
	c0.7,0,2.2,0,3-0.8c3-0.7,6-2.2,9.7-3.7c1.5-3,1.5-4.5,1.5-6.7c-1.5-2.2-3-3-3.7-3.7c0-3-0.7-3,0.7-4.5c2.2-1.5,5.2-3,6.7-6
	c0-1.5,0-2.2,0-3c-0.7-3-1.5-3.7-2.2-4.5c0-0.7,0-0.7,0-0.7c0.7-0.8,1.5-0.8,1.5-0.8c4.5-3.7,0-6,7.5-5.2c0.7,2.2,2.2,5.2,3,7.5
	c0.7,1.5,1.5,2.2,3,3.7c1.5,0,3,0,4.5,0c1.5-1.5,3-2.2,4.5-3c0,0,0,0.8,0.7,0.8c0,2.2,0,6.7-2.2,8.2c-1.5,0.8-2.2,0.8-3,0.8
	c-1.5-0.8-3-1.5-4.5-2.2c-5.2,0-6,0.7-9.7,3.7c-0.7,0.7-0.7,1.5-1.5,2.2c0,1.5-0.7,3,0.7,5.2c0,1.5,1.5,5.2,5.2,3
	c3,0,5.2-1.5,5.2,3.7c-0.7,1.5-1.5,3.7-2.2,6c-3,3.7-1.5,6,3.7,8.2c0,0.8,0,2.2,0,3c0,1.5-2.2,5.2,0,8.2c0.7,1.5,2.2,3,3.7,4.5
	c2.2,0.8,5.2,1.5,8.2,2.2c0.7,0,1.5,0.7,3,1.5c0.7,0,2.2,0,3,0c0,1.5,0.7,2.2,0.7,3c-0.7,0.7-0.7,1.5-1.5,2.2
	c-1.5,1.5-3,2.2-4.5,2.2c-5.2,0-7.5,2.2-11.2,4.5c-0.7,1.5-1.5,3-3,4.5c-1.5,0-3,0-4.5,0c-1.5,0.7-3.7,4.5-6,3.7
	c-3-4.5-5.2-3-7.5-0.7c-3.7,0.7-4.5-1.5-6-2.2c-4.5-1.5-5.2,0.8-6.7,3c-1.5,1.5-4.5-0.7-5.2-0.7c-0.7,0-1.5,0-2.2,0
	c-2.2,2.2-2.2,1.5-2.2,5.2c1.5,2.2,3,3.7,1.5,7.5c0,1.5,1.5,3.7,1.5,7.5C282.3,637.6,281.6,638.3,281.6,638.3L281.6,638.3z"/>
<path class="st3" d="M379.5,633.1c0-0.7,0-1.5,0-2.2c-0.7,0-0.7-0.8-1.5-0.8c-0.7,0-0.7-0.7-1.5-0.7c-0.7-3-2.2-3-3.7-2.2
	c-0.7,1.5-0.7,2.2-0.7,3c-3,0.8-6,0.8-9,0.8c-1.5,0-3-0.8-5.2-0.8c-1.5-0.7-2.2-0.7-3.7-0.7c-1.5-1.5-2.2-2.2-3.7-3.7
	c0-0.7-0.7-1.5-1.5-2.2l0,0c-1.5-3,0-3.7,0.7-6c0-0.7,0-2.2,0-3c-0.7-0.7-2.2-1.5-3-2.2v-0.8c-4.5,0-7.5,0-10.5-0.7
	c-0.7,0-1.5-0.7-3-0.7c0-1.5-0.7-2.2-0.7-3.7c0.7,0,2.2,0,3.7,0c1.5,0,3-2.2,4.5-3c1.5-3,1.5-5.2,0-6.7c-0.7,0-2.2,0-3,0
	c-4.5-3-9-3.7-12-5.2c-1.5-1.5-2.2-3-2.2-3.7c2.2-3.7,2.2-4.5,7.5-4.5c1.5,0,2.2,0.7,3.7,0.7c0.7,1.5,2.2,2.2,3.7,3.7
	c1.5,0,3,0.7,6,0c3-2.2,6-6.7,9-9c0-0.8,0-1.5,0-3c0.7,0,1.5,0,3,0c0,0.7,0.7,0.7,0.7,1.5c1.5,0.7,3.7,2.2,6.7,3.7
	c0.7,0,1.5,0,2.2,0c1.5-0.7,3-1.5,5.2-2.2c2.2-2.2,3.7-3,6.7-4.5c0-0.7,0.7-0.7,1.5-1.5c2.2-3,3.7-3.7,7.5-4.5c1.5,0,3,0,5.2,0
	c3.7-2.2,4.5-4.5,9.7-4.5c0.7,1.5,1.5,3,3,4.5c0.7,0.7,1.5,1.5,2.2,2.2c-1.5,2.2-3,4.5-4.5,7.5c0,0.8,0,2.2,0,3
	c0.7,0.8,2.2,0.8,4.5,0.8c0,1.5,0.7,2.2,0.7,3.7c0.7,0.7,0.7,0.7,1.5,1.5c1.5,0,3.7-0.7,5.2-0.7c1.5,1.5,1.5,4.5,1.5,7.5
	c0,0.8-0.7,1.5-2.2,2.2c0,0.7-0.7,0.7-1.5,0.7c0,2.2,0,4.5-0.7,6c0,1.5-0.7,2.2-1.5,3.7c-0.7,0-2.2,0.7-2.2,2.2c-3,0-5.2,6-7.5,7.5
	c0,0.7-2.2,1.5-2.2,1.5c-1.5,1.5-3,3-3.7,3.7c0,0.8,0,0.8,0,0.8h-0.7v0.7c-1.5,0-3,2.2-3.7,3c-0.7,1.5-1.5,3-2.2,4.5
	c-3,0.8-4.5,1.5-6,3C380.2,633.1,380.2,633.1,379.5,633.1L379.5,633.1z"/>
<path class="st0" d="M532,615.1c-1.5-2.2-3-3.7-3.7-6c-3.7-0.8-3.7-3-4.5-4.5c-0.7-1.5-1.5-2.2-1.5-3c0-3.7,0.7-7.5,0-10.5
	c0-5.2,0.7-5.2,3-8.2c0.7-2.2,0.7-3.7,1.5-5.2c0.7-2.2,1.5-3.7,2.2-6c3-3.7,4.5-5.2,8.2-8.2c1.5,0,3,0,5.2,0.7c0,0,0,0,0.7,0.7
	c0,1.5,1.5,3,0.7,6c-3,3.7-0.7,10.5-0.7,16.5c-0.7,0.7-1.5,2.2-1.5,3.7c-1.5,3.7-3.7,6.7-5.2,10.5c-0.7,3.7-0.7,7.5-1.5,12l-0.7,0.7
	C533.5,615.1,532.7,615.1,532,615.1L532,615.1z"/>
<path class="st1" d="M532.7,613.6c-1.5-2.2-2.2-3.7-3.7-5.2c-0.7-0.7-1.5-0.7-2.2-0.7c-0.7-3-2.2-5.2-3-6c-0.7-0.7-0.7-1.5-0.7-3
	c0.7-2.2,1.5-4.5,1.5-6.7c-1.5-5.2,0.7-6,3-9c0-1.5,0-3,0.7-4.5c1.5-4.5,2.2-6.7,5.2-9.7c1.5-1.5,3-2.2,4.5-3.7c1.5,0,2.2,0,3.7,0
	c0,0.7,1.5,3.7,0.7,5.2c-2.2,3.7-0.7,10.5-0.7,16.5c-1.5,3.7-3.7,8.2-6,12c0,0.7,0,1.5-0.7,2.2c0,3.7-0.7,8.2-0.7,12
	C533.5,612.9,532.7,613.6,532.7,613.6L532.7,613.6z"/>
<path class="st4" d="M485.6,593.4c0-2.2-1.5-3.7-2.2-4.5l0,0c-2.2-3.7-4.5-6.7-7.5-9.7c-3-0.7-5.2,0-6.7-0.7c-0.7-3,0-4.5,0.7-7.5
	c0.7-2.2,0-4.5,0-6c1.5-2.2,3-3.7,3.7-5.2c0-0.7,0.7-1.5,0.7-3c0-2.2-0.7-5.2,0.7-6.7c0.7-0.7,2.2-1.5,3-2.2
	c0.7-0.8,1.5-1.5,2.2-2.2c0.7-0.7,0.7-1.5,1.5-2.2c0-0.7,0-1.5,0-2.2c-2.2-4.5-1.5-5.2,2.2-6.7c2.2-0.7,3.7-0.7,6-2.2
	c2.2-0.7,3.7-3.7,4.5-5.2c0.7-0.7,1.5-0.7,3,0.7c1.5,3,1.5,8.2,6,10.5c2.2,0.8,5.2,0.8,7.5,0.8c1.5-1.5,5.2-1.5,8.2-1.5
	c0.7,0,0.7,0,1.5,0c-1.5,1.5-3,2.2-3.7,4.5c0,1.5,0,3,0,3.7c-3.7,0-8.2-0.7-7.5,3c1.5,0.7,2.2,1.5,3,3c0.7,0,1.5,0.7,1.5,0.7
	c0,0.7-0.7,1.5-1.5,1.5c0,3-2.2,6.7-0.7,9.7c0.7,0,0.7,0.7,1.5,0.7v0.7l-0.7-0.7c-0.7,0-2.2,0-3.7,0.7c-0.7,0.7,0,0.7,0,3
	c-3.7,3-3,1.5-3.7,6.7c-0.7,0.8-2.2,1.5-3,2.2c-1.5,0-3,0.7-3.7,0.7c-1.5,0.8-1.5,2.2,0.7,3.7c-4.5,0.7-6.7,4.5-9,7.5
	c0,0,0,0.7-0.7,1.5C488.6,591.9,487.1,592.6,485.6,593.4L485.6,593.4z"/>
<path class="st5" d="M340.6,586.6c-3.7-1.5-4.5-3-6-4.5c-0.7,0-1.5-0.7-2.2-0.7c-4.5,0-5.2,0-8.2,2.2c0,0.8-0.7,1.5-1.5,2.2
	c0-2.2,0-3,0.7-4.5c0-1.5,0-3,0-5.2c-1.5-0.7-3.7-1.5-5.2-2.2c0-0.7,0.7-2.2,0.7-3c0.7-2.2,1.5-4.5,2.2-6.7c0.7-0.7,0-3.7,0-4.5
	c-0.7-0.7-1.5-1.5-1.5-1.5c-2.2,0-4.5,0-6.7,0.7c-2.2,0-1.5-2.2-1.5-3c-0.7-0.7-0.7-0.7-0.7-1.5c0-6,2.2-6,7.5-7.5
	c0.7,0,0.7,0,1.5,0c2.2,1.5,5.2,3,9,1.5c0.7-0.7,0.7-1.5,1.5-1.5c0-0.7,0.7-2.2,0.7-3c0,0,0.7,0,1.5,0c0.7,1.5,6,1.5,9.7,1.5
	c2.2-2.2,1.5-5.2,1.5-7.5c-3-3-6-3.7-8.2-4.5c-1.5-3-0.7-3.7,2.2-3.7c0.7,0.7,1.5,1.5,2.2,1.5c2.2,0.7,3.7,0.7,5.2,1.5
	c5.2,0,11.2-4.5,13.5-9c0-3.7,3-3.7,6-3.7c2.2,0.7,3.7,4.5,4.5,8.2c2.2,2.2,3.7,5.2,7.5,8.2c0.7,0,2.2,0.7,3.7,0.7
	c0,2.2,2.2,5.2,0,8.2c-4.5,3-7.5,0.7-6.7,7.5c0.7,0,2.2-0.7,3-0.7c2.2,0,3.7,0,5.2,0c0,2.2,0,5.2,0,8.2c0,1.5,0.7,2.2,3,3.7
	c0,0.7,0.7,1.5,1.5,3c-3,0-4.5,1.5-6.7,2.2c-2.2,3.7-6,5.2-9,7.5c-2.2,1.5-5.2,2.2-7.5,1.5c-1.5,0-2.2-0.8-3.7-1.5c-3-3.7-3-2.2-6-3
	c-0.7,0.7-1.5,0.7-1.5,1.5c0,0.7,0,1.5,0,2.2c-2.2,2.2-5.2,4.5-6.7,7.5C342.9,585.9,341.4,585.9,340.6,586.6L340.6,586.6z"/>
<path class="st4" d="M416.1,585.9c-2.2-2.2-4.5-0.7-6-0.7c-0.7,0-0.7-0.7-1.5-1.5c0-4.5-3-3.7-4.5-3.7c0,0,0-0.7,0-1.5
	c1.5-3,3.7-6,3.7-9c-1.5-2.2-3.7-3.7-3.7-6c-1.5-2.2-2.2-1.5-3.7-1.5c-1.5,0.7-3,0.7-4.5,0.7c-1.5,2.2-3,3-4.5,3.7
	c-1.5,0-3,0.7-4.5,0.7c0-3.7-2.2-4.5-3.7-6l-0.7-0.7c0-3.7,0-6.7,0-10.5c-3,0-5.2,0.8-7.5,1.5c0-3.7,0.7-3,3.7-3.7
	c2.2-0.8,3.7-3.7,3.7-6c-0.7-3-1.5-5.2-1.5-7.5c-0.7-3-0.7-6-0.7-9c0-0.7,0-2.2-0.7-3c3-1.5,4.5-3.7,5.2-6.7c2.2-1.5,4.5-3,7.5-2.2
	c1.5,0,3,0,3.7-1.5c0-3-0.7-3.7-2.2-4.5c0.7-2.2,4.5-0.7,7.5,0.8c0.7,0,2.2,0,3.7,0c2.2,1.5,6,3,9,5.2c0.7,0,2.2,0.8,3.7,1.5
	c0.7,0,2.2,0,3.7,0c0.7-1.5,1.5-2.2,2.2-3c1.5,0,3,0.7,5.2,3.7c0.7,0,1.5,0.7,2.2,0.7c2.2,0.8,5.2,3.7,8.2,6.7c0.7,3,1.5,6,0,9.7
	c-4.5,4.5-6.7,6.7-3,13.5c0,0.7,0.7,1.5,0.7,2.2c0.7,0.7,2.2,6.7,3,9.7c1.5,2.2,1.5,3.7,0.7,6.7c0,2.2,0,4.5,0.7,8.2
	c-4.5,0-9,0-13.5,0c-1.5,1.5,0.7,3.7,2.2,5.2c0,0.7-0.7,1.5-0.7,2.2c-1.5,0-4.5-3.7-4.5-3.7c-1.5,0-3,0-4.5,0
	c-0.7,0.7-1.5,2.2-2.2,3.7C418.4,581.4,418.4,584.4,416.1,585.9L416.1,585.9z"/>
<path class="st1" d="M450.5,584.4c-0.7-0.8-2.2-0.8-3-0.8c0-0.7,0-0.7,0-0.7c1.5-2.2,3.7-4.5,5.2-6.7c0-2.2-0.7-3-0.7-3.7
	c-3,0-3.7,0-5.2,0.7c-0.7,0-2.2,0-3.7,0.7c0-2.2-0.7-3.7-1.5-5.2c0-3.7,1.5-6.7,0.7-10.5c-0.7,0-0.7-0.7-1.5-0.7
	c0-4.5-2.2-8.2-3-11.2c-1.5-4.5-3-6-0.7-9c1.5-0.7,3.7-4.5,4.5-5.2c0-2.2,0-4.5,0-6.7c-0.7-1.5-1.5-3-2.2-4.5l-0.7-0.7
	c0.7-0.8,2.2-2.2,3-3c0,0,3.7,0,4.5-0.8c0-0.7,0.7-0.7,0.7-0.7c2.2-3,6-4.5,9-6.7c1.5-3,7.5-1.5,11.2-4.5c0.7-3,0.7-3,4.5-3
	c0,2.2,0,4.5,0,6c0.7,1.5,2.2,1.5,3.7,1.5c2.2-1.5,1.5-4.5,2.2-5.2c0.7,0.7,1.5,4.5,4.5,4.5c2.2,0,4.5,0,6.7-1.5c0.7,0,1.5,0,2.2,0
	c-0.7,3-4.5,3.7-3,7.5c2.2,2.2,3.7,4.5,6,8.2c0,1.5,0,2.2,0,3c-0.7,0.8-1.5,2.2-2.2,3.7c-3,3.7-6,2.2-9,3.7c-3,3-3.7,2.2-3,6.7
	c0.7,1.5,0.7,3,0,5.2c-1.5,0.7-2.2,1.5-3,3c-4.5,3-4.5,2.2-3.7,9c0,0.8,0,2.2-0.7,3c-3,3-3.7,3-3.7,7.5c0,0.7,0.7,1.5,0.7,2.2
	c-0.7,2.2-2.2,6-1.5,9c0,0.7,0,1.5,0.7,1.5c-1.5,0.7-3,1.5-4.5,3c-3-3-6-0.7-9.7,0.7C452.7,583.6,452,584.4,450.5,584.4L450.5,584.4
	z"/>
<path class="st3" d="M290.5,567.9c-0.7,0-0.7,0-1.5,0c-3-2.2-4.5-2.2-6.7-4.5c-0.7-0.8-1.5-0.8-1.5-1.5c0-0.7,0-1.5,0-2.2
	c3-3.7,1.5-6-0.7-9c-3-3-3.7-6.7-5.2-8.2c-2.2-4.5-1.5-3-5.2-3.7c-0.7,0-1.5-0.8-2.2-0.8c-0.7-1.5-2.2-3-3-4.5
	c-0.7-2.2-1.5-4.5-2.2-6c-0.7-1.5-1.5-2.2-1.5-3c-6,0-3,5.2-4.5,8.2c-0.7,0-0.7,0-1.5,0c0-3-1.5-6-2.2-8.2c1.5-0.7,1.5-3.7,1.5-3.7
	c0-1.5,0-3,0.7-4.5c-2.2-3-2.2-6.7-2.2-9c0.7-1.5,2.2-2.2,3-3c-0.7-2.2-0.7-3.7-0.7-6c-0.7-1.5-1.5-3-2.2-3.7c-0.7-3-2.2-6.7-3-8.2
	c-3-3.7-6.7-7.5-6.7-11.2c-1.5-0.7-3-1.5-4.5-3c-0.7,0-0.7-0.7-0.7-0.7c-0.7,0-0.7,0-0.7,0c0-2.2-0.7-4.5,0-5.2c3-1.5,3-4.5,3-6.7
	c-0.7-1.5-2.2-3-3-3.7c0-1.5,0-2.2,0-3c3,0,6-0.8,9-0.8c1.5,0.8,3.7,3,4.5,5.2c0,3.7,3.7,7.5,7.5,11.2c0.7,0,2.2-0.8,3.7,2.2
	c1.5,0,2.2-0.7,4.5-1.5c0-0.7,0.7-0.7,0.7-0.7c0,0.7,0.7,0.7,0.7,0.7c0,1.5,2.2,2.2,4.5,2.2c0,0,0.7,0.7,0.7,1.5c0.7,0,1.5,0,3,0
	c0-0.7,0.7-1.5,2.2-2.2c1.5,0,3.7-0.7,5.2-0.7c0.7-0.7,0.7-1.5,0.7-1.5c0-4.5-3-9.7-0.7-11.2c0.7,0.7,1.5,2.2,3.7,3
	c0.7,0.7,0.7,0.7,1.5,1.5c1.5,0.8,3.7,0.8,6.7,0c0.7-0.7,0.7-1.5,1.5-2.2c0-3.7-0.7-5.2-1.5-6.7c1.5-1.5,4.5-5.2,6.7-3
	c0.7,1.5,1.5,3,5.2,5.2c0.7,0.8,1.5,0.8,3,1.5c1.5,2.2,4.5,3.7,6.7,7.5c0,0.7,0.7,1.5,0.7,2.2c0.7,1.5,3,5.2,5.2,6c3,0,6,0,9,0
	c2.2-1.5,3-2.2,6-2.2c2.2,0.7,3.7,1.5,6,2.2c1.5,0,3,0,5.2,0c1.5,1.5,2.2,3,6,3c0.7,0.7,2.2,1.5,3,2.2c0,2.2,0,4.5,0,6.7
	c-3,2.2-4.5,6-5.2,9.7c-1.5,2.2-3.7,5.2-6.7,7.5c-5.2,1.5-5.2-0.7-8.2-3c-1.5-2.2-4.5-3-5.2-2.2c0,0-0.7,0-0.7,0.7c0,1.5,0,3,0,4.5
	c0.7,2.2,1.5,4.5,1.5,7.5c-0.7,2.2-1.5,5.2-0.7,8.2c0.7,0.7,1.5,1.5,2.2,2.2c1.5,0.8,4.5,5.2,1.5,9c-3,1.5-3,0.7-3,4.5
	c1.5,3,6,2.2,9,6c0,0.7,0,3.7-0.7,5.2c-3.7,0-7.5-0.7-9.7-1.5c0-2.2-0.7-4.5-1.5-6c-3,0-3.7,2.2-6,3c-0.7,0-2.2,0-3,0
	c-3.7-3-4.5-6.7-4.5-9c-0.7-0.7-1.5-1.5-1.5-2.2c-5.2,0-6.7-0.7-7.5,4.5c-1.5,1.5-2.2,0.7-3.7,1.5c0,0.7,0,1.5,0,2.2
	c1.5,1.5,3.7,3.7,2.2,7.5c-0.7,2.2-4.5,3.7-6.7,5.2c0,0,0,0.7-0.7,0.7c0,1.5,0,3,0,5.2c1.5,2.2,3.7,0.7,3.7,6
	c-0.7,0.7-0.7,1.5-0.7,2.2c-1.5,0.7-2.2,0.7-3,1.5C295.8,565.7,292.8,567.2,290.5,567.9L290.5,567.9z"/>
<path class="st5" d="M178.4,546.2c-1.5-1.5-9.7-0.7-10.5-0.7c-0.7,0-1.5,0-1.5,0.7c-7.5-0.7-3.7-3.7-2.2-7.5c0-0.8,0-1.5,0-2.2
	c-5.2-1.5-4.5-3-5.2-6c-0.7,0-0.7-0.7-0.7-0.7c-3,0-4.5-0.8-6.7-0.8c-0.7-1.5-1.5-2.2-2.2-3c-3-1.5-6-3-7.5-3.7
	c-0.7-0.7-0.7-0.7-1.5-0.7c-1.5,0-3,0-4.5,0c-2.2,1.5-3,3-5.2,4.5c-0.7,0-1.5,0.7-2.2,1.5c0,0.7-0.7,0.7-0.7,1.5
	c0,1.5-0.7,3.7-0.7,5.2c-6-0.7-4.5-6-3-9.7c0-0.7,0-1.5,0-1.5c-2.2-2.2-2.2-1.5-4.5-2.2c-5.2,1.5-7.5,1.5-11.2,3.7
	c-3.7,0-5.2-3-6-4.5c-0.7-0.8-1.5-1.5-2.2-2.2c-3,0-6.7,0-9.7,0c-3-1.5-3-5.2-4.5-6.7c-2.2-0.8-2.2-0.8-3-2.2
	c-0.7-0.7-1.5-1.5-2.2-2.2c-2.2-0.7-3.7-0.7-5.2-1.5c-5.2-4.5-3.7-5.2-4.5-9.7c-0.7-0.7-0.7-1.5-1.5-2.2c-1.5,0-3.7,0-5.2,0
	c-4.5-1.5-3.7-3-4.5-5.2c-1.5-1.5-3-2.2-3.7-3c-2.2-1.5-3.7-3-5.2-4.5c-1.5-2.2-3-4.5-4.5-6.7c-2.2,0-3,0-4.5,0.8
	c-1.5,0-2.2,0.7-3.7,1.5c-1.5,0-3,0-4.5,0c-3.7-3-4.5-6.7-4.5-9.7c-1.5-1.5-3-3.7-3.7-6c-3.7-3.7-9-5.2-12.7-6
	c-3-2.2-1.5-3.7-0.7-5.2c1.5-0.7,2.2-3,2.2-3c0-3,0-6,0-9c-1.5-4.5-2.2-4.5,1.5-4.5c0.7,0,0.7,0.7,1.5,0.7c0.7,1.5,3,6.7,6,3
	c0-1.5,0.7-3,0.7-3.7c0-3,0-5.2,0-8.2c-1.5-2.2-2.2-3.7-3-6c-0.7-4.5,0-6.7,2.2-8.2c0.7-0.7,0.7-1.5,1.5-2.2c1.5,0.7,3,1.5,5.2,2.2
	c0.7,0,2.2,0,4.5,0c0.7-1.5,2.2-2.2,3.7-3.7c1.5-4.5,3-6.7,7.5-9c1.5,0,1.5,0,3.7,0.7c1.5,1.5,3.7,2.2,6,3.7c0,3,3.7,1.5,6,0.7
	c1.5,0,3-0.7,4.5-0.7c3-3,3-4.5,7.5-1.5c0,3.7,0,3,3.7,6c1.5,0,3,0.7,4.5,1.5c1.5,0,2.2,0,3.7,0c2.2-0.7,4.5-2.2,8.2-2.2
	c4.5-1.5,3.7-2.2,9,0c2.2,0,3.7,0,5.2,0.7c2.2-1.5,1.5-3,3.7-3.7c3.7-3,6-4.5,12-1.5c3.7,0,9.7-0.7,14.9-0.7c0.7,0.7,2.2,1.5,3,1.5
	c1.5,1.5,3,3,5.2,3.7c0,0.7,0,2.2,0,3c1.5,1.5,4.5,3.7,3,7.5c-0.7,1.5-1.5,3-2.2,4.5c0,1.5,0,3,0,4.5c0.7,8.2-0.7,16.5,6.7,24
	c0.7,0.8,3.7,2.2,6,3c1.5,0.8,3.7,0.8,5.2,1.5c3,4.5,6.7,6.7,13.5,7.5c3,2.2,4.5,4.5,9.7,5.2c4.5-0.7,9-0.7,13.5-0.7
	c0.7,0.7,1.5,0.7,3,1.5c0.7,0.7,2.2,1.5,3.7,2.2c0.7,2.2,2.2,3.7,3,6c0.7,3.7,0.7,3.7,4.5,7.5c0.7,0,2.2,0,3,0
	c0-0.7,0.7-1.5,1.5-2.2c0.7,0,1.5-0.8,2.2-0.8c0,1.5,1.5,3,3.7,3c1.5-0.7,3-2.2,4.5-3c1.5-2.2,3-5.2,5.2-6.7c0,0,0,0,0.7,0
	c0,0.7,2.2,2.2,4.5,3.7c0.7,3,3.7,6.7,7.5,10.5c0.7,3,1.5,6,2.2,8.2c1.5,2.2,3,4.5,3,8.2c-3,3.7-3,3-3,8.2c0.7,2.2,3,5.2,1.5,9
	c0,0.7,0,1.5,0,2.2h-0.7c0-0.7-1.5-1.5-2.2-2.2c-3,0-3.7,0.7-5.2,2.2c0,1.5,0.7,3.7,1.5,7.5c0,0.7-0.7,2.2-0.7,3
	c0,0-0.7,0.7-1.5,0.7c-0.7,0-2.2,0-3,0c-1.5-2.2-3-3.7-3.7-5.2c-5.2-2.2-8.2,1.5-7.5,6.7c0,0.7-0.7,0.7-0.7,1.5
	c-2.2,0-5.2-0.7-5.2-1.5c-0.7-1.5-0.7-2.2-0.7-3c-3.7-1.5-6-2.2-8.2-3c-0.7-0.8-0.7-1.5-1.5-2.2c-4.5,0-3.7,0.7-6.7,3.7
	c-2.2,0.7-3.7,1.5-5.2,3c-4.5,0.7-3.7,0.7-6,4.5c-5.2,0.7-5.2,0.7-8.2,4.5c-0.7,0.7-0.7,0.7-1.5,1.5
	C182.2,544.7,180.7,545.4,178.4,546.2L178.4,546.2z"/>
<path class="st3" d="M508.8,537.9c-3.7-0.7-5.2-1.5-6.7-3c-0.7-2.2-1.5-5.2-2.2-8.2c-0.7-0.7-1.5-0.7-3-1.5
	c-0.7-0.7-1.5-0.7-2.2-0.7c1.5-4.5-3.7-9.7-6-11.2c0-2.2,3-3.7,3.7-5.2c0-2.2,2.2-3,3.7-4.5c0.7-0.7,0.7-1.5,1.5-2.2
	c0-1.5,0-6,0.7-6c0.7-0.7,2.2-3,4.5-0.7c1.5,0,2.2,0,3.7,0c1.5-2.2,4.5-1.5,7.5-0.7c0.7,1.5,3.7,3,6.7,1.5c1.5-0.7,3-3.7,5.2-1.5
	c1.5,0.7,2.2,0.7,3.7,1.5c1.5,0,3,0,4.5,0.8c0,0.7-8.2,4.5-5.2,7.5c0.7,0,2.2,0,3.7,0c0-0.7,0.7-1.5,1.5-1.5c0,0,0.7,2.2-0.7,3
	c-2.2,0.7-3,0.7-4.5,2.2c0,0.8,0,1.5,0,2.2c0.7,0,1.5,0.7,3,0.7c-0.7,2.2-0.7,3.7-0.7,6.7c0,1.5,0.7,4.5,0,5.2
	c-0.7,0-0.7,0.7-1.5,0.7c0-0.7,0-1.5,0-1.5c-2.2-2.2-6,3.7-7.5,5.2c0,0,0,1.5-0.7,2.2c0,2.2,0,4.5,0,6.7c-0.7,0-0.7,0-1.5,0
	C514.8,535.7,512.5,536.4,508.8,537.9L508.8,537.9z"/>
<path class="st1" d="M379.5,536.4c-5.2-2.2-6.7-6-9-9c-0.7-6-5.2-11.2-11.2-8.2c-1.5,1.5-1.5,1.5-1.5,3.7c-1.5,2.2-3.7,4.5-6,6
	c0,0,0,0,0,0.8c-0.7,0-1.5,0-1.5,0.7c-0.7,0-1.5,0.7-3,0.7c-3.7,0-7.5-0.7-9.7-3c1.5-3,1.5-5.2,0.7-6.7c-2.2-2.2-4.5-4.5-5.2-6
	c0-3.7,0.7-7.5,0.7-10.5c-0.7-3.7-1.5-5.2-0.7-7.5c0-0.7,0-0.7,0-0.7c1.5,0.7,3,2.2,4.5,3c0.7,0.7,2.2,2.2,3,3c6.7,3,12-6.7,14.2-12
	c1.5-2.2,3-4.5,4.5-6.7c0-2.2,0-3.7,0-6c0.7-0.7,1.5-0.7,2.2-1.5c3.7,0,6.7-1.5,11.2,2.2c1.5,0.7,2.2,2.2,3.7,3.7
	c2.2,0,3.7,0.8,5.2,1.5c2.2,0.7,9,4.5,9,9c-3,1.5-5.2,4.5-7.5,6c-6,1.5-11.2-0.8-14.9,1.5c0,1.5,0,2.2,0,3c2.2,3-3,6,2.2,9.7
	c1.5,0.8,3,2.2,3.7,3.7c1.5,1.5,2.2,3,3.7,4.5c0.7,1.5,0.7,3,1.5,4.5C379.5,529.7,379.5,532.7,379.5,536.4L379.5,536.4z"/>
<path class="st5" d="M379.5,520.7c-2.2-4.5-6.7-7.5-9.7-10.5c-0.7-2.2,0-2.2,0-3.7c0-0.7,0-1.5,0.7-3c-0.7-0.7-0.7-1.5-1.5-1.5
	c2.2-2.2,9-1.5,12-1.5c3-0.7,5.2-2.2,7.5-4.5c0.7-0.8,2.2-1.5,3-2.2c0-1.5,0-2.2,0-3c-2.2-4.5-6-6.7-9-8.2c0-0.7-0.7-1.5-0.7-1.5
	c0-2.2,0-4.5,0-6c1.5-1.5,2.2-3,4.5-3.7c3-1.5,0.7-4.5,0-6c-1.5-0.8-3-1.5-3.7-2.2c3.7,0,7.5,0,11.2,0c1.5,0,3,0,4.5,0.7
	c1.5,2.2,6,6,10.5,6.7c0.7,0.8,1.5,0.8,3,1.5c4.5,0,9.7,0,14.2,0c2.2,1.5,3.7,2.2,5.2,3c0,1.5,1.5,3,3.7,4.5
	c2.2,0.8,4.5,0.8,6.7,0.8c1.5,0.7,3,1.5,5.2,2.2c0,0.8,3,0,6,1.5c0,0.7,0,1.5,1.5,3c0.7,0,4.5,0,4.5,2.2c-1.5,2.2-1.5,1.5-1.5,4.5
	c0,1.5,2.2,2.2,3,5.2c0,1.5,0,3.7,3,5.2c0,0,0,0,0,0.8c-6.7,0.7-8.2,3-14.2,6.7c-1.5,0.7-2.2,1.5-3,3c-3.7,1.5-5.2,0-7.5,3.7
	c-0.7,0-0.7,0-1.5,0.7c-1.5-1.5-2.2-3-3.7-3.7c-4.5-0.7-6-3.7-8.2-5.2c-3,0-3,0.8-4.5,3c-6.7,0-12-4.5-15.7-6.7
	c-3,0-5.2-0.7-7.5-1.5c-5.2,0-6.7,0.7-3,5.2c0,0.8,0,0.8-0.7,1.5c-0.7,0-1.5,0-1.5,0c-6.7,0-8.2,2.2-10.5,7.5
	C380.2,520,380.2,520.7,379.5,520.7L379.5,520.7z"/>
<path class="st2" d="M473.7,507.2c-0.7,0-0.7,0-0.7-0.7c0-1.5,0-3.7,0-5.2c0-0.7-0.7-0.7-0.7-0.7c-4.5,0-4.5-0.7-6.7,3
	c0,0-0.7,0-0.7,0.7c0-1.5-1.5-1.5-2.2-2.2c0-0.8,0-0.8-0.7-1.5c0-3.7-1.5-3.7-2.2-6c-0.7-0.7-0.7-0.7-1.5-0.7c0-2.2,1.5-2.2,2.2-3.7
	c0-4.5-4.5-3.7-6-5.2c0-0.7,0-0.7,0-1.5c-0.7,0-0.7-0.8-0.7-0.8c0-2.2,2.2-3,3.7-3.7c0.7-0.7,1.5-1.5,2.2-2.2c0-3.7-1.5-7.5-3-9
	c-1.5,0-2.2,0-3,0c-0.7,0-0.7,0.8-0.7,0.8c-0.7,0-0.7,0-1.5,0c-1.5-1.5-1.5-4.5-2.2-6c-0.7-0.8-1.5-0.8-2.2-1.5c0-3,3-4.5,5.2-6.7
	c0.7-3,0-6,0-9c0-0.7,0-0.7,0.7-0.7l0.7,0.7c0.7,0.7,1.5,4.5,4.5,5.2c0.7,0,1.5,0,2.2,0c2.2-2.2,1.5-3.7,3-6.7c0,0,0-0.8,0-1.5
	c-1.5-1.5-3-3-4.5-4.5c0-1.5,0.7-1.5,1.5-1.5c0.7,0,0.7,0,0.7,0c2.2,1.5,4.5,3.7,5.2,6.7c0.7,0.8,1.5,2.2,2.2,3c3,0,6,0.8,9,1.5
	c0.7,0.7,1.5,0.7,2.2,1.5c1.5,3,2.2,8.2,6,11.2c0,0,0,0.7,0.7,0.7c0.7,0,3,0,4.5-0.7c0.7-3,0-1.5,3-2.2c0,0.8,1.5,3,1.5,5.2
	c-1.5,0.7-3.7,0.7-5.2,0.7c-0.7,0.7-1.5,2.2-1.5,3c0,1.5,0,2.2,0,3c-1.5,1.5-1.5,1.5-1.5,3.7c1.5,1.5,3.7,3,5.2,5.2
	c0.7,0,2.2,0,3,1.5c0.7,0.7,1.5,1.5,2.2,2.2c1.5,0,3.7,0,6,0.8c0,0,0.7,0,0.7,0.7c0,0.7,0,0.7,0,1.5c-2.2,3-6,0.8-6,5.2
	c0.7,0.7,0.7,1.5,0.7,2.2c-1.5,0.7-2.2,1.5-3,1.5c0,2.2,0,4.5,0,6c-2.2,3.7-4.5,4.5-8.2,5.2c-3,0.7-4.5,1.5-6.7,0.7
	c-2.2-2.2-2.2-3.7-3.7-4.5c-1.5,0-0.7,0-1.5,1.5c-0.7,1.5-0.7,2.2-0.7,3.7C474.4,507.2,473.7,507.2,473.7,507.2L473.7,507.2z"/>
<path class="st4" d="M504.3,493c-2.2-0.7-3-0.7-3.7-0.7c0-0.8,0-0.8,0-1.5c-3-0.7,3.7-3,4.5-3c0-0.7,0.7-0.7,0.7-1.5
	c0-6-3.7-4.5-6.7-5.2c-2.2,0-3-2.2-3-2.2c-3-1.5-4.5-2.2-5.2-3.7c-2.2-1.5-2.2-2.2-2.2-3c1.5-1.5,1.5-3,1.5-4.5c0-0.7,0-1.5,0.7-2.2
	c1.5,0,3.7,0.7,6-1.5c0-3-0.7-6-2.2-6.7c-2.2,0-3,0-4.5,0c0,0.7,0,1.5,0,2.2c-0.7,0-2.2,0-3,0.7c-0.7-1.5-0.7-1.5-2.2-2.2
	c-2.2-4.5-3-8.2-5.2-10.5c-2.2-1.5-4.5-1.5-6-1.5c-1.5-0.7-3-1.5-4.5-1.5c-0.7-0.7-0.7-0.7-0.7-1.5c-1.5-3-4.5-6.7-6.7-8.2
	c0-2.2-0.7-5.2,2.2-3.7c0.7,0.7,0.7,1.5,1.5,1.5v0.7c1.5,0.7,2.2,1.5,3.7,3.7c1.5,0.8,3.7,1.5,6.7,1.5c2.2-0.7,3.7-6.7,6-3
	c0.7,0,1.5,0,2.2,0c0.7-0.7,1.5-2.2,3-3c0-3,0.7-6.7,4.5-6.7c0,1.5,0,2.2,0,3.7c1.5,0.7,2.2,2.2,3.7,3c2.2,0.7,5.2,3,9,4.5
	c2.2,5.2,5.2,10.5,9,16.5c0,1.5,0.7,4.5,3,6.7c3.7,2.2,6.7,3.7,11.2,6.7c0,0.7,0,0.7,0,1.5c-0.7,0.7-6.7,0-6.7,0c0,0.7,0,1.5,0,3
	c0.7,0,2.2,0.7,3.7,1.5c0,0.7-0.7,1.5,0,3c1.5,0.7,3,1.5,5.2,2.2c0,0.7,0,0.7,0,0.7c0,3-3,3.7-5.2,5.2c0,0.7,0,0.7,0,0.7
	c-0.7,0-5.2,4.5-6,5.2c-1.5,0.7-3,0.7-4.5,1.5v0.8c-2.2,0-4.5,0-6.7-0.8C506.5,492.2,505.8,493,504.3,493L504.3,493z"/>
<path class="st1" d="M452,481.7c-2.2,0-3.7,0-6-0.7c-1.5-0.7-3-1.5-4.5-2.2c-4.5,0-6,0-8.2-1.5c-0.7-1.5-1.5-2.2-2.2-3.7
	c-1.5-0.7-2.2-1.5-3.7-2.2c-5.2,0-10.5,0-14.9-0.8c-3.7-0.7-9-3-9.7-4.5c-2.2-1.5-2.2-2.2-3-3c-0.7-6-3.7-9-5.2-12
	c-0.7-2.2-1.5-3.7-2.2-6c0-1.5,0-3,0-4.5c2.2,0,4.5-2.2,6-3.7c0.7,0,1.5-0.7,2.2-0.7c3,0,6-1.5,9-3.7c2.2,0,5.2-1.5,8.2-2.2
	c3-1.5,4.5-3,6.7-5.2c3-2.2,3-7.5,3-10.5c2.2,0.7,4.5,0.7,6.7,1.5c3,0,6.7,0,9.7,0c0.7,0.7,0.7,1.5,1.5,2.2c1.5,0.7,3,3.7,1.5,6.7
	c-2.2,0.7-3.7,1.5-3.7,4.5c-0.7,0-1.5,0-1.5,0.7c0,0,0,0,0,0.8c1.5,0.7,3,2.2,4.5,3v0.8c2.2,1.5,6,6,9.7,3c0.7,0,1.5,0.7,2.2,2.2
	c1.5,0.8,2.2,1.5,3.7,3v0.8c-1.5,1.5-1.5,4.5-2.2,6c-0.7,0-1.5-0.8-1.5-0.8c-3-3-3-6.7-6.7-5.2c0,3,0,6,0,9c-0.7,1.5-3.7,4.5-6,6
	c0,0.7,0,2.2,0,3c0.7,0.8,1.5,1.5,3,2.2c0,0.7,0.7,3,0.7,4.5c0.7,0,1.5,1.5,3.7,1.5c1.5-0.7,0.7-1.5,3-0.7c0.7,1.5,3,5.2,1.5,8.2
	c-0.7,0-3.7,1.5-3.7,2.2C452.7,480.2,452,481,452,481.7L452,481.7z"/>
<path class="st2" d="M379.5,481.7c-4.5-1.5-5.2-3.7-8.2-6c-0.7,0-1.5-0.7-3-0.7c-3,0-6.7,0-9,1.5c-1.5,0-3.7-2.2-3.7-3
	c-4.5,0-5.2-2.2-6.7-3c-1.5,0-3,0-5.2,0c-1.5-0.7-3.7-1.5-5.2-1.5c0-2.2,0.7-2.2,0.7-3.7c0-3,0-3.7-1.5-3.7c-0.7-1.5-0.7-2.2-0.7-3
	c2.2,0,4.5,0,7.5,0c1.5-3,0.7-6,0.7-9c-0.7-1.5-1.5-2.2-1.5-3.7c-1.5-8.2-1.5-9,6.7-9c1.5,0.8,3.7,1.5,5.2,3c0.7,0,2.2,0,3-0.7
	c0-2.2,0-3.7,0-5.2c0-1.5,3.7-2.2,5.2-0.7c0.7,0,2.2,0,3,0c1.5-3,1.5-8.2,0.7-10.5c0-2.2,0.7-2.2,1.5-3.7c0-0.7,0-1.5,0-2.2
	c-0.7-0.7-1.5-0.7-2.2-0.7c-2.2-1.5-5.2-3-6-4.5c-3,0-6.7-1.5-8.2-2.2c0-2.2,0.7-2.2,1.5-3c-0.7-2.2-0.7-3.7-0.7-4.5
	c0.7,0,1.5-2.2,2.2-3c0.7,0,2.2-0.7,4.5,0.7c3,0,6,0,9.7,0c3-3,1.5-8.2,1.5-10.5c0-3,2.2-3,3.7-5.2c0.7-1.5,2.2-3.7,3.7-5.2
	c0.7-0.7,2.2-2.2,3.7-3c0.7-0.7,1.5-2.2,2.2-3c0.7,0.7,1.5,0.7,2.2,1.5c0.7,0,0.7,0,0.7,0c1.5-0.7,2.2-2.2,3-3c0.7,0,3.7,0,3.7,3.7
	c0,0.7-0.7,1.5-1.5,2.2c0,3.7,0,6.7-3,9.7c-1.5,3.7,0,8.2,0.7,12.7c0,3-2.2,6.7-3.7,9c0,3,0,6.7,0,10.5c0.7,1.5,2.2,5.2,2.2,8.2
	c-1.5,3.7-2.2,6.7-0.7,10.5c0.7,1.5,1.5,1.5,2.2,3.7c0,1.5,0,3,0,4.5c0.7,2.2,2.2,4.5,3,7.5c1.5,2.2,3.7,4.5,4.5,9
	c-1.5-0.8-2.2-0.8-3.7-0.8c-3,0-12-0.7-13.5,0.8c0,0,0,0.7,0,1.5c1.5,0.7,3,2.2,5.2,3.7c0,0.8,0,1.5,0,2.2c-3,0.7-3.7,2.2-6,4.5
	c0,2.2,0,4.5,0,7.5C380.2,481.7,380.2,481.7,379.5,481.7L379.5,481.7z"/>
<path class="st1" d="M217.3,481.7c-1.5-1.5-3-2.2-3.7-3.7c-0.7-3.7-2.2-6.7-3.7-9c-3-3.7-5.2-3.7-8.2-5.2c-4.5,0-9,0.7-13.5,0.7
	c-4.5-0.7-6.7-3-9-5.2c-4.5-0.7-8.2-1.5-11.2-3.7c0-0.8-1.5-2.2-1.5-3l-0.7-0.8c-3.7-0.7-6.7-1.5-9-3c-5.2-1.5-6.7-9-7.5-12
	c-0.7-6-0.7-11.2-0.7-16.5c0.7-1.5,2.2-4.5,2.2-6c0-2.2-1.5-3.7-1.5-4.5c0.7,0,1.5,0,1.5,0c0.7,0.7,2.2,0,3,0
	c0.7-0.7,0.7-0.7,0.7-1.5c3-1.5,3.7,1.5,7.5,3c0.7,0,3.7,0.7,5.2,0c0-0.7,0.7-1.5,0.7-1.5c0-1.5,0-2.2,0-3c-1.5-3-3.7-4.5-2.2-6
	c1.5-1.5,2.2-1.5,3.7-2.2c0-0.7,0.7-1.5,1.5-1.5c2.2-5.2-0.7-6-3-7.5c-0.7-3-3-5.2-4.5-5.2c0-0.7-0.7-1.5-0.7-2.2
	c1.5-2.2-0.7-4.5-1.5-5.2c0,0,0,0,0-0.7c5.2-1.5,12.7-0.7,18.7-2.2c4.5-3,9-4.5,15.7-4.5c0.7,0,1.5,0.7,2.2,0.7
	c5.2,0,10.5-0.7,15.7,1.5c3.7,2.2,6.7,4.5,9.7,6.7c0.7,0,0.7,0.7,1.5,1.5c1.5,0.7,3.7,3,7.5,4.5c1.5,0,3,0,3.7,0
	c0.7-0.7,1.5-1.5,2.2-1.5c0-3,0-5.2-0.7-6.7c1.5-0.7,3.7-0.7,6-0.7c0.7,0.7,2.2,1.5,3.7,3c2.2,0,4.5,0.7,8.2,1.5
	c1.5,0.7,3,1.5,4.5,2.2c1.5,0.7,3,1.5,4.5,3l0,0c0,0.7,0.7,0.7,0.7,1.5c2.2,0,4.5,0,6.7-0.7c1.5,2.2,3,3.7,5.2,6
	c2.2,1.5,4.5,3.7,6.7,5.2c1.5,0.7,2.2,0.7,3.7,1.5c1.5,0,3.7,0,6,0c1.5,1.5,3,6.7,3.7,9.7c0.7,2.2,1.5,4.5,2.2,6.7
	c0.7,1.5,0.7,3.7,0.7,5.2c0.7,1.5,3.7,4.5,0.7,6.7c-5.2,3-5.2,3.7-9,9.7c-1.5,0.8-3,2.2-3.7,3c-0.7,0.8-0.7,1.5-0.7,2.2
	c1.5,0.7,3,2.2,4.5,3.7c0,2.2-3.7,1.5-3.7,1.5c-1.5-0.7-3-1.5-4.5-3c-2.2,0-6.7,0-7.5,0.7c0,3.7,0,6.7,4.5,10.5c0,1.5,0,3,0,4.5
	c0.7,2.2,1.5,4.5,2.2,6.7c0,2.2-2.2,2.2-4.5,2.2c-2.2,0.7-2.2,0.7-3.7,2.2c-0.7,0-1.5,0-1.5,0c0-0.8-0.7-1.5-0.7-1.5
	c-1.5,0-2.2-0.7-3.7-0.7c0-0.7-0.7-1.5-1.5-1.5c-0.7,0-1.5,0-2.2,0c0,0-2.2,1.5-3,1.5c0-0.7-0.7-1.5-0.7-1.5
	c-1.5-0.7-2.2-0.7-3.7-0.7c-1.5-2.2-3.7-4.5-5.2-6c0-0.7-0.7-1.5-0.7-1.5c0-4.5-2.2-6-4.5-8.2c-3-0.7-6-0.7-8.2-0.7
	c-4.5,0.7-3,0.7-3.7,5.2c0.7,1.5,2.2,3,3,3.7c0,1.5,0,2.2,0,3c-1.5,1.5-5.2,3.7-3,7.5c0,1.5-3,5.2-4.5,6.7c-0.7,2.2-2.2,2.2-3.7,3
	c0,0.8-0.7,0.8-0.7,1.5c-2.2,0-2.2-1.5-3-2.2c-1.5-0.7-3.7,0-4.5,0C218,480.2,218,481,217.3,481.7L217.3,481.7z"/>
<path class="st3" d="M392.2,439c-3.7-2.2-3-5.2-3-7.5c0.7-1.5,0.7-2.2,1.5-3.7c-0.7-1.5-0.7-3-0.7-4.5c-0.7-1.5-1.5-3.7-2.2-5.2
	c0-3,0-6,0-9c2.2-3,3-5.2,3.7-7.5c0-0.7,0-2.2,0.7-3c-1.5-6-3.7-10.5,1.5-13.5c0.7-3.7,0.7-5.2,0.7-7.5c0.7-0.7,0.7-1.5,1.5-3
	c0.7-3.7,3-5.2,6-6.7c1.5-2.2,3-6,5.2-6.7c0.7-0.7,1.5-1.5,2.2-2.2c1.5,0,6.7,0.7,8.2-0.7c1.5-0.7,3.7-1.5,5.2-3
	c0.7-0.7,0.7-0.7,1.5-1.5c0.7,0.7,1.5,1.5,2.2,1.5c0,2.2-5.2,3-3.7,6c3,0.7,4.5,3.7,7.5,8.2c0,0.7,0,1.5,0,2.2c-2.2,3.7-3,3-6,5.2
	c-1.5,2.2-4.5,6-2.2,9c0.7,0.7,2.2,1.5,3,2.2c1.5,2.2,3.7,3.7,3.7,9c-0.7,1.5-0.7,3-1.5,4.5c-0.7,2.2-3.7,5.2-5.2,6.7
	c0,0.7,0,0.7,0,1.5c0.7,0.7,2.2,2.2,3,3c0.7,2.2,0.7,6,0,9c-2.2,2.2-4.5,5.2-7.5,7.5c-3,0-6,0.7-9,1.5c-3.7,3-6,3-9,3.7
	c-1.5,0.7-2.2,1.5-3.7,2.2C394.4,438.3,392.9,439,392.2,439L392.2,439z"/>
<path class="st3" d="M452,437.5c-0.7-0.8-2.2-1.5-3-2.2c-2.2-1.5-3.7-3-5.2-4.5c0-1.5,0.7-2.2,0.7-3c1.5-0.8,3-2.2,3.7-3.7
	c0-1.5,0-3,0-3.7c0-2.2-2.2-9.7-3-10.5c0-2.2-0.7-3,0.7-4.5c1.5-3,3.7-4.5,6-6.7c2.2-4.5,6-5.2,10.5-8.2c2.2-2.2,3.7-4.5,6-6
	c0.7,1.5,0.7,3,1.5,4.5c0.7,0,2.2,0,3,0c0.7-0.7,0.7-2.2,1.5-3c1.5,0,3.7,0.7,6-0.7c0,0.7,0.7,2.2,1.5,3c0,2.2,0,3.7,0,6
	c1.5,1.5,5.2,3.7,9.7,3.7c1.5-3,3-5.2,4.5-8.2c0.7-0.7,1.5-1.5,2.2-2.2c1.5-0.7,3.7-1.5,6.7-1.5c1.5,0.7,3.7,1.5,5.2,2.2
	c3.7,0,8.2,0,12,0c0,0,0.7,0,0.7,0.7c0,0,0,0,0,0.7c-0.7,1.5-0.7,2.2-0.7,3.7c-1.5,0-3,0.7-4.5,0.7c-3.7,2.2-10.5,5.2-12,9.7
	c-0.7,0.7-1.5,0.7-2.2,1.5c-1.5,1.5-3,1.5-4.5,2.2l-0.7,0.7c0,1.5,0,3,0,4.5c-1.5,1.5-3.7,3.7-4.5,6c-0.7,1.5,0,3.7-1.5,5.2
	c-3.7,0-4.5,2.2-6,3.7c-0.7,2.2-1.5,5.2-3.7,6.7v-0.8c-0.7,0-0.7-0.7-1.5-0.7c-0.7,0-1.5,0-1.5,0c-1.5,0.7-2.2,2.2-3.7,3
	c-1.5,0.7-4.5,0-6,0c0-0.7,0-1.5,0-1.5c-2.2-2.2-3.7-3.7-5.2-5.2c-1.5,0-2.2,0-3,0c-0.7,1.5-0.7,3-1.5,5.2c-1.5,0-3,0.7-3,1.5
	C455,436,453.5,437.5,452,437.5L452,437.5z"/>
<path class="st1" d="M333.1,425.6c-0.7-1.5-0.7-3-1.5-3.7c0-4.5-0.7-8.2-1.5-11.2c-2.2-3.7-6-6-7.5-8.2c-0.7-0.7-2.2-0.7-3-1.5
	c0.7-1.5,6-2.2,8.2-2.2c2.2-2.2,1.5-2.2,6-3c0.7-0.7,1.5-1.5,2.2-2.2c-0.7-2.2-0.7-3.7-0.7-5.2c1.5-2.2,3-4.5,3.7-6.7
	c0.7-1.5,0.7-3,0.7-3.7c2.2,0,4.5-3,7.5-0.7c0,0.7,0,1.5,0.7,2.2c-0.7,1.5-1.5,2.2-2.2,4.5c-2.2,3-2.2,3.7-2.2,9
	c2.2,0,3.7,0,5.2,0.7c0.7,0.7,2.2,3,5.2,3.7c0,1.5-0.7,2.2-2.2,3.7c-0.7,1.5-2.2,2.2-3.7,3.7c-5.2,0-2.2,0.7-3.7,5.2
	c-2.2,3-2.2,2.2-2.2,7.5c0.7,0.7,0.7,1.5,1.5,1.5c1.5,0.7,4.5,1.5,3.7,4.5c0,0.7-0.7,1.5-0.7,2.2c-1.5,0-3,0.7-3.7,1.5
	C337.6,430.8,339.1,430.8,333.1,425.6L333.1,425.6z"/>
<path class="st5" d="M446,416.6c-0.7-0.7-1.5-1.5-1.5-2.2c-3,0-6,0-9,0.7c-3-0.7-6-1.5-8.2-2.2c-2.2-1.5-3.7-3.7-3.7-3.7
	c1.5-2.2,3-3.7,4.5-5.2c0.7-1.5,0.7-3,1.5-4.5c1.5-8.2-3-11.2-6.7-15c0-5.2,3-6.7,6.7-9c0.7-1.5,1.5-2.2,2.2-3c0-1.5,0-3,0-3.7
	c-2.2-3.7-4.5-6-6.7-8.2h-0.7l0,0c0.7-0.7,1.5-1.5,2.2-2.2c0.7-0.7,1.5-2.2,1.5-3c-1.5-0.7-2.2-1.5-3-2.2c0-1.5,0-2.2,0-3
	c-1.5-1.5-2.2-2.2-3-3c0-2.2,0-3.7,0-6c0.7-0.7,0.7-1.5,1.5-2.2c0,0,2.2,0,2.2-0.7c0-2.2,0-3.7,0-6c1.5-0.7,1.5-1.5,3-1.5
	c0.7,0.7,3,1.5,3,3.7c-3,2.2-0.7,4.5,2.2,6.7c0.7,0,0.7,0,1.5,0c0.7,0,0.7-0.7,1.5-0.7c0-3,3-3,5.2-4.5c2.2-3.7,7.5-1.5,11.2-3.7
	c-0.7-2.2-0.7-4.5-0.7-6.7c1.5-1.5,2.2-2.2,5.2-3.7c3-3,3.7,0,5.2,3.7c1.5,3,3,5.2,4.5,8.2c0.7,2.2,0,3,3.7,4.5c1.5,0,4.5,0,7.5,0
	c-0.7,1.5-3,1.5-3.7,3.7c0,1.5-0.7,3,3,5.2c2.2,0,5.2,3,8.2,5.2c0.7,0,1.5,0.7,2.2,1.5c-2.2,2.2-3.7,5.2-6,8.2c0,2.2-4.5,5.2-6.7,6
	c-1.5,0-3,0-4.5,0.7c-3-2.2-4.5-4.5-6-6c-0.7-2.2,0-5.2-0.7-6.7c-1.5-0.7-3-0.7-4.5-1.5c0-3,0.7-6.7,0.7-9c-3,0-6,0-6.7-2.2
	c-4.5,0-4.5,0-5.2,3.7c-2.2,1.5-3.7,3-5.2,3.7c0,1.5,0,2.2,0.7,4.5c0,3.7-3.7,3-5.2,4.5c0,1.5-0.7,4.5,0,6c3,0,5.2,0,8.2,0
	c1.5-1.5,2.2-3,6-2.2c0.7,0.7,1.5,0.7,2.2,2.2c0.7,0.7,0.7,1.5,1.5,2.2c0,1.5,0.7,3.7,0.7,5.2c1.5,2.2,3.7,4.5,7.5,6
	c1.5,1.5,2.2,2.2,3,3.7c-2.2,0-3,2.2-4.5,3c-0.7,3-5.2,5.2-7.5,6c-2.2,1.5-3.7,3.7-5.2,6c-6,6-9.7,7.5-6,17.2
	C445.3,415.1,446,415.8,446,416.6L446,416.6z"/>
<path class="st4" d="M162.7,410.6c-0.7-0.7-1.5-0.7-2.2-0.7c-0.7-1.5-1.5-2.2-3-3c-3,0-3-0.7-4.5,2.2c-0.7-0.7-0.7-0.7-1.5-0.7
	c-0.7,0-2.2,0-3,0.7c-1.5-2.2-0.7-3.7-1.5-4.5c-0.7-0.7-1.5-0.7-2.2-1.5c-3.7-3.7-6.7-6-11.2-3.7c-3.7,0-6.7,0.7-9.7,0
	c-1.5,0-3-0.7-4.5-1.5c-1.5,0-3,0-3.7,0c-3,2.2-6.7,3.7-8.2,6.7c-1.5,0-3,0-4.5,0c-1.5-0.7-2.2-1.5-3.7-2.2c-3,0-3.7,0-4.5,0.7
	c-1.5,0.7-2.2,0.7-3.7,1.5c-3,0-4.5,0.7-6.7,1.5c-3.7,0-9-2.2-9.7-3.7c0-4.5-0.7-3.7-3-5.2c-4.5,0-3.7,0-6,3c-3,1.5-6,0.7-8.2,2.2
	h-0.7c0-0.7-0.7-0.7-0.7-1.5c-3-3.7-7.5-5.2-11.2-5.2c-4.5,3-6,4.5-7.5,9c-2.2,2.2-3,3.7-6,3.7c-1.5,0-2.2-0.7-3.7-0.7
	c-0.7-0.7-1.5-1.5-2.2-1.5c-0.7-3.7-4.5-4.5-6-5.2c-0.7-0.7-0.7-1.5-1.5-2.2c0-1.5,0-3,0-5.2c0.7-0.7,0-3,0-3
	c-1.5-4.5-5.2-3.7-8.2-4.5c-0.7-0.7-0.7-1.5-1.5-2.2c-1.5-1.5-2.2-3-3-5.2c-1.5,0-3-0.7-4.5-0.7c-1.5-3,0.7-6,1.5-8.2
	c0-4.5-3-6.7-5.2-9c-2.2-0.7-3.7-1.5-6-3c0,0-0.7,0-0.7-0.7c0-4.5,0-3.7,4.5-5.2c0.7-0.7,2.2-2.2,2.2-3c0-3.7,0-8.2,0-12
	c-0.7-6-5.2-4.5-8.2-4.5c-0.7,0-0.7,0.7-1.5,0.7c0,0.7,0,0.7,0,0.7c-0.7-3-0.7-3.7-0.7-5.2c0.7-0.7,2.2-0.7,3-1.5c0-0.7,0-2.2,0-3
	c-3-4.5-3.7-1.5,1.5-5.2c0.7-1.5,2.2-3,3-4.5c2.2-0.7,3.7-1.5,5.2-2.2c6,0,9,0,13.5-2.2c0.7,0,1.5,0,2.2,0c0,1.5,0.7,5.2,4.5,6
	c1.5,0,3.7,0,5.2-0.7c1.5-2.2,2.2-3.7,3.7-5.2c2.2,0,3.7,0.7,6.7,0c0.7-1.5,1.5-1.5,3-3c0.7,0,1.5,0,2.2,0c2.2,0.7,3.7,1.5,6.7,1.5
	c3-1.5,8.2-0.7,12.7-2.2c1.5-0.7,3-2.2,4.5-3c0.7-1.5,1.5-3,1.5-3.7c3.7-1.5,4.5-6,5.2-9c1.5-0.7,3.7-1.5,4.5-2.2
	c0.7-1.5,1.5-3,1.5-4.5c0-2.2,0.7-4.5,0.7-6.7c-0.7-1.5-0.7-2.2-0.7-3c0-4.5,1.5-8.2,0-10.5c-0.7,0-0.7-0.7-0.7-0.7
	c4.5,0,8.2,0,12.7,0.7c3,1.5,6,0,9.7,3c0.7,0,1.5,0,2.2,0c0.7-0.7,0.7-1.5,1.5-1.5c0-0.7,0-1.5,0-2.2c-0.7-2.2-0.7-4.5,0-6
	c2.2-2.2,3.7-3.7,5.2-5.2c0.7-4.5,2.2-5.2,4.5-8.2c0.7-2.2,0-3,3-3c2.2,1.5,5.2,3,7.5,5.2c1.5,0,4.5,0,6.7,2.2c3,0,9,0,10.5-3.7
	c0-3-0.7-6-0.7-9c3-6,6.7-6,13.5-6.7c2.2-0.7,3-3,3.7-4.5c0-0.7,0.7-1.5,1.5-1.5c1.5-0.7,3.7-0.7,5.2-0.7c0.7,0.7,1.5,5.2,2.2,7.5
	c1.5,3,3.7,5.2,5.2,8.2c1.5,0.7,4.5,1.5,7.5,2.2c1.5,0.7,2.2,2.2,3.7,3c0.7,0.7,1.5,2.2,2.2,3c0,2.2,0,4.5,0.7,6.7
	c0.7,1.5,1.5,3,2.2,4.5c0,2.2,1.5,7.5-0.7,10.5c-5.2,3-4.5,1.5-4.5,7.5c0,0.7,0,3,1.5,5.2c1.5,0.7,3,2.2,4.5,3c1.5,0,3.7,0.7,6,1.5
	c3.7,3,8.2,3,14.2,3c1.5,0.7,5.2,3.7,7.5,6c1.5,2.2,3.7,3.7,5.2,5.2c2.2,0,4.5,0.7,6,3c0.7,2.2,1.5,6,3,9c0.7,0.7,2.2,0.7,3,3
	c0,1.5-0.7,2.2-0.7,3.7c0.7,0.7,0.7,1.5,1.5,3c-3,1.5-3,1.5-3.7,5.2c0,1.5,0,3,0,4.5c0,1.5,0.7,3,0.7,4.5h-0.7c-3,0.7-6,0.7-9,0.7
	c-6.7,0.7-9.7,1.5-12,7.5c-1.5,2.2-3,3-3.7,6c-3,2.2-7.5,2.2-10.5,2.2c0,1.5-1.5,3.7-3,5.2c-0.7,2.2,0,4.5,1.5,8.2
	c0,1.5,0,2.2,0,3.7c-2.2,0-4.5,0.7-6.7,1.5c-2.2,0-3.7,1.5-5.2,2.2c-6,2.2-12,3-17.2,3c-2.2,0-2.2,0-3.7,0.7c0,2.2,0,2.2,2.2,4.5
	c-2.2,3,0,5.2,3,7.5c1.5,0.7,2.2,2.2,3,3.7c1.5,0.7,2.2,1.5,2.2,4.5c-0.7,0.7-1.5,0.7-1.5,1.5c-4.5,2.2-4.5,1.5-4.5,6.7
	c0.7,0.7,2.2,2.2,2.2,5.2C165,410.6,163.5,410.6,162.7,410.6L162.7,410.6z"/>
<path class="st4" d="M316.7,401.6c-1.5-1.5-3-3-4.5-4.5c-1.5-1.5-2.2-3-3-5.2c0-5.2,0.7-6.7,5.2-9.7c0.7-0.7,1.5-0.7,2.2-1.5
	c0.7-1.5,0.7-2.2,1.5-3c0-0.7,0-1.5,0-2.2c-2.2-4.5-4.5-3.7-8.2-2.2c-0.7,0.7-1.5,1.5-3,2.2c-0.7,0.7-2.2,1.5-3.7,2.2
	c-1.5-1.5-2.2-1.5-3-2.2c-9,0-9-0.7-9.7,8.2c-1.5,1.5-4.5-0.7-5.2-0.7c-1.5-2.2-3.7-4.5-4.5-5.2c-1.5-3.7-2.2-6-5.2-6.7
	c-1.5-1.5-3-3-4.5-5.2c-0.7,0-2.2,0-3,0c0-3.7,3.7-3.7,5.2-6.7c0.7-1.5,1.5-2.2,2.2-3.7c0-2.2-0.7-3-1.5-3.7
	c-5.2,0-11.2,0.7-15.7,2.2c-1.5,1.5-1.5,1.5-3,1.5c0-2.2,0-3.7,0-6c-0.7-0.7-1.5-1.5-2.2-2.2c-1.5-1.5-3-3-4.5-3.7
	c0-2.2,0.7-3,1.5-5.2c0-3,0-4.5,0-6.7c-1.5-0.7-2.2-2.2-3-3c0-1.5,0-3,0-4.5c4.5,1.5,8.2,2.2,12.7,3c6.7,0,14.2,0,21.7,0
	c1.5,0.7,6,1.5,8.2,3c2.2,1.5,4.5,3.7,7.5,5.2c0,0.7,0.7,0.7,1.5,1.5c2.2,0,4.5,0,6.7,0.7c0.7,0.7,1.5,1.5,3,2.2
	c2.2,0.7,5.2,1.5,8.2,2.2c2.2,0.7,4.5,6,9,3c1.5-2.2,3.7-3,6.7-3.7c2.2-2.2,3.7-3,7.5-3.7c0-1.5,3-1.5,4.5-2.2
	c2.2-0.7,4.5-3,6.7-3.7c2.2-0.7,4.5-0.7,7.5-0.7c3,0.7,12,3,14.9,0c6-0.7,9.7-6,13.5-10.5c1.5-1.5,3-2.2,4.5-3.7
	c0.7-0.7,2.2-2.2,3.7-3c0.7-0.7,2.2-1.5,3.7-2.2c0-1.5,0-2.2,0-3.7c-1.5-1.5-3-2.2-4.5-3.7c0-0.7-0.7-2.2-0.7-3
	c0.7-4.5,0-7.5,4.5-9.7c0-1.5,3,0.7,6,3.7c0.7,0,2.2,0,3,0.7c1.5,0,2.2,0,3.7,0c3.7-1.5,7.5-6.7,10.5-10.5c2.2-2.2,3.7-0.7,7.5-0.7
	c0.7-1.5,2.2-1.5,4.5-2.2c0.7-1.5,2.2-2.2,3-3c1.5,0,2.2-4.5,2.2-4.5c2.2-6,3.7-3.7,9-6c2.2-2.2,3.7-3.7,6.7-5.2
	c2.2-1.5,9.7-0.7,14.2,0c0.7-0.7,1.5-0.7,2.2-0.7c2.2-3,0.7-6.7-0.7-9c-0.7-0.7-1.5-2.2-3-3c-1.5-1.5-3.7-2.2-6-3
	c0-2.2-3-4.5-3.7-5.2c-0.7,0-2.2,0-3.7,0c-0.7,0.7-1.5,1.5-1.5,2.2c-1.5,0-3,0-4.5,0c0,1.5,0,3-0.7,4.5c-2.2,1.5-6-1.5-7.5-1.5
	c-0.7,0-2.2,0-3,0c-2.2,0.7-3.7,1.5-5.2,3c-3.7,0-4.5-3-4.5-5.2c1.5-0.7,2.2-2.2,3.7-3c0-3.7,0-5.2,0-6.7c0.7-2.2,1.5-3.7,2.2-5.2
	c0-3.7,0-6,1.5-8.2c0.7,0,2.2,0,3,0c3,0,9,1.5,12.7-1.5c2.2-2.2,5.2-3.7,7.5-6.7c0-3.7-0.7-13.5,3-15c2.2-3.7,1.5-7.5,4.5-10.5
	c-0.7-1.5-0.7-3-0.7-5.2V182c-1.5-1.5-2.2-2.2-3-3c-0.7-0.7-1.5-1.5-2.2-1.5c0-3.7,1.5-5.2,4.5-6.7c3,0,4.5-2.2,7.5-2.2
	c0,0.7,0.7,1.5,1.5,1.5c0,1.5-0.7,2.2-0.7,3.7c-1.5,1.5-2.2,1.5-2.2,4.5c0.7,0.7,1.5,1.5,3,2.2c0.7,1.5,1.5,2.2,4.5,2.2
	c0-1.5,0.7-3,0.7-4.5c1.5,0,3,0,5.2,1.5c0.7,0.7,0.7,0.7,1.5,1.5c0,3,0.7,6.7,3,9c0.7,0.7,0.7,0.7,1.5,1.5c1.5-0.7,2.2-0.7,3.7-0.7
	c3.7-1.5,7.5-0.7,10.5-3.7c2.2-5.2,6-6,9-0.7c0.7,2.2,1.5,4.5,3,6.7c0,2.2-2.2,9.7-3.7,12c0,0.7,0,2.2,0,3c0.7,2.2,2.2,3.7,3,6
	c0,2.2-3.7,7.5,0.7,10.5c0.7,1.5,0,4.5,0,7.5c-0.7,0-1.5,0-3,0c-1.5-1.5-0.7-3-0.7-4.5c0-1.5,0-1.5-1.5-2.2c-5.2,0-1.5,2.2-3.7,5.2
	c-2.2,2.2-3.7,4.5-4.5,8.2c-0.7,1.5-3,3.7-4.5,5.2c0,1.5-0.7,3-0.7,4.5c1.5,0.7,1.5,1.5,3,3.7c1.5,0.7,2.2,1.5,3.7,3
	c1.5-0.7,2.2-0.7,3.7-0.7c0-0.7,0.7-2.2,1.5-3c0,0.7,1.5,2.2,1.5,4.5c-1.5,0-3,0.7-4.5,1.5c0,0.7-0.7,3,1.5,4.5
	c-0.7,2.2-3,4.5-5.2,6c-0.7,0-0.7,0-1.5,0c-1.5-1.5-3.7-2.2-5.2-3.7c-0.7,0-1.5,0-2.2,0c-0.7,0.7-1.5,2.2-1.5,3c0,0.7,0,2.2,0,3
	c1.5,1.5,5.2,3,7.5,6.7c0,1.5,0,3,0,4.5c1.5,2.2,3,5.2,3.7,8.2c0,0.7,0.7,1.5,1.5,1.5c0,0,0.7,0,1.5,0c0.7-0.7,1.5-2.2,1.5-3
	c1.5-1.5,2.2-2.2,3.7-3c0.7,1.5,2.2,3.7,3.7,7.5c0.7,2.2,0.7,5.2,4.5,6.7c0,0.7,0.7,0.7,0.7,1.5c-0.7,1.5-0.7,4.5-0.7,6.7
	c0,0.7-0.7,1.5-1.5,1.5c-2.2,0-2.2-0.7-3-1.5c-6.7,0-7.5,0.7-9.7,6c-0.7,0-0.7,0-1.5,0.7c0,1.5-6,5.2-6.7,6c-0.7,1.5-4.5,3.7-6,4.5
	c-0.7,0.7-1.5,1.5-1.5,1.5c-0.7,0-1.5,0.7-2.2,0.7c-0.7-0.7-1.5-1.5-2.2-2.2c-1.5-4.5-2.2-4.5-5.2-4.5c-1.5,3-2.2,7.5,1.5,10.5
	c0,1.5,0,3,0,5.2c-4.5,0-8.2,0.7-10.5-0.7c-0.7-4.5-2.2-5.2-3.7-7.5c-0.7-2.2-2.2-4.5-3-7.5c-3-2.2-2.2-1.5-4.5-1.5
	c-2.2,1.5-4.5,3-6.7,4.5c-0.7,1.5-0.7,4.5,0,7.5c-2.2,0.7-5.2,0.7-7.5,0.7c-3,1.5-5.2,3-7.5,4.5c-0.7,1.5-0.7,3-2.2,3
	c-2.2-1.5-3-2.2-3-3c0.7-0.7,0.7-0.7,1.5-1.5c0-3.7-3-6-5.2-6c-3.7,1.5-3.7,3.7-3,8.2c-0.7,0-1.5,0-2.2,0.7c-0.7,0-0.7,0.7-0.7,1.5
	c-0.7,0-0.7,0-1.5,0.7c0,2.2,0,4.5,0,6.7c0.7,0.7,1.5,2.2,2.2,3c0,0.7,0,1.5,0.7,2.2c-0.7,0.7-1.5,1.5-1.5,2.2
	c-3.7,3-7.5,3.7-11.2,3c-3,0-3.7,1.5-5.2,2.2c-0.7,0.7-1.5,1.5-2.2,2.2c-1.5,3-4.5,6.7-7.5,9.7c-1.5-0.7-2.2-1.5-3-2.2
	c-1.5,0-3,0-3.7,0c0,1.5-0.7,3-1.5,3c-1.5-2.2-3-1.5-4.5-1.5c-0.7,1.5-1.5,3.7-3,4.5c-3.7,1.5-5.2,7.5-9,9.7
	c-1.5,2.2-0.7,3.7-0.7,6.7c0,1.5-0.7,4.5-0.7,6c-0.7,0-0.7,0-0.7,0c-5.2,0-9.7-0.7-13.5-1.5c-1.5-0.7-3-1.5-3.7-2.2
	c-0.7-0.7-1.5-1.5-2.2-2.2c-1.5,0-3-0.7-4.5-0.7c0-1.5,0-3,0-3.7c1.5-3,3.7-6,3.7-9.7c-0.7-3.7-3.7-3-5.2-3
	c-0.7,0.7-1.5,0.7-2.2,1.5c-4.5,0-2.2,0-3,4.5c-1.5,0.7-1.5,1.5-1.5,2.2c-0.7,1.5-1.5,3-2.2,4.5c0,1.5,0,3.7,0,5.2
	c-0.7,0.7-1.5,1.5-1.5,2.2c-3.7,0-3.7,0.7-5.2,2.2c-3,0-5.2,0.7-7.5,1.5C318.9,399.3,318.2,400.8,316.7,401.6L316.7,401.6z"/>
<path class="st3" d="M464.7,377.6c-2.2-1.5-4.5-3.7-4.5-3.7c-2.2-3-1.5-6-2.2-7.5c0,0,0-0.7-0.7-1.5c-3.7-3-4.5-3.7-9-2.2
	c-0.7,0.7-0.7,0.7-1.5,1.5c-2.2,0-4.5,0-6,0c0-2.2-0.7-3.7,2.2-4.5c0.7-0.7,1.5-1.5,2.2-2.2c1.5-3-0.7-4.5-0.7-6
	c2.2-0.7,4.5-2.2,6-3.7c0.7-2.2,0.7-3,2.2-3c0.7,0.7,1.5,1.5,2.2,2.2c1.5,0,3,0,4.5,0c-0.7,1.5-0.7,6.7,0.7,9
	c0.7,0.7,1.5,0.7,2.2,0.7c0,0,0.7,0.7,1.5,0.7c0,3.7-1.5,5.2,3,8.2c0.7,1.5,1.5,2.2,2.2,3.7c-3,1.5-3,0.7-4.5,3
	C464.7,373.9,464.7,376.1,464.7,377.6L464.7,377.6z"/>
<path class="st2" d="M506.5,369.4c-0.7,0-0.7,0-0.7,0c1.5-3,2.2-3,3.7-4.5c0-0.7,0.7-1.5,1.5-2.2c0-0.7,0-1.5,0-2.2
	c-1.5,0-2.2-0.7-3-1.5c-0.7-4.5,1.5-5.2,3.7-8.2c1.5-2.2,0.7-5.2,0.7-7.5c-1.5-1.5-3-3.7-4.5-5.2c-0.7,0-1.5,0-2.2,0
	c-1.5,0-3,0.7-4.5,0.7c-2.2,2.2-3.7,4.5-6,6.7c-1.5,2.2-3,5.2-5.2,7.5c-3-3-6.7-4.5-9-6.7c-2.2,0-3.7-1.5-4.5-2.2c0-3,0-3,2.2-3.7
	c0.7-0.7,1.5-2.2,3-3c0-2.2-0.7-4.5-0.7-6.7l0,0c-0.7-0.7-0.7-0.7-0.7-1.5c-0.7-0.7-0.7-1.5-1.5-2.2c0-2.2,0-3.7,1.5-4.5
	c0.7,0,1.5,1.5,2.2,3.7c2.2,1.5,2.2,3,6.7,2.2c0.7-0.7,1.5-1.5,2.2-2.2c3.7-2.2,8.2-6.7,12-9.7c1.5-1.5,3-3.7,3.7-5.2
	c3-0.7,4.5-2.2,8.2,0c0.7,0,1.5,0,3,0c0-0.7,0.7-1.5,1.5-2.2c0-2.2,0-3.7,0-6c0-0.7,0.7-1.5,0.7-2.2c1.5,0,3.7,1.5,5.2,3.7
	c1.5,1.5,1.5,2.2,4.5,2.2c0.7-0.7,0.7-2.2,0.7-2.2c0.7-0.7,0.7-1.5,1.5-1.5l0.7,0.7c0,1.5,0.7,3,0.7,5.2c1.5,1.5,3.7,4.5,6.7,7.5
	c0,2.2,0,4.5,0,6.7c0.7,0.7,1.5,1.5,1.5,2.2c1.5,0.7,3,1.5,4.5,3c0.7,0.7,2.2,1.5,3,2.2c0,0.7-7.5,6-8.2,6.7
	c-0.7,0.7-1.5,1.5-2.2,2.2c-1.5,1.5-3,3-3.7,4.5c-0.7,1.5-0.7,3-1.5,4.5c-1.5,0.7-2.2,1.5-3.7,1.5c-6.7,1.5-11.2,4.5-14.9,10.5
	c-0.7,0-0.7,0.7-0.7,1.5c-0.7,2.2-1.5,4.5-2.2,6.7C510.3,369.4,508,369.4,506.5,369.4L506.5,369.4z"/>
<path class="st5" d="M549.9,328.9c-1.5-2.2-5.2-4.5-6.7-5.2c0-0.7-0.7-0.7-0.7-1.5c0-3,0.7-4.5-0.7-6.7c-2.2-2.2-2.2-2.2-3-3.7
	c-0.7-1.5-2.2-2.2-3-3.7h-0.7c0-1.5,0-3.7,0-5.2c-1.5-1.5-2.2-1.5-3-1.5c-1.5,1.5-1.5,2.2-2.2,4.5c0-0.7-0.7-0.7-0.7-0.7
	c-2.2-1.5-4.5-4.5-6-5.2c-6.7-0.7-6.7-3-7.5-7.5c-1.5-3-3-5.2-3.7-6.7c0-0.7-0.7-0.7-0.7-1.5h-0.7c-1.5,0.7-3,2.2-3.7,3
	c-0.7,0.7-1.5,2.2-2.2,3.7c-3-2.2-2.2-5.2-3-6.7c-0.7-0.7-1.5-2.2-1.5-3c0-1.5,0-3,0-4.5c-2.2-3-4.5-4.5-6-6c-3,0-0.7-3.7-0.7-4.5
	h0.7c2.2,1.5,4.5,3.7,8.2,3.7c1.5-1.5,3-3.7,4.5-4.5c2.2-3,3.7-4.5,6-0.7c0.7,3.7,4.5,6.7,9,8.2c2.2-0.7,5.2-1.5,7.5-2.2
	c1.5-2.2,3.7-3.7,6-5.2c0,0,0,0,0.7,0.7c0,2.2-1.5,6.7,3.7,6.7c0.7,0,1.5-0.7,2.2-0.7c2.2-2.2,3.7,0.7,6,3c0.7,0,2.2,0,3,0.7
	c0.7,1.5,3,5.2,6,7.5c0,0,0.7,0,1.5,0c1.5-2.2,2.2-3.7,2.2-6c0.7,0,1.5,0.7,2.2,0.7c0.7,2.2,2.2,4.5,5.2,6.7l0,0
	c0.7,1.5,2.2,2.2,3,3c1.5,0,3,0,3.7,0c0.7-0.7,1.5-1.5,2.2-2.2l1.5-0.7c0-0.7,0-0.7,0-1.5c-0.7,0-0.7,0-0.7,0c0-1.5,3-2.2,4.5-3
	c0.7,0,1.5-0.7,1.5-0.7c0.7,0,0.7-0.7,0.7-0.7c1.5,0,0.7,2.2,3.7,3.7c1.5,0.7,3,2.2,4.5,3c1.5,0,3,0.7,3.7,0.7
	c0,1.5,0.7,5.2-0.7,6.7c-0.7,0.7-0.7,2.2-1.5,3c0,1.5-0.7,3-0.7,4.5c-0.7,0-0.7,0-1.5,0c0-2.2-3-0.7-3-0.7H588c0-2.2,0-3.7,0-5.2
	c-2.2-3.7-4.5-2.2-6,0.7c-0.7,3-3,6-3.7,9c-0.7,0.7-0.7,1.5-1.5,2.2c-5.2,3.7-8.2-1.5-7.5,6.7c0.7,0.7,2.2,2.2,3,3
	c0,0.7-1.5,2.2-1.5,2.2c-3,0.7-8.2,0-9.7,0c-3-3-4.5-1.5-6,0.7c-1.5,2.2-2.2,5.2-3,7.5c-0.7,0.7-0.7,1.5-0.7,1.5
	C550.6,328.1,550.6,328.1,549.9,328.9L549.9,328.9z"/>
<path class="st2" d="M571.6,286.9c-1.5-1.5-3-3-5.2-5.2c-1.5-3.7-3-6-6.7-5.2c-0.7,1.5-1.5,3-2.2,5.2c-2.2,0-4.5-5.2-4.5-6
	c-0.7,0-1.5-0.7-1.5-1.5c-0.7,0-1.5,0-3-0.7c-2.2-3.7-3.7-3.7-6.7-3.7c0,0,0,0.7-0.7,0.7c-5.2,3-3.7-2.2-3.7-5.2
	c-1.5-1.5-2.2-1.5-3.7-1.5c-0.7,0.7-1.5,2.2-2.2,3c-0.7,0-0.7,0-1.5,0.7c-1.5,2.2-6.7,3-9,3.7c-4.5-2.2-6-3.7-6.7-7.5
	c-3-3.7-2.2-2.2-5.2-3c-0.7,0-0.7,0-0.7,0.7c-1.5-0.7-1.5-2.2-1.5-3c0.7-0.7,2.2,0,4.5-1.5c0-2.2-0.7-3.7-0.7-4.5
	c-0.7-0.7-0.7-1.5-1.5-1.5c-3,0-2.2,0-3.7,3c-2.2,0-3.7-2.2-5.2-3c-0.7-1.5-0.7-1.5-1.5-3c-0.7-0.7-0.7-2.2-0.7-3
	c3-1.5,3.7-3.7,5.2-6c0.7-4.5,3.7-6,5.2-9.7c0-0.7,0-1.5,0-2.2c1.5,0,1.5,0.7,1.5,1.5c0,1.5-0.7,3.7,2.2,5.2c0.7,0,3,0.7,4.5-0.7
	c0-3,0-7.5,0-9c-3.7-3.7-2.2-5.2-0.7-8.2c0-3-1.5-6.7-3-6.7c0-0.7,0-2.2,0-3c0.7-1.5,0.7-2.2,1.5-3.7c0-2.2,0.7-3.7,1.5-6
	c0-5.2-2.2-12.7-6-14.2c-3,0-4.5,0-6.7,1.5c-1.5,3.7-1.5,4.5-5.2,5.2c-3.7,0-6,0.7-8.2,1.5c-3-1.5-2.2-3.7-3-5.2
	c-0.7-3.7-1.5-5.2-3-6.7c-6.7-3-7.5-2.2-7.5,3.7c-2.2-1.5-3.7-3-5.2-4.5c0,0,0,0,0-0.7c0.7-0.7,1.5-1.5,2.2-2.2c0-1.5,0-3.7,0.7-4.5
	c-0.7-0.7-1.5-1.5-2.2-2.2c3-1.5,5.2-3,8.2-3.7c3-1.5,4.5-2.2,9-1.5c1.5,1.5,3.7,2.2,7.5,2.2c3.7-0.7,5.2-0.7,9.7,0.7
	c3,3.7,6.7,9,11.2,14.2c0.7,1.5,1.5,3.7,2.2,6c2.2,1.5,3.7,3,5.2,4.5c2.2,2.2,3,3,3,6.7c0.7,0.7,2.2,2.2,4.5,3.7c0,0,0,0.7,0.7,0.7
	c0,1.5,0,2.2,0.7,5.2c0.7,0.7,5.2,0.7,8.2,0c1.5,0,2.2-0.7,5.2,1.5c0.7,0,2.2,0,3,0c0.7-0.7,0.7-0.7,3-0.7c2.2,1.5,3.7,3,5.2,4.5
	c1.5,0,4.5-0.7,6,1.5c0.7,1.5,1.5,3,2.2,4.5c0.7,3,3.7,11.2,9.7,7.5c2.2,0,5.2-1.5,8.2-2.2c0.7-0.7,0.7-0.7,1.5-1.5
	c3-4.5,4.5-6,8.2-9c0.7-0.7,2.2-2.2,3-3c2.2-2.2,3.7-3.7,6-5.2c3,0,3.7,0,2.2,3.7c0,2.2,0,3.7,0,6c1.5,0.7,3.7,2.2,4.5,5.2
	c-0.7,1.5-0.7,3-0.7,5.2c-0.7,0.7-0.7,2.2-1.5,3c-1.5,1.5-0.7,4.5,0,7.5c-0.7,3-0.7,5.2-0.7,8.2c0,1.5-0.7,3.7-0.7,5.2
	c0,1.5,0,3.7,0,5.2c-0.7,0.7-1.5,1.5-2.2,2.2c-1.5,0-2.2,0-3,0c-3.7-0.7-4.5-0.7-6.7-0.7c-1.5,0.7-1.5,2.2-2.2,3
	c-3.7,1.5-4.5,2.2-3.7,6c0.7,1.5,1.5,2.2,2.2,3.7c0,3,2.2,6.7,4.5,11.2c0,1.5,0.7,3,0.7,5.2c-4.5,0-6.7-3.7-8.2-4.5c0-3-3-3.7-3.7-3
	c0,0.7,0,0.7,0,1.5c-3,0-5.2,1.5-7.5,3c0,0.7,0,1.5,0,2.2c0,0,0,0,0.7,0c-1.5,0.7-2.2,1.5-3,2.2
	C573.1,286.2,572.3,286.9,571.6,286.9L571.6,286.9z"/>
<path class="st5" d="M355.6,438.3c-3.7-3-6.7-3-10.5-3c-0.7,0.7-1.5,0.7-2.2,0.7c-3,4.5-1.5,9,0.7,14.2c0,2.2,0.7,4.5,0,7.5
	c-2.2,0-4.5,0-6.7,0c-1.5,0.8-0.7,0.8-1.5,3c0.7,0.7,1.5,1.5,3,2.2c0,0.7,0,0.7,0,1.5c-0.7,1.5-1.5,3-1.5,3.7c-3,0-3.7,1.5-6,2.2
	c-2.2,0-5.2,0-7.5,0.8c0-0.8,0-0.8-0.7-0.8c-0.7-1.5-2.2-2.2-3-2.2c0-0.8,0-1.5-0.7-2.2c-0.7-2.2-1.5-3.7-2.2-6
	c-1.5-0.7-2.2-1.5-3.7-2.2c-1.5-2.2-3.7-3-5.2-3.7c-0.7-0.7-1.5-0.7-2.2-1.5c-3-6.7-4.5-6-9.7-3c-1.5,2.2-1.5,1.5-1.5,4.5
	c0.7,1.5,1.5,2.2,1.5,4.5c-1.5,0.7-1.5,1.5-3.7,2.2c0,0-0.7,0-1.5,0c-4.5-2.2-8.2-5.2-9.7-7.5c-3-1.5-3-6.7-3-7.5c1.5,0,3.7,0,5.2,0
	c1.5,0.8,3,2.2,4.5,3c1.5,0,3.7,0.8,6-1.5c0-0.7,0-1.5,0-2.2c-2.2-1.5-3.7-3.7-4.5-4.5c3-1.5,7.5-6.7,8.2-9.7c1.5-0.8,3-1.5,3.7-2.2
	c0.7,0,1.5-1.5,2.2-2.2c0-1.5,0-3,0-4.5c-3-3-1.5-7.5-2.2-7.5c-0.7-2.2-2.2-4.5-3-6c0-1.5,0-3-0.7-4.5c-0.7-2.2-2.2-6-3-6.7
	c-2.2,0-3.7,0-6,0c-3.7-0.7-7.5-4.5-9.7-5.2c-1.5-2.2-3.7-5.2-6-7.5c-1.5,0-2.2,0.7-3.7,0.7c-0.7,0-1.5,0-3,0
	c-1.5-1.5-3.7-3-5.2-4.5c-2.2-0.7-3.7-1.5-5.2-2.2c-3.7-0.7-6-1.5-8.2-1.5c-3.7-3.7-5.2-2.2-9-3c-0.7,0.7-1.5,1.5-2.2,1.5
	c0,2.2,1.5,3.7,0.7,6.7c-3.7,3.7-10.5-3-12-4.5c-1.5-1.5-3-3-5.2-3.7c-3-2.2-6-3.7-9-4.5c-5.2,0-10.5,0-14.9-1.5h-0.7
	c0-2.2-1.5-6-1.5-6c-0.7-3-2.2-5.2,0-6c0.7-1.5,1.5-3,2.2-3.7c3,0,7.5,0,10.5-3c0-1.5,0.7-2.2,0.7-3c1.5-1.5,2.2-2.2,3-3
	c2.2-6.7,4.5-6,12-6.7c0.7,0,7.5,0,9.7-1.5c0-2.2-0.7-4.5-0.7-6c0-3.7,0-9.7,4.5-7.5c3.7,0.7,7.5,1.5,11.2,1.5
	c-0.7,1.5-0.7,3.7-0.7,5.2c1.5,2.2,2.2,3,3.7,6c0,1.5,0,2.2,0,3c-0.7,2.2-2.2,3.7-1.5,6.7c1.5,1.5,3.7,3,5.2,5.2
	c0,0,0.7,0.7,0.7,1.5c0,1.5,0,3,0,5.2c0.7,0,2.2,0,3.7,0c3.7-3,9.7-3.7,15.7-3.7c0,0.7,0.7,1.5,0.7,2.2c-0.7,1.5-1.5,3-1.5,3.7
	c-3,3.7-6,3-5.2,8.2c0.7,0,2.2,0.7,3.7,1.5c1.5,2.2,2.2,3,6,5.2c0.7,1.5,1.5,5.2,3.7,6c1.5,1.5,3,3,4.5,4.5c0.7,0.7,5.2,3,6.7,0
	c0-5.2-0.7-6,3.7-6.7c2.2,0,3.7-0.7,6,1.5c0.7,0,1.5,0,2.2,0c2.2-0.7,4.5-3,6.7-3.7c0.7-0.7,2.2-0.7,4.5-1.5c0.7,1.5,1.5,2.2,1.5,3
	c0,2.2-3.7,5.2-6,6.7c-2.2,3-3,5.2-3,9.7c1.5,2.2,2.2,3.7,3,6c1.5,1.5,3.7,4.5,7.5,4.5c0-0.7,0-0.7,0-0.7c0.7,0,1.5,0,1.5,0
	c2.2,0.7,7.5,6,9.7,9c0,3,0.7,6.7,1.5,10.5c0,1.5,0,3,0.7,3.7c2.2,3,2.2,2.2,6.7,6c0,0,3-1.5,5.2-2.2c0-1.5,0.7-2.2,3.7-3
	c3-3,1.5-6-0.7-8.2c-3.7-0.7-3.7-1.5-3-4.5c0.7-1.5,1.5-2.2,2.2-3.7c0-0.7,0-2.2,0-3.7c0.7-0.7,2.2,0,3-0.7c1.5-0.7,2.2-1.5,3-2.2
	c0,0.7,0.7,2.2-0.7,3.7c0,0.7,0,1.5,0,3c1.5,1.5,5.2,2.2,8.2,3c2.2,1.5,4.5,3,6.7,4.5c0.7,0,1.5,0,2.2,0c-0.7,0.7-1.5,2.2-2.2,3.7
	c0.7,2.2,0.7,4.5,0.7,7.5c0,0.7-0.7,2.2-0.7,3.7c-0.7,0-1.5,0-2.2-0.7c-3-0.7-5.2-0.7-6.7,1.5c0,1.5,0,3,0,5.2
	C356.3,438.3,356.3,438.3,355.6,438.3L355.6,438.3z"/>
</svg>
