<?xml version="1.0" encoding="utf-8"?>
<!-- Generator: Adobe Illustrator 19.0.1, SVG Export Plug-In . SVG Version: 6.00 Build 0)  -->
<!DOCTYPE svg PUBLIC "-//W3C//DTD SVG 1.1//EN" "http://www.w3.org/Graphics/SVG/1.1/DTD/svg11.dtd">
<svg version="1.1" id="图层_1" xmlns="http://www.w3.org/2000/svg" xmlns:xlink="http://www.w3.org/1999/xlink" x="0px" y="0px"
	 viewBox="0 0 640 540" style="enable-background:new 0 0 640 540;" xml:space="preserve">
<style type="text/css">
	.st0{fill:#C2C1C1;}
	.st1{fill:#FFE1EB;}
	.st2{fill:#FFE1D4;}
	.st3{fill:#D4ECE1;}
	.st4{fill:#D3EBFC;}
	.st5{fill:#FEFFE2;}
</style>
<path class="st0" d="M546.5,452.5c-1.5-2.2-3-3.7-3.7-6c-3.7-0.8-3.7-3-4.5-4.5c-0.7-1.5-1.5-2.2-1.5-3c0-3.7,0.7-7.5,0-10.5
	c0-5.2,0.7-5.2,3-8.2c0.7-2.2,0.7-3.7,1.5-5.2c0.7-2.2,1.5-3.7,2.2-6c3-3.7,4.5-5.2,8.2-8.2c1.5,0,3,0,5.2,0.7c0,0,0,0,0.7,0.7
	c0,1.5,1.5,3,0.7,6c-3,3.7-0.7,10.5-0.7,16.5c-0.7,0.7-1.5,2.2-1.5,3.7c-1.5,3.7-3.7,6.7-5.2,10.5c-0.7,3.7-0.7,7.5-1.5,12l-0.7,0.7
	C548,452.5,547.3,452.5,546.5,452.5L546.5,452.5z"/>
<path class="st0" d="M398.5,516.9c-4.5-2.2-8.2-2.2-9.7-5.2c-0.7-3-1.5-9,0-11.2c0.7-0.7,3-1.5,4.5-2.2c0-1.5,0-3,0.7-4.5
	s2.2,0,5.2-0.7c2.2-0.8,4.5-2.2,6-3c3.7-0.8,8.2-0.8,12-0.8c0.7,0,3,1.5,3.7,3.7c0,0.7,0,1.5,0,2.2c0,0.8-0.7,1.5-0.7,2.2
	c-2.2,3-3.7,5.2-5.2,8.2c0,1.5-0.7,3-2.2,3.7c-3.7,2.2-7.5,5.2-10.5,6.7C401.5,516.1,400,516.9,398.5,516.9L398.5,516.9z"/>
<path class="st0" d="M406.7,487.7c-3-3-2.2-4.5-3-6.7c-1.5-1.5-2.2-3-3.7-4.5c0-3-0.7-5.2,2.2-6.7c0,0,0,0,0-0.7c-3,0-3.7,1.5-6,3
	c-1.5,0-2.2,0-3.7,0c0-1.5-0.7-2.2-0.7-3.7c-3-0.8-2.2-1.5-3-2.2c-1.5,0-0.7,1.5-1.5,3.7c-0.7,0-0.7,0-1.5,0c-0.7-1.5-3-0.7-3.7,0
	c-5.2,0-9.7-1.5-13.5-1.5c-3-1.5-6-6-7.5-8.2c0-0.7,0-1.5,0-3c0.7-1.5,2.2-3,2.2-4.5c-1.5-0.8-2.2-1.5-3-1.5
	c-4.5-0.7-12-1.5-14.2-3.7c0-0.7,0-1.5-0.7-2.2c0,0,0,0-0.7,0c-3,0-5.2,2.2-6.7,4.5c-0.7,0.7-1.5,1.5-2.2,3c-1.5,0-3,0-4.5,0
	c-0.7,0.7-3,3-4.5,3.7c-0.7,0-1.5,0-3,0c0-0.7-0.7-1.5-1.5-2.2c-0.7-2.2-6,1.5-6,1.5c-1.5,0-2.2,0-3,0c-2.2-2.2-3.7-3-5.2-3
	c-1.5,1.5-3,3-3.7,4.5c-1.5,0-2.2,0-3.7,0c-1.5-1.5-2.2-2.2-3-2.2c-2.2,2.2-1.5,1.5-1.5,3.7c1.5,3,2.2,3,2.2,7.5
	c-0.7,2.2,0,3.7,0.7,6.7c0,0.7,0,1.5,0,2.2c-0.7,0.7-0.7,0.7-1.5,1.5c-0.7,0-1.5,0-2.2,0c-2.2-1.5-4.5-3-6.7-4.5c0-2.2,0-3.7,0-6
	c-0.7-0.7-1.5-0.7-2.2-1.5c-1.5,1.5-3.7,3.7-6,4.5c0,0,0,0-0.7,0c-0.7-0.7-2.2-0.7-3-1.5c-1.5-1.5-2.2-3-3-3.7
	c-0.7-0.7-1.5-2.2-2.2-3c-9-0.7-7.5-3.7-7.5-9.7c0-0.7,0.7-1.5,0.7-2.2c0-1.5,0-2.2,0-3c-1.5-0.7-3-0.7-4.5-1.5l-0.7-0.7
	c0-0.8,0-1.5,0-2.2c-0.7,0-0.7-3-0.7-3.7c-0.7-1.5-1.5-2.2-2.2-3.7c-0.7-3.7-1.5-3.7-3-3.7c-2.2,0.7-3.7,1.5-5.2,3
	c-3,0-3.7,0-4.5-1.5c0-3.7,0-7.5,0-12c3-6.7,6.7-9.7,12.7-13.5c1.5,0,1.5-6.7,1.5-6.7c1.5-3,0.7-5.2,1.5-8.2c0-1.5,0-2.2,0.7-3
	c0-1.5,0.7-3,0.7-3.7c-2.2-3.7-5.2-4.5-6.7-6.7c0-1.5,0-3,0-4.5l0,0c-1.5-3-3-4.5-4.5-6c-0.7,0-1.5,0-2.2,0
	c-0.7,0.7-1.5,1.5-2.2,2.2c0,1.5,0,5.2-1.5,6.7c-1.5,0-2.2,0-3,0c-3.7-1.5-5.2-2.2-5.2-5.2c-3-1.5-6-2.2-7.5-2.2
	c0-0.7-0.7-1.5-1.5-2.2c-0.7,0-0.7,0-1.5,0c-3,2.2-6,4.5-9,6c-4.5,0.8-4.5,2.2-6.7,5.2c-4.5,0-4.5,0.7-7.5,4.5
	c-2.2,1.5-4.5,1.5-6,2.2c0,0-0.7,0-0.7,0.8c-3.7-0.8-8.2-0.8-12-0.8c-3,0.8-6.7,0-8.2-1.5c0-0.7,0-1.5,0-2.2c0.7-2.2,1.5-3.7,2.2-6
	c-2.2-0.7-3.7-2.2-4.5-3c-0.7-1.5-0.7-2.2-1.5-3.7c-2.2,0-4.5,0-6-0.7c-0.7-0.8-1.5-1.5-2.2-3c-1.5,0-3-0.7-5.2-1.5
	c-3-2.2-6.7-3.7-9,0c-0.7,0.8-2.2,0.8-3.7,1.5c0,0.7-0.7,1.5-0.7,1.5c-0.7,2.2-1.5,4.5-2.2,6.7c-1.5,0-2.2,0-3,0
	c-4.5-1.5-3.7-4.5-3.7-6.7c0.7-1.5,1.5-3,2.2-4.5c-0.7-0.8-1.5-1.5-2.2-1.5c-3.7,0.7-8.2,1.5-11.2,3c-1.5,1.5-5.2,0-5.2-0.7
	c-2.2-1.5-3.7-3.7-5.2-5.2c-3,0-6.7,0-9.7,0c-0.7,0-0.7-0.7-1.5-0.7c-1.5-3-2.2-5.2-3-6.7c-2.2,0-3-1.5-3.7-2.2s-2.2-1.5-3-1.5
	c-0.7-0.8-2.2-0.8-2.2-0.8c-1.5-0.7-3-1.5-3.7-2.2c-3.7-3.7-2.2-8.2-3.7-11.2c-1.5,0-3.7,0-5.2,0.7c-3.7-1.5-4.5-3-4.5-4.5
	c-0.7-1.5-1.5-2.2-1.5-3c-3-1.5-5.2-3.7-7.5-5.2c-1.5-2.2-3-4.5-4.5-7.5c-3,0-4.5,1.5-6.7,3c-1.5,0-3.7,0-6,0c-2.2-1.5-3-3-3.7-4.5
	c0-0.7-0.7-1.5-0.7-2.2c-0.7-4.5-3-6.7-4.5-9.7c-2.2-1.5-4.5-2.2-6.7-3.7c-3-0.7-5.2-2.2-6.7-3c-1.5-3.7,0-6,2.2-7.5c0-3,0-6,0.7-9
	c-2.2-6-3-6.7,3-6.7c1.5,1.5,1.5,1.5,3,4.5c0.7,0,1.5,0,1.5,0c2.2-2.2,1.5-7.5,1.5-9.7c-0.7-3-2.2-5.2-3-8.2c0-6,0-6,3-9
	c0-0.7,0.7-1.5,1.5-2.2c0,0,0,0,0-0.7c-2.2-0.7-3.7-2.2-4.5-3c-1.5,0-1.5-0.7-1.5-1.5c-3-2.2-1.5-5.2-1.5-7.5c0-0.7,0-0.7,0.7-1.5
	c-0.7-4.5-3.7-3.7-6.7-3.7c-3-1.5-5.2-6-6-8.2c-6.7-1.5-5.2-1.5-5.2-7.5c0-1.5,0.7-2.2,1.5-3.7c-0.7-3.7-3.7-6-6-7.5
	c-1.5-0.7-3.7-1.5-5.2-3l-0.7-0.7c0-6.7,0-5.2,4.5-7.5c0.7-0.7,1.5-0.7,2.2-1.5c0-4.5,0.7-11.2-0.7-14.2c-2.2-1.5-4.5-0.7-6-0.7
	c-0.7,2.2-3,0.7-3,0c-0.7-2.2-0.7-4.5-0.7-6c0.7-0.7,2.2-0.7,3-1.5c0-2.2-1.5-3-2.2-3.7c0-3.7,0-2.2,3.7-3.7c1.5-1.5,2.2-3.7,3-5.2
	c1.5-0.7,2.2-0.7,3.7-1.5c0.7-0.7,1.5-0.7,2.2-0.7c2.2,0,11.2,0,13.5-3c3,0,4.5-1.5,4.5,3c1.5,3,1.5,3.7,6,3c2.2-1.5,3.7-4.5,5.2-6
	c2.2,0,3.7,0.7,6.7,0c1.5-2.2,3.7-2.2,6.7-3c1.5,0.7,3.7,1.5,5.2,2.2c0.7-1.5,9-1.5,12-2.2c1.5-1.5,3-2.2,5.2-3
	c0.7-3.7,0.7-3.7,3.7-6c0.7-2.2,2.2-4.5,3-6.7c1.5-0.7,3-1.5,3.7-2.2c0.7-1.5,1.5-3,2.2-4.5c0-2.2,0-3.7,0-6c0-0.7-0.7-1.5-0.7-3
	c0-0.7,0-1.5,0-3c0.7-1.5,0.7-3.7,0.7-6c-2.2-1.5-0.7-2.2-1.5-3.7c0.7,0,8.2,0,11.2,0c3,0.7,6,1.5,9.7,2.2c1.5,0,3,0.7,4.5,1.5
	c0-0.7,0.7-0.7,1.5-1.5c-0.7,0-0.7-0.7-1.5-0.7c0-1.5,0-3,0-4.5c1.5-3,4.5-5.2,6-7.5c0.7-4.5,2.2-5.2,4.5-8.2c1.5-3.7,1.5-3,5.2-3
	c2.2,0.7,5.2,3.7,8.2,4.5c1.5,0,4.5,0,6,2.2c3,0,7.5,0,8.2-3c0-1.5,0-2.2,0-3c-1.5-6.7,0-6.7,3-10.5c3.7-2.2,6-2.2,10.5-3
	c0.7,0,0.7,0,1.5,0c0.7-1.5,0.7-2.2,1.5-3.7c0.7-0.7,1.5-1.5,2.2-2.2c2.2,0,4.5,0,6.7,0c1.5,0.7,1.5,2.2,2.2,5.2
	c0.7,2.2,3,5.2,4.5,9c1.5,2.2,5.2,2.2,8.2,3.7c1.5,0.7,3,2.2,4.5,3c0.7,1.5,1.5,2.2,1.5,3c0.7,2.2,0.7,4.5,0.7,6.7h0.7
	c0.7,1.5,1.5,3,2.2,4.5c0,2.2,0.7,7.5-0.7,11.2c-1.5,1.5-3,3-4.5,4.5c0,0.7-0.7,1.5-0.7,2.2c0,0,0.7,3,1.5,4.5
	c1.5,1.5,3,2.2,4.5,3.7c1.5,0,3,0,5.2,0.7c1.5,0.7,3,1.5,4.5,2.2c3.7,0,6.7,0.7,10.5,0.7c0.7,0.7,1.5,1.5,2.2,2.2
	c4.5,4.5,7.5,8.2,14.2,9.7c0.7,1.5,2.2,2.2,3,3c0.7,2.2,1.5,4.5,1.5,6.7c1.5,3,5.2,3.7,3.7,9c0.7,0.7,0.7,3,3,4.5
	c4.5,0,9,0.7,14.9,3c3,0,6,1.5,9.7,2.2c6.7,0,14.2,0,20.9,0c2.2,0.7,6.7,0.7,9,2.2c2.2,1.5,4.5,3.7,6.7,5.2c0.7,0.7,1.5,0.7,2.2,1.5
	c2.2,0,4.5,0.7,6.7,0.7c0.7,0.7,1.5,1.5,3,2.2c2.2,0.7,5.2,1.5,8.2,2.2c1.5,0.7,5.2,6.7,7.5,2.2c1.5-0.7,2.2-0.7,3-1.5
	c2.2-0.7,4.5-2.2,6-3.7c1.5-0.7,3.7-0.7,5.2-1.5c3-2.2,6.7-2.2,9.7-4.5c0-0.7,0.7-0.7,1.5-0.7c3.7-3,9-1.5,14.2,0c2.2,0,3.7,0,6,0
	c0.7-1.5,3.7-1.5,6-2.2c0.7-0.7,1.5-1.5,3-1.5c3-3.7,4.5-7.5,9-9.7c0.7-0.7,3.7-4.5,5.2-4.5l0,0c1.5-0.7,2.2-1.5,3.7-2.2
	c0-0.7,0-1.5,0-2.2c-0.7,0-1.5-0.7-1.5-1.5c-4.5-4.5-3.7-7.5-2.2-12.7c0.7-1.5,2.2-3,2.2-3.7c0.7-0.7,1.5-0.7,1.5-0.7
	c0.7,0,2.2,0,3.7,0c2.2,3,6.7,6,12,3.7c0.7-1.5,2.2-3.7,3.7-4.5c0-1.5,3.7-4.5,5.2-6c2.2,0,3.7,0,6,0c0,0,0-0.7,0.7-0.7
	c3-0.7,5.2-2.2,7.5-4.5c0.7-5.2,1.5-7.5,6-9c1.5-0.7,3-0.7,4.5-1.5c0.7-0.7,1.5-1.5,2.2-2.2c3-1.5,3.7-2.2,6.7-3.7
	c3.7,0,8.2,0.7,12,0.7c0.7,0,1.5-0.7,2.2-0.7c1.5-3,0-5.2-0.7-6.7c-3-2.2-6-4.5-9-6.7c-2.2-3-3-4.5-6-3.7c-0.7,0.7-1.5,1.5-1.5,2.2
	c-1.5,0-3,0-3.7,0c0,0.7,0,2.2,0,3c-1.5,4.5-9,0-9.7-0.7c-3.7,0-5.2,0.7-7.5,3c-0.7,0-1.5,0-3,0.7c-4.5-1.5-3.7-5.2-3.7-6.7
	c1.5-1.5,3-2.2,3.7-3.7c0-3,0-4.5,0-6.7c0.7-2.2,1.5-3.7,2.2-5.2c0-4.5,0-6,2.2-9c1.5,0,3,0,4.5,0c3.7,0.7,9.7,1.5,12.7-3
	c1.5-0.7,2.2-1.5,3.7-2.2c0-0.7,0.7-1.5,1.5-2.2c0-4.5,0-8.2,0.7-11.2c1.5-3,3.7-5.2,4.5-8.2c0-2.2,0.7-4.5,2.2-6c0-1.5,0-2.2,0-3.7
	c-1.5-1.5-2.2-2.2-3.7-3.7c-1.5-0.7-1.5-0.7-2.2-1.5c0-5.2,0.7-6.7,6-9c3,0,6-2.2,9.7-3c2.2-1.5,3.7-3,6-3.7
	c0.7-0.7,2.2-0.7,3.7-1.5c1.5,0,3,0,4.5,0s4.5,0.7,6,2.2c3,0,6-0.7,9.7,0c1.5,0.7,3,0.7,3.7,1.5c3,3,6,6,9,10.5
	c1.5,1.5,4.5,6,5.2,9.7c2.2,1.5,4.5,3.7,7.5,6.7c0.7,2.2-1.5,3.7,2.2,6c1.5,0.7,2.2,2.2,3,3c0,1.5,0,3,0.7,4.5
	c2.2,0.7,4.5,0.7,6.7,0c1.5,0,3,0,4.5,0c0.7,0.7,1.5,1.5,3.7,1.5l0,0c1.5-0.7,3-0.7,4.5-0.7c1.5,0.7,3,3,5.2,4.5
	c6.7,0,7.5,3,9.7,10.5c0.7,1.5,2.2,3,3.7,3.7c0,0,0.7,0,0.7,0.7c3-1.5,9.7-2.2,11.2-4.5c3-3.7,4.5-6,7.5-8.2c2.2-3,6-6,9-8.2
	c0.7,0,1.5-1.5,1.5-1.5c1.5,0,3,0,5.2,0.7c0,0.7,0,3.7-0.7,5.2c0,1.5,0,3,0,4.5c1.5,0.7,3,2.2,3.7,5.2c0,2.2,0,4.5,0,6.7
	c-0.7,0.7-0.7,2.2-1.5,3c-1.5,1.5-1.5,3.7-0.7,6c0,3,0,6.7,0,9.7c0,2.2-0.7,3.7-0.7,6c0,1.5,0,3,0,4.5c-0.7,0.7-1.5,1.5-1.5,2.2
	c-3,1.5-6.7,0.7-8.2,0c-1.5,0-2.2,0-3,0c-0.7,0.7-0.7,0.7-0.7,1.5c-3.7,3.7-7.5,3-2.2,9c0,3,2.2,7.5,4.5,12c0,1.5,0,3.7,1.5,6.7
	c0,1.5,0.7,6-0.7,7.5c-0.7,0.7-1.5,2.2-1.5,3c-0.7,1.5-0.7,3-0.7,4.5c-0.7,0-0.7,0.7-1.5,0.7c-1.5,0-2.2,0-3-1.5
	c-1.5,0.7-3,0.7-3.7,0c0-1.5,0-3.7,0-6c-2.2-3.7-3.7,3.7-3.7,5.2c-2.2,2.2-3,6-6,8.2c-1.5,1.5-3.7,1.5-6,1.5c0,0.7-0.7,0.7-0.7,3
	c0.7,0,0.7,0,0.7,0.7c1.5,0,3,0.7,3,4.5c-1.5,1.5-2.2,2.2-3.7,3c-2.2,0-4.5,0-6.7,0c-2.2-1.5-4.5-3.7-6-2.2c-2.2,2.2-3,6-3.7,9
	c-1.5,1.5-2.2,3-3,3.7c-0.7,1.5-1.5,2.2-2.2,3c-2.2,1.5-5.2,3-6,4.5c-2.2,1.5-4.5,3.7-6,6c0,1.5,0,3,0,4.5c-1.5,0.7-3.7,1.5-5.2,2.2
	c-6.7,1.5-9.7,3.7-14.2,8.2c0,1.5-0.7,2.2-1.5,3c0,2.2-0.7,4.5-1.5,6.7c-2.2,1.5-8.2,1.5-9.7,0.7c0-3.7,2.2-3.7,4.5-6.7
	c0-0.7,0.7-1.5,0.7-1.5c-3.7-2.2-3.7-4.5-3-7.5c1.5-2.2,3-3.7,4.5-5.2c0-2.2,0.7-3.7,0.7-5.2c-2.2-2.2-4.5-4.5-5.2-4.5
	c-1.5,0-3,0-4.5,0.7s-3.7,3.7-5.2,5.2c-0.7,2.2-3,6-5.2,7.5c-3.7,2.2-5.2,6-7.5,9.7c-0.7,0-0.7,0.7-0.7,1.5
	c-0.7,0.7-1.5,1.5-2.2,2.2c-1.5,0.7-3,1.5-4.5,2.2c-3.7,1.5-6.7,1.5-9.7,3.7c-2.2,3,0,6,2.2,9.7c0.7,0,1.5,2.2,1.5,4.5v0.7
	c0.7,0,1.5,0,1.5,0c1.5-3.7,0.7-3,6-3c0.7,0,1.5,0,3,0c0,0.7,0.7,1.5,2.2,3c0,2.2,0,3.7,0,6c0.7,0.7,4.5,3,7.5,3
	c0.7-1.5,2.2-3.7,3-6c4.5-3.7,5.2-6.7,12.7-5.2c1.5,0.7,3,1.5,4.5,1.5c3.7,0,8.2,0,12,0c0.7,0,0.7,0.7,1.5,1.5c0,0.7,0,1.5-0.7,2.2
	c0,1.5,0.7,3-1.5,4.5c-0.7,0-2.2,0-3.7,0.7c-1.5,0-2.2,0.7-3.7,1.5c-2.2,2.2-6.7,4.5-7.5,7.5c-0.7,0.7-2.2,1.5-3,2.2
	c-1.5,0.7-3,1.5-4.5,2.2c0,0.7,0,2.2-0.7,4.5c-0.7,1.5-3,3.7-4.5,5.2c0,1.5,0,3,0,4.5c-0.7,0.7-1.5,1.5-1.5,3c0,0.7,0,1.5,0,2.2
	s3,2.2,6,3c0,0.7,3,3,5.2,3.7c2.2,1.5,4.5,7.5,6.7,11.2c0.7,1.5,2.2,3.7,3.7,6c0,2.2,1.5,6.7,5.2,7.5c2.2,1.5,5.2,3.7,8.2,5.2
	c0.7,1.5,0.7,1.5,0.7,3c-0.7,0.7-1.5,0.7-1.5,1.5c-2.2,0-3.7,0-6,0c0,0,0,0,0.7,0.7c0.7,0,3.7,0,3.7,3c0,0.8,0,0.8-0.7,1.5
	c1.5,0.7,3.7,1.5,6,3c0,0.7,0,2.2,0,3c-0.7,0.7-1.5,1.5-2.2,3c-4.5,1.5-6,4.5-10.5,7.5c-0.7,0-1.5,0.8-2.2,0.8
	c-0.7,0.7-0.7,0.7-0.7,0.7c0.7,0.7,1.5,2.2,3.7,1.5c3-2.2,2.2-3,6.7-3c3,2.2,5.2,2.2,9.7,3c2.2,1.5-3,5.2-4.5,6
	c-0.7,0-1.5,0.7-1.5,1.5c0.7,0,1.5,0,2.2,0c0-0.8,0.7-1.5,1.5-1.5c0,0,0.7,0,1.5,0c0,0.7,0.7,1.5,0.7,4.5c-0.7,0-0.7,0.7-1.5,1.5
	c-0.7,0-3.7,0-3.7,1.5c0.7,0.7,1.5,0.7,2.2,1.5c0,2.2,0,4.5,0,6.7c0,0.8,0,1.5,0.7,2.2c0,0.7,0,3.7-1.5,5.2c-1.5,0-2.2,0-3,0
	c0-0.8,0-0.8-0.7-1.5c-6,6-5.2,6-6,14.2c0,1.5-3,4.5-3.7,5.2c0,1.5,0,3-0.7,4.5c-2.2,2.2-4.5,0-6.7,1.5c0.7,0,1.5,0.7,2.2,1.5
	c0,0,0,0.7,0.7,0.7c0.7,0.8,1.5,1.5,3,1.5v0.7c-3,2.2-3,1.5-3,4.5c-1.5,1.5-1.5,2.2-1.5,5.2c0.7,0.7,2.2,0.7,2.2,3.7
	c-1.5,0-3,0-5.2,0c0.7,0.8,0.7,1.5,1.5,1.5c0,0.7,0,0.7,0,1.5c-1.5,0.8-3,1.5-3.7,2.2c0,1.5-0.7,3.7-2.2,6c-0.7,0.7-1.5,0.7-2.2,1.5
	c-1.5,0-3,0-3.7,0c0,1.5,0,1.5,0.7,2.2c0,0,0,0.8,0,1.5c-0.7,0.7-2.2,0.7-2.2,0.7c-2.2,1.5-4.5,3.7-6,6.7c-0.7,0.7-0.7,0.7-0.7,1.5
	c-3,3-5.2,3.7-9,5.2c-1.5,0.8-2.2,1.5-3.7,3c0,0,0,0,0,0.8c0,0,1.5,2.2,0,3.7c-1.5,0-2.2,0.7-3.7,1.5c-3.7,3-6.7,3.7-9.7,6.7
	c-3,0-3.7-1.5-4.5-1.5c-0.7,0.7-1.5,1.5-1.5,2.2c-1.5,0-2.2,0-3,0c-0.7-0.7-1.5-0.7-1.5-1.5c0,0.8,0,3-1.5,3.7c-3,0.7-2.2,0-3,2.2
	c-1.5,1.5-4.5,0-5.2,0c0-0.7,0-1.5,0-1.5c-0.7-0.7-0.7-0.7-0.7-0.7c-1.5-0.8-3-1.5-3.7-3c-0.7,1.5-0.7,2.2-0.7,3
	c-1.5,2.2-3,3.7-4.5,5.2c-2.2,1.5-3,3-4.5,3.7c-2.2,0-3.7,1.5-4.5,3c-3,0-4.5,0-5.2,0.8c-1.5,2.2-3.7,2.2-6,0.7
	c-3.7,0.7-6.7,3-9.7,3.7c-5.2,0.7-6,0-7.5,5.2c-0.7,1.5-2.2,0.7-3,2.2c1.5,1.5,3,3.7,4.5,5.2c0,0.8,0,2.2,0,3
	C411.2,486.9,409,486.9,406.7,487.7L406.7,487.7z"/>
<path class="st1" d="M399.3,515.4c-2.2-0.7-4.5-1.5-7.5-2.2c-3.7-3-2.2-5.2-2.2-9c0.7-3.7,0-3,3.7-3.7c0-0.7,0.7-1.5,1.5-1.5
	c0-1.5,0-3,0-4.5c0,0,0,0,0.7,0s2.2,0.7,4.5,0c2.2-0.7,3.7-2.2,6-3.7c3.7,0,6.7,0,10.5,0c0.7,0,3,1.5,3,4.5c-0.7,1.5-1.5,3-3,4.5
	c-1.5,2.2-3,4.5-3.7,8.2c-3.7,2.2-7.5,4.5-11.2,6.7C400.8,515.4,400,515.4,399.3,515.4L399.3,515.4z"/>
<path class="st2" d="M408.2,486.2c-3-2.2-3-3.7-3.7-5.2c-0.7-2.2-2.2-3.7-3-5.2c0-3.7,0-3,2.2-5.2c0.7-6,0.7-6.7,6-10.5
	c2.2-2.2,4.5-4.5,7.5-6.7c2.2-3,4.5-5.2,7.5-8.2c2.2-1.5,2.2-3,3-5.2c0-6,1.5-4.5,4.5-8.2c0-2.2,0-5.2,0-7.5
	c1.5-1.5,1.5-3.7,2.2-5.2c0-1.5,0.7-2.2,1.5-3c0.7,0,1.5,0,2.2,0c1.5,0.7,3,2.2,4.5,3.7c0.7,0,1.5,0,2.2,0c1.5-1.5,1.5-3.7,1.5-4.5
	c-0.7-0.7-2.2-2.2-3-3c0.7,0,0.7,0,0.7,0c4.5,0,8.2,0,12,0c1.5,0.8,6,0.8,8.2-1.5c0.7,0,0.7,0,1.5,0c0,1.5,0,2.2,0,3
	c-1.5,1.5-3.7,3.7-5.2,6c0,3,0.7,3.7,6,3.7c2.2-1.5,4.5-2.2,7.5-3c0.7,0,1.5,0,2.2,0c0,0,0.7,0.7,1.5,0.7c3.7,0,6-5.2,12-3
	c1.5,1.5,2.2,3,3.7,4.5c1.5,2.2,3.7,4.5,5.2,7.5c0,0.7,0,0.7,0,1.5c-2.2,0-2.2,0.7-3.7,1.5c-1.5,1.5-5.2,2.2-3,6c0,0,0,0,0,0.7
	c-3.7,1.5-8.2,4.5-12,6.7c0,0-0.7,0.7-1.5,1.5c-1.5,0-2.2-0.7-2.2-0.7c-0.7,0-1.5,0-2.2,0s-1.5,0.7-1.5,1.5c-0.7,0-1.5,0-1.5,0
	c-2.2-2.2-3-1.5-4.5-1.5c0,1.5,0,2.2,0,3.7c-1.5,1.5-3-0.7-3.7,3c-3,0-2.2-0.7-3-2.2c-0.7,0-0.7,0-0.7,0c-1.5-1.5-2.2-2.2-3.7-3
	c0,0-0.7,0-1.5,0c-0.7,1.5-0.7,1.5-1.5,3c-0.7,1.5-2.2,3-3,4.5c-3,1.5-3,1.5-4.5,3.7c-0.7,0-1.5,0.7-3,0.7c-0.7,0.7-1.5,1.5-2.2,2.2
	c-3.7,0-4.5,0-6,1.5c0,0,0,0.8-0.7,1.5c0,0-0.7,0-1.5,0c-3-1.5-3-0.7-5.2,0c-3,0.7-5.2,1.5-7.5,2.2c-3.7,0.7-5.2,0.7-7.5,3
	c0,1.5-0.7,2.2-0.7,3c-2.2,1.5-3,1.5-3,4.5c1.5,0.7,4.5,3,4.5,6C410.5,485.4,409,486.2,408.2,486.2L408.2,486.2z"/>
<path class="st1" d="M296.1,475.7c-2.2-2.2-4.5-3.7-6-4.5c0-3,0-4.5-0.7-6.7c-0.7,0-0.7-0.7-1.5-0.7c-3,0-5.2,1.5-6.7,3.7
	c-0.7,0-2.2-0.7-3.7-0.7c-0.7-2.2-1.5-3.7-3-4.5c-3-4.5-3-3-7.5-3.7c-2.2-2.2-1.5-5.2-1.5-6.7c0.7-3,1.5-5.2,0-7.5
	c-5.2-1.5-4.5-0.7-4.5-3.7c-0.7-1.5-1.5-3-1.5-4.5c-0.7-0.7-0.7-1.5-1.5-2.2c-0.7-4.5-1.5-5.2-5.2-5.2c-2.2,1.5-5.2,3-6.7,3
	c0,0,0,0-0.7,0c0-3.7,0-7.5,0-11.2c0.7-1.5,1.5-3,2.2-4.5c2.2-3.7,4.5-4.5,8.2-7.5c0.7-0.7,2.2-1.5,3-3c0-1.5,0-3.7,0.7-5.2
	c0-0.7,0.7-1.5,0.7-2.2c0-3,0-7.5,1.5-9c0-3,0.7-5.2-0.7-7.5c-1.5-1.5-3.7-3-5.2-4.5c0-1.5,0-2.2,0-3.7c1.5,0,3-0.8,5.2-1.5
	c1.5-3.7-0.7-8.2-0.7-10.5c1.5-1.5,2.2-3,4.5-0.8c1.5,3,3,6,3.7,10.5c0.7,0.7,0.7,0.7,3,0.7c1.5-2.2,0.7-5.2,0.7-6.7
	c0.7-0.7,1.5-0.7,2.2-1.5c0.7,1.5,1.5,3.7,2.2,6.7c1.5,1.5,2.2,4.5,5.2,6.7c1.5,0,3,0.7,4.5,0.7c1.5,3,3,6,4.5,9
	c1.5,1.5,3,3.7,4.5,5.2c0,0.7,0,1.5,0.7,2.2c-2.2,2.2-2.2,1.5-2.2,5.2c1.5,2.2,2.2,3.7,6.7,5.2c0.7,0.7,0.7,1.5,3.7,2.2
	c0.7,0,2.2,0,3-0.8c3-0.7,6-2.2,9.7-3.7c1.5-3,1.5-4.5,1.5-6.7c-1.5-2.2-3-3-3.7-3.7c0-3-0.7-3,0.7-4.5c2.2-1.5,5.2-3,6.7-6
	c0-1.5,0-2.2,0-3c-0.7-3-1.5-3.7-2.2-4.5c0-0.7,0-0.7,0-0.7c0.7-0.8,1.5-0.8,1.5-0.8c4.5-3.7,0-6,7.5-5.2c0.7,2.2,2.2,5.2,3,7.5
	c0.7,1.5,1.5,2.2,3,3.7c1.5,0,3,0,4.5,0c1.5-1.5,3-2.2,4.5-3c0,0,0,0.8,0.7,0.8c0,2.2,0,6.7-2.2,8.2c-1.5,0.8-2.2,0.8-3,0.8
	c-1.5-0.8-3-1.5-4.5-2.2c-5.2,0-6,0.7-9.7,3.7c-0.7,0.7-0.7,1.5-1.5,2.2c0,1.5-0.7,3,0.7,5.2c0,1.5,1.5,5.2,5.2,3
	c3,0,5.2-1.5,5.2,3.7c-0.7,1.5-1.5,3.7-2.2,6c-3,3.7-1.5,6,3.7,8.2c0,0.8,0,2.2,0,3c0,1.5-2.2,5.2,0,8.2c0.7,1.5,2.2,3,3.7,4.5
	c2.2,0.8,5.2,1.5,8.2,2.2c0.7,0,1.5,0.7,3,1.5c0.7,0,2.2,0,3,0c0,1.5,0.7,2.2,0.7,3c-0.7,0.7-0.7,1.5-1.5,2.2
	c-1.5,1.5-3,2.2-4.5,2.2c-5.2,0-7.5,2.2-11.2,4.5c-0.7,1.5-1.5,3-3,4.5c-1.5,0-3,0-4.5,0c-1.5,0.7-3.7,4.5-6,3.7
	c-3-4.5-5.2-3-7.5-0.7c-3.7,0.7-4.5-1.5-6-2.2c-4.5-1.5-5.2,0.8-6.7,3c-1.5,1.5-4.5-0.7-5.2-0.7s-1.5,0-2.2,0
	c-2.2,2.2-2.2,1.5-2.2,5.2c1.5,2.2,3,3.7,1.5,7.5c0,1.5,1.5,3.7,1.5,7.5C296.9,474.9,296.1,475.7,296.1,475.7L296.1,475.7z"/>
<path class="st3" d="M394,470.4c0-0.7,0-1.5,0-2.2c-0.7,0-0.7-0.8-1.5-0.8c-0.7,0-0.7-0.7-1.5-0.7c-0.7-3-2.2-3-3.7-2.2
	c-0.7,1.5-0.7,2.2-0.7,3c-3,0.8-6,0.8-9,0.8c-1.5,0-3-0.8-5.2-0.8c-1.5-0.7-2.2-0.7-3.7-0.7c-1.5-1.5-2.2-2.2-3.7-3.7
	c0-0.7-0.7-1.5-1.5-2.2l0,0c-1.5-3,0-3.7,0.7-6c0-0.7,0-2.2,0-3c-0.7-0.7-2.2-1.5-3-2.2v-0.8c-4.5,0-7.5,0-10.5-0.7
	c-0.7,0-1.5-0.7-3-0.7c0-1.5-0.7-2.2-0.7-3.7c0.7,0,2.2,0,3.7,0s3-2.2,4.5-3c1.5-3,1.5-5.2,0-6.7c-0.7,0-2.2,0-3,0
	c-4.5-3-9-3.7-12-5.2c-1.5-1.5-2.2-3-2.2-3.7c2.2-3.7,2.2-4.5,7.5-4.5c1.5,0,2.2,0.7,3.7,0.7c0.7,1.5,2.2,2.2,3.7,3.7
	c1.5,0,3,0.7,6,0c3-2.2,6-6.7,9-9c0-0.8,0-1.5,0-3c0.7,0,1.5,0,3,0c0,0.7,0.7,0.7,0.7,1.5c1.5,0.7,3.7,2.2,6.7,3.7
	c0.7,0,1.5,0,2.2,0c1.5-0.7,3-1.5,5.2-2.2c2.2-2.2,3.7-3,6.7-4.5c0-0.7,0.7-0.7,1.5-1.5c2.2-3,3.7-3.7,7.5-4.5c1.5,0,3,0,5.2,0
	c3.7-2.2,4.5-4.5,9.7-4.5c0.7,1.5,1.5,3,3,4.5c0.7,0.7,1.5,1.5,2.2,2.2c-1.5,2.2-3,4.5-4.5,7.5c0,0.8,0,2.2,0,3
	c0.7,0.8,2.2,0.8,4.5,0.8c0,1.5,0.7,2.2,0.7,3.7c0.7,0.7,0.7,0.7,1.5,1.5c1.5,0,3.7-0.7,5.2-0.7c1.5,1.5,1.5,4.5,1.5,7.5
	c0,0.8-0.7,1.5-2.2,2.2c0,0.7-0.7,0.7-1.5,0.7c0,2.2,0,4.5-0.7,6c0,1.5-0.7,2.2-1.5,3.7c-0.7,0-2.2,0.7-2.2,2.2c-3,0-5.2,6-7.5,7.5
	c0,0.7-2.2,1.5-2.2,1.5c-1.5,1.5-3,3-3.7,3.7c0,0.8,0,0.8,0,0.8h-0.7v0.7c-1.5,0-3,2.2-3.7,3c-0.7,1.5-1.5,3-2.2,4.5
	c-3,0.8-4.5,1.5-6,3C394.8,470.4,394.8,470.4,394,470.4L394,470.4z"/>
<path class="st1" d="M547.3,451c-1.5-2.2-2.2-3.7-3.7-5.2c-0.7-0.7-1.5-0.7-2.2-0.7c-0.7-3-2.2-5.2-3-6c-0.7-0.7-0.7-1.5-0.7-3
	c0.7-2.2,1.5-4.5,1.5-6.7c-1.5-5.2,0.7-6,3-9c0-1.5,0-3,0.7-4.5c1.5-4.5,2.2-6.7,5.2-9.7c1.5-1.5,3-2.2,4.5-3.7c1.5,0,2.2,0,3.7,0
	c0,0.7,1.5,3.7,0.7,5.2c-2.2,3.7-0.7,10.5-0.7,16.5c-1.5,3.7-3.7,8.2-6,12c0,0.7,0,1.5-0.7,2.2c0,3.7-0.7,8.2-0.7,12
	C548,450.2,547.3,451,547.3,451L547.3,451z"/>
<path class="st4" d="M500.2,430.7c0-2.2-1.5-3.7-2.2-4.5l0,0c-2.2-3.7-4.5-6.7-7.5-9.7c-3-0.7-5.2,0-6.7-0.7c-0.7-3,0-4.5,0.7-7.5
	c0.7-2.2,0-4.5,0-6c1.5-2.2,3-3.7,3.7-5.2c0-0.7,0.7-1.5,0.7-3c0-2.2-0.7-5.2,0.7-6.7c0.7-0.7,2.2-1.5,3-2.2
	c0.7-0.8,1.5-1.5,2.2-2.2s0.7-1.5,1.5-2.2c0-0.7,0-1.5,0-2.2c-2.2-4.5-1.5-5.2,2.2-6.7c2.2-0.7,3.7-0.7,6-2.2
	c2.2-0.7,3.7-3.7,4.5-5.2c0.7-0.7,1.5-0.7,3,0.7c1.5,3,1.5,8.2,6,10.5c2.2,0.8,5.2,0.8,7.5,0.8c1.5-1.5,5.2-1.5,8.2-1.5
	c0.7,0,0.7,0,1.5,0c-1.5,1.5-3,2.2-3.7,4.5c0,1.5,0,3,0,3.7c-3.7,0-8.2-0.7-7.5,3c1.5,0.7,2.2,1.5,3,3c0.7,0,1.5,0.7,1.5,0.7
	c0,0.7-0.7,1.5-1.5,1.5c0,3-2.2,6.7-0.7,9.7c0.7,0,0.7,0.7,1.5,0.7v0.7l-0.7-0.7c-0.7,0-2.2,0-3.7,0.7c-0.7,0.7,0,0.7,0,3
	c-3.7,3-3,1.5-3.7,6.7c-0.7,0.8-2.2,1.5-3,2.2c-1.5,0-3,0.7-3.7,0.7c-1.5,0.8-1.5,2.2,0.7,3.7c-4.5,0.7-6.7,4.5-9,7.5
	c0,0,0,0.7-0.7,1.5C503.2,429.2,501.7,430,500.2,430.7L500.2,430.7z"/>
<path class="st5" d="M355.2,424c-3.7-1.5-4.5-3-6-4.5c-0.7,0-1.5-0.7-2.2-0.7c-4.5,0-5.2,0-8.2,2.2c0,0.8-0.7,1.5-1.5,2.2
	c0-2.2,0-3,0.7-4.5c0-1.5,0-3,0-5.2c-1.5-0.7-3.7-1.5-5.2-2.2c0-0.7,0.7-2.2,0.7-3c0.7-2.2,1.5-4.5,2.2-6.7c0.7-0.7,0-3.7,0-4.5
	c-0.7-0.7-1.5-1.5-1.5-1.5c-2.2,0-4.5,0-6.7,0.7c-2.2,0-1.5-2.2-1.5-3c-0.7-0.7-0.7-0.7-0.7-1.5c0-6,2.2-6,7.5-7.5
	c0.7,0,0.7,0,1.5,0c2.2,1.5,5.2,3,9,1.5c0.7-0.7,0.7-1.5,1.5-1.5c0-0.7,0.7-2.2,0.7-3c0,0,0.7,0,1.5,0c0.7,1.5,6,1.5,9.7,1.5
	c2.2-2.2,1.5-5.2,1.5-7.5c-3-3-6-3.7-8.2-4.5c-1.5-3-0.7-3.7,2.2-3.7c0.7,0.7,1.5,1.5,2.2,1.5c2.2,0.7,3.7,0.7,5.2,1.5
	c5.2,0,11.2-4.5,13.5-9c0-3.7,3-3.7,6-3.7c2.2,0.7,3.7,4.5,4.5,8.2c2.2,2.2,3.7,5.2,7.5,8.2c0.7,0,2.2,0.7,3.7,0.7
	c0,2.2,2.2,5.2,0,8.2c-4.5,3-7.5,0.7-6.7,7.5c0.7,0,2.2-0.7,3-0.7c2.2,0,3.7,0,5.2,0c0,2.2,0,5.2,0,8.2c0,1.5,0.7,2.2,3,3.7
	c0,0.7,0.7,1.5,1.5,3c-3,0-4.5,1.5-6.7,2.2c-2.2,3.7-6,5.2-9,7.5c-2.2,1.5-5.2,2.2-7.5,1.5c-1.5,0-2.2-0.8-3.7-1.5c-3-3.7-3-2.2-6-3
	c-0.7,0.7-1.5,0.7-1.5,1.5c0,0.7,0,1.5,0,2.2c-2.2,2.2-5.2,4.5-6.7,7.5C357.4,423.2,355.9,423.2,355.2,424L355.2,424z"/>
<path class="st4" d="M430.7,423.2c-2.2-2.2-4.5-0.7-6-0.7c-0.7,0-0.7-0.7-1.5-1.5c0-4.5-3-3.7-4.5-3.7c0,0,0-0.7,0-1.5
	c1.5-3,3.7-6,3.7-9c-1.5-2.2-3.7-3.7-3.7-6c-1.5-2.2-2.2-1.5-3.7-1.5c-1.5,0.7-3,0.7-4.5,0.7c-1.5,2.2-3,3-4.5,3.7
	c-1.5,0-3,0.7-4.5,0.7c0-3.7-2.2-4.5-3.7-6l-0.7-0.7c0-3.7,0-6.7,0-10.5c-3,0-5.2,0.8-7.5,1.5c0-3.7,0.7-3,3.7-3.7
	c2.2-0.8,3.7-3.7,3.7-6c-0.7-3-1.5-5.2-1.5-7.5c-0.7-3-0.7-6-0.7-9c0-0.7,0-2.2-0.7-3c3-1.5,4.5-3.7,5.2-6.7c2.2-1.5,4.5-3,7.5-2.2
	c1.5,0,3,0,3.7-1.5c0-3-0.7-3.7-2.2-4.5c0.7-2.2,4.5-0.7,7.5,0.8c0.7,0,2.2,0,3.7,0c2.2,1.5,6,3,9,5.2c0.7,0,2.2,0.8,3.7,1.5
	c0.7,0,2.2,0,3.7,0c0.7-1.5,1.5-2.2,2.2-3c1.5,0,3,0.7,5.2,3.7c0.7,0,1.5,0.7,2.2,0.7c2.2,0.8,5.2,3.7,8.2,6.7c0.7,3,1.5,6,0,9.7
	c-4.5,4.5-6.7,6.7-3,13.5c0,0.7,0.7,1.5,0.7,2.2c0.7,0.7,2.2,6.7,3,9.7c1.5,2.2,1.5,3.7,0.7,6.7c0,2.2,0,4.5,0.7,8.2
	c-4.5,0-9,0-13.5,0c-1.5,1.5,0.7,3.7,2.2,5.2c0,0.7-0.7,1.5-0.7,2.2c-1.5,0-4.5-3.7-4.5-3.7c-1.5,0-3,0-4.5,0
	c-0.7,0.7-1.5,2.2-2.2,3.7C432.9,418.7,432.9,421.7,430.7,423.2L430.7,423.2z"/>
<path class="st1" d="M465,421.7c-0.7-0.8-2.2-0.8-3-0.8c0-0.7,0-0.7,0-0.7c1.5-2.2,3.7-4.5,5.2-6.7c0-2.2-0.7-3-0.7-3.7
	c-3,0-3.7,0-5.2,0.7c-0.7,0-2.2,0-3.7,0.7c0-2.2-0.7-3.7-1.5-5.2c0-3.7,1.5-6.7,0.7-10.5c-0.7,0-0.7-0.7-1.5-0.7
	c0-4.5-2.2-8.2-3-11.2c-1.5-4.5-3-6-0.7-9c1.5-0.7,3.7-4.5,4.5-5.2c0-2.2,0-4.5,0-6.7c-0.7-1.5-1.5-3-2.2-4.5l-0.7-0.7
	c0.7-0.8,2.2-2.2,3-3c0,0,3.7,0,4.5-0.8c0-0.7,0.7-0.7,0.7-0.7c2.2-3,6-4.5,9-6.7c1.5-3,7.5-1.5,11.2-4.5c0.7-3,0.7-3,4.5-3
	c0,2.2,0,4.5,0,6c0.7,1.5,2.2,1.5,3.7,1.5c2.2-1.5,1.5-4.5,2.2-5.2c0.7,0.7,1.5,4.5,4.5,4.5c2.2,0,4.5,0,6.7-1.5c0.7,0,1.5,0,2.2,0
	c-0.7,3-4.5,3.7-3,7.5c2.2,2.2,3.7,4.5,6,8.2c0,1.5,0,2.2,0,3c-0.7,0.8-1.5,2.2-2.2,3.7c-3,3.7-6,2.2-9,3.7c-3,3-3.7,2.2-3,6.7
	c0.7,1.5,0.7,3,0,5.2c-1.5,0.7-2.2,1.5-3,3c-4.5,3-4.5,2.2-3.7,9c0,0.8,0,2.2-0.7,3c-3,3-3.7,3-3.7,7.5c0,0.7,0.7,1.5,0.7,2.2
	c-0.7,2.2-2.2,6-1.5,9c0,0.7,0,1.5,0.7,1.5c-1.5,0.7-3,1.5-4.5,3c-3-3-6-0.7-9.7,0.7C467.3,421,466.5,421.7,465,421.7L465,421.7z"/>
<path class="st3" d="M305.1,405.2c-0.7,0-0.7,0-1.5,0c-3-2.2-4.5-2.2-6.7-4.5c-0.7-0.8-1.5-0.8-1.5-1.5s0-1.5,0-2.2
	c3-3.7,1.5-6-0.7-9c-3-3-3.7-6.7-5.2-8.2c-2.2-4.5-1.5-3-5.2-3.7c-0.7,0-1.5-0.8-2.2-0.8c-0.7-1.5-2.2-3-3-4.5
	c-0.7-2.2-1.5-4.5-2.2-6s-1.5-2.2-1.5-3c-6,0-3,5.2-4.5,8.2c-0.7,0-0.7,0-1.5,0c0-3-1.5-6-2.2-8.2c1.5-0.7,1.5-3.7,1.5-3.7
	c0-1.5,0-3,0.7-4.5c-2.2-3-2.2-6.7-2.2-9c0.7-1.5,2.2-2.2,3-3c-0.7-2.2-0.7-3.7-0.7-6c-0.7-1.5-1.5-3-2.2-3.7c-0.7-3-2.2-6.7-3-8.2
	c-3-3.7-6.7-7.5-6.7-11.2c-1.5-0.7-3-1.5-4.5-3c-0.7,0-0.7-0.7-0.7-0.7c-0.7,0-0.7,0-0.7,0c0-2.2-0.7-4.5,0-5.2c3-1.5,3-4.5,3-6.7
	c-0.7-1.5-2.2-3-3-3.7c0-1.5,0-2.2,0-3c3,0,6-0.8,9-0.8c1.5,0.8,3.7,3,4.5,5.2c0,3.7,3.7,7.5,7.5,11.2c0.7,0,2.2-0.8,3.7,2.2
	c1.5,0,2.2-0.7,4.5-1.5c0-0.7,0.7-0.7,0.7-0.7c0,0.7,0.7,0.7,0.7,0.7c0,1.5,2.2,2.2,4.5,2.2c0,0,0.7,0.7,0.7,1.5c0.7,0,1.5,0,3,0
	c0-0.7,0.7-1.5,2.2-2.2c1.5,0,3.7-0.7,5.2-0.7c0.7-0.7,0.7-1.5,0.7-1.5c0-4.5-3-9.7-0.7-11.2c0.7,0.7,1.5,2.2,3.7,3
	c0.7,0.7,0.7,0.7,1.5,1.5c1.5,0.8,3.7,0.8,6.7,0c0.7-0.7,0.7-1.5,1.5-2.2c0-3.7-0.7-5.2-1.5-6.7c1.5-1.5,4.5-5.2,6.7-3
	c0.7,1.5,1.5,3,5.2,5.2c0.7,0.8,1.5,0.8,3,1.5c1.5,2.2,4.5,3.7,6.7,7.5c0,0.7,0.7,1.5,0.7,2.2c0.7,1.5,3,5.2,5.2,6c3,0,6,0,9,0
	c2.2-1.5,3-2.2,6-2.2c2.2,0.7,3.7,1.5,6,2.2c1.5,0,3,0,5.2,0c1.5,1.5,2.2,3,6,3c0.7,0.7,2.2,1.5,3,2.2c0,2.2,0,4.5,0,6.7
	c-3,2.2-4.5,6-5.2,9.7c-1.5,2.2-3.7,5.2-6.7,7.5c-5.2,1.5-5.2-0.7-8.2-3c-1.5-2.2-4.5-3-5.2-2.2c0,0-0.7,0-0.7,0.7c0,1.5,0,3,0,4.5
	c0.7,2.2,1.5,4.5,1.5,7.5c-0.7,2.2-1.5,5.2-0.7,8.2c0.7,0.7,1.5,1.5,2.2,2.2c1.5,0.8,4.5,5.2,1.5,9c-3,1.5-3,0.7-3,4.5
	c1.5,3,6,2.2,9,6c0,0.7,0,3.7-0.7,5.2c-3.7,0-7.5-0.7-9.7-1.5c0-2.2-0.7-4.5-1.5-6c-3,0-3.7,2.2-6,3c-0.7,0-2.2,0-3,0
	c-3.7-3-4.5-6.7-4.5-9c-0.7-0.7-1.5-1.5-1.5-2.2c-5.2,0-6.7-0.7-7.5,4.5c-1.5,1.5-2.2,0.7-3.7,1.5c0,0.7,0,1.5,0,2.2
	c1.5,1.5,3.7,3.7,2.2,7.5c-0.7,2.2-4.5,3.7-6.7,5.2c0,0,0,0.7-0.7,0.7c0,1.5,0,3,0,5.2c1.5,2.2,3.7,0.7,3.7,6
	c-0.7,0.7-0.7,1.5-0.7,2.2c-1.5,0.7-2.2,0.7-3,1.5C310.3,403,307.3,404.5,305.1,405.2L305.1,405.2z"/>
<path class="st5" d="M193,383.5c-1.5-1.5-9.7-0.7-10.5-0.7c-0.7,0-1.5,0-1.5,0.7c-7.5-0.7-3.7-3.7-2.2-7.5c0-0.8,0-1.5,0-2.2
	c-5.2-1.5-4.5-3-5.2-6c-0.7,0-0.7-0.7-0.7-0.7c-3,0-4.5-0.8-6.7-0.8c-0.7-1.5-1.5-2.2-2.2-3c-3-1.5-6-3-7.5-3.7
	c-0.7-0.7-0.7-0.7-1.5-0.7c-1.5,0-3,0-4.5,0c-2.2,1.5-3,3-5.2,4.5c-0.7,0-1.5,0.7-2.2,1.5c0,0.7-0.7,0.7-0.7,1.5
	c0,1.5-0.7,3.7-0.7,5.2c-6-0.7-4.5-6-3-9.7c0-0.7,0-1.5,0-1.5c-2.2-2.2-2.2-1.5-4.5-2.2c-5.2,1.5-7.5,1.5-11.2,3.7
	c-3.7,0-5.2-3-6-4.5c-0.7-0.8-1.5-1.5-2.2-2.2c-3,0-6.7,0-9.7,0c-3-1.5-3-5.2-4.5-6.7c-2.2-0.8-2.2-0.8-3-2.2
	c-0.7-0.7-1.5-1.5-2.2-2.2c-2.2-0.7-3.7-0.7-5.2-1.5c-5.2-4.5-3.7-5.2-4.5-9.7c-0.7-0.7-0.7-1.5-1.5-2.2c-1.5,0-3.7,0-5.2,0
	c-4.5-1.5-3.7-3-4.5-5.2c-1.5-1.5-3-2.2-3.7-3c-2.2-1.5-3.7-3-5.2-4.5c-1.5-2.2-3-4.5-4.5-6.7c-2.2,0-3,0-4.5,0.8
	c-1.5,0-2.2,0.7-3.7,1.5c-1.5,0-3,0-4.5,0c-3.7-3-4.5-6.7-4.5-9.7c-1.5-1.5-3-3.7-3.7-6c-3.7-3.7-9-5.2-12.7-6
	c-3-2.2-1.5-3.7-0.7-5.2c1.5-0.7,2.2-3,2.2-3c0-3,0-6,0-9c-1.5-4.5-2.2-4.5,1.5-4.5c0.7,0,0.7,0.7,1.5,0.7c0.7,1.5,3,6.7,6,3
	c0-1.5,0.7-3,0.7-3.7c0-3,0-5.2,0-8.2c-1.5-2.2-2.2-3.7-3-6c-0.7-4.5,0-6.7,2.2-8.2c0.7-0.7,0.7-1.5,1.5-2.2c1.5,0.7,3,1.5,5.2,2.2
	c0.7,0,2.2,0,4.5,0c0.7-1.5,2.2-2.2,3.7-3.7c1.5-4.5,3-6.7,7.5-9c1.5,0,1.5,0,3.7,0.7c1.5,1.5,3.7,2.2,6,3.7c0,3,3.7,1.5,6,0.7
	c1.5,0,3-0.7,4.5-0.7c3-3,3-4.5,7.5-1.5c0,3.7,0,3,3.7,6c1.5,0,3,0.7,4.5,1.5c1.5,0,2.2,0,3.7,0c2.2-0.7,4.5-2.2,8.2-2.2
	c4.5-1.5,3.7-2.2,9,0c2.2,0,3.7,0,5.2,0.7c2.2-1.5,1.5-3,3.7-3.7c3.7-3,6-4.5,12-1.5c3.7,0,9.7-0.7,14.9-0.7c0.7,0.7,2.2,1.5,3,1.5
	c1.5,1.5,3,3,5.2,3.7c0,0.7,0,2.2,0,3c1.5,1.5,4.5,3.7,3,7.5c-0.7,1.5-1.5,3-2.2,4.5c0,1.5,0,3,0,4.5c0.7,8.2-0.7,16.5,6.7,24
	c0.7,0.8,3.7,2.2,6,3c1.5,0.8,3.7,0.8,5.2,1.5c3,4.5,6.7,6.7,13.5,7.5c3,2.2,4.5,4.5,9.7,5.2c4.5-0.7,9-0.7,13.5-0.7
	c0.7,0.7,1.5,0.7,3,1.5c0.7,0.7,2.2,1.5,3.7,2.2c0.7,2.2,2.2,3.7,3,6c0.7,3.7,0.7,3.7,4.5,7.5c0.7,0,2.2,0,3,0
	c0-0.7,0.7-1.5,1.5-2.2c0.7,0,1.5-0.8,2.2-0.8c0,1.5,1.5,3,3.7,3c1.5-0.7,3-2.2,4.5-3c1.5-2.2,3-5.2,5.2-6.7c0,0,0,0,0.7,0
	c0,0.7,2.2,2.2,4.5,3.7c0.7,3,3.7,6.7,7.5,10.5c0.7,3,1.5,6,2.2,8.2c1.5,2.2,3,4.5,3,8.2c-3,3.7-3,3-3,8.2c0.7,2.2,3,5.2,1.5,9
	c0,0.7,0,1.5,0,2.2h-0.7c0-0.7-1.5-1.5-2.2-2.2c-3,0-3.7,0.7-5.2,2.2c0,1.5,0.7,3.7,1.5,7.5c0,0.7-0.7,2.2-0.7,3
	c0,0-0.7,0.7-1.5,0.7c-0.7,0-2.2,0-3,0c-1.5-2.2-3-3.7-3.7-5.2c-5.2-2.2-8.2,1.5-7.5,6.7c0,0.7-0.7,0.7-0.7,1.5
	c-2.2,0-5.2-0.7-5.2-1.5c-0.7-1.5-0.7-2.2-0.7-3c-3.7-1.5-6-2.2-8.2-3c-0.7-0.8-0.7-1.5-1.5-2.2c-4.5,0-3.7,0.7-6.7,3.7
	c-2.2,0.7-3.7,1.5-5.2,3c-4.5,0.7-3.7,0.7-6,4.5c-5.2,0.7-5.2,0.7-8.2,4.5c-0.7,0.7-0.7,0.7-1.5,1.5
	C196.7,382,195.2,382.8,193,383.5L193,383.5z"/>
<path class="st3" d="M523.3,375.3c-3.7-0.7-5.2-1.5-6.7-3c-0.7-2.2-1.5-5.2-2.2-8.2c-0.7-0.7-1.5-0.7-3-1.5
	c-0.7-0.7-1.5-0.7-2.2-0.7c1.5-4.5-3.7-9.7-6-11.2c0-2.2,3-3.7,3.7-5.2c0-2.2,2.2-3,3.7-4.5c0.7-0.7,0.7-1.5,1.5-2.2
	c0-1.5,0-6,0.7-6c0.7-0.7,2.2-3,4.5-0.7c1.5,0,2.2,0,3.7,0c1.5-2.2,4.5-1.5,7.5-0.7c0.7,1.5,3.7,3,6.7,1.5c1.5-0.7,3-3.7,5.2-1.5
	c1.5,0.7,2.2,0.7,3.7,1.5c1.5,0,3,0,4.5,0.8c0,0.7-8.2,4.5-5.2,7.5c0.7,0,2.2,0,3.7,0c0-0.7,0.7-1.5,1.5-1.5c0,0,0.7,2.2-0.7,3
	c-2.2,0.7-3,0.7-4.5,2.2c0,0.8,0,1.5,0,2.2c0.7,0,1.5,0.7,3,0.7c-0.7,2.2-0.7,3.7-0.7,6.7c0,1.5,0.7,4.5,0,5.2
	c-0.7,0-0.7,0.7-1.5,0.7c0-0.7,0-1.5,0-1.5c-2.2-2.2-6,3.7-7.5,5.2c0,0,0,1.5-0.7,2.2c0,2.2,0,4.5,0,6.7c-0.7,0-0.7,0-1.5,0
	C529.3,373,527.1,373.8,523.3,375.3L523.3,375.3z"/>
<path class="st1" d="M394,373.8c-5.2-2.2-6.7-6-9-9c-0.7-6-5.2-11.2-11.2-8.2c-1.5,1.5-1.5,1.5-1.5,3.7c-1.5,2.2-3.7,4.5-6,6
	c0,0,0,0,0,0.8c-0.7,0-1.5,0-1.5,0.7c-0.7,0-1.5,0.7-3,0.7c-3.7,0-7.5-0.7-9.7-3c1.5-3,1.5-5.2,0.7-6.7c-2.2-2.2-4.5-4.5-5.2-6
	c0-3.7,0.7-7.5,0.7-10.5c-0.7-3.7-1.5-5.2-0.7-7.5c0-0.7,0-0.7,0-0.7c1.5,0.7,3,2.2,4.5,3c0.7,0.7,2.2,2.2,3,3c6.7,3,12-6.7,14.2-12
	c1.5-2.2,3-4.5,4.5-6.7c0-2.2,0-3.7,0-6c0.7-0.7,1.5-0.7,2.2-1.5c3.7,0,6.7-1.5,11.2,2.2c1.5,0.7,2.2,2.2,3.7,3.7
	c2.2,0,3.7,0.8,5.2,1.5c2.2,0.7,9,4.5,9,9c-3,1.5-5.2,4.5-7.5,6c-6,1.5-11.2-0.8-14.9,1.5c0,1.5,0,2.2,0,3c2.2,3-3,6,2.2,9.7
	c1.5,0.8,3,2.2,3.7,3.7c1.5,1.5,2.2,3,3.7,4.5c0.7,1.5,0.7,3,1.5,4.5C394,367,394,370,394,373.8L394,373.8z"/>
<path class="st5" d="M394,358c-2.2-4.5-6.7-7.5-9.7-10.5c-0.7-2.2,0-2.2,0-3.7c0-0.7,0-1.5,0.7-3c-0.7-0.7-0.7-1.5-1.5-1.5
	c2.2-2.2,9-1.5,12-1.5c3-0.7,5.2-2.2,7.5-4.5c0.7-0.8,2.2-1.5,3-2.2c0-1.5,0-2.2,0-3c-2.2-4.5-6-6.7-9-8.2c0-0.7-0.7-1.5-0.7-1.5
	c0-2.2,0-4.5,0-6c1.5-1.5,2.2-3,4.5-3.7c3-1.5,0.7-4.5,0-6c-1.5-0.8-3-1.5-3.7-2.2c3.7,0,7.5,0,11.2,0c1.5,0,3,0,4.5,0.7
	c1.5,2.2,6,6,10.5,6.7c0.7,0.8,1.5,0.8,3,1.5c4.5,0,9.7,0,14.2,0c2.2,1.5,3.7,2.2,5.2,3c0,1.5,1.5,3,3.7,4.5
	c2.2,0.8,4.5,0.8,6.7,0.8c1.5,0.7,3,1.5,5.2,2.2c0,0.8,3,0,6,1.5c0,0.7,0,1.5,1.5,3c0.7,0,4.5,0,4.5,2.2c-1.5,2.2-1.5,1.5-1.5,4.5
	c0,1.5,2.2,2.2,3,5.2c0,1.5,0,3.7,3,5.2c0,0,0,0,0,0.8c-6.7,0.7-8.2,3-14.2,6.7c-1.5,0.7-2.2,1.5-3,3c-3.7,1.5-5.2,0-7.5,3.7
	c-0.7,0-0.7,0-1.5,0.7c-1.5-1.5-2.2-3-3.7-3.7c-4.5-0.7-6-3.7-8.2-5.2c-3,0-3,0.8-4.5,3c-6.7,0-12-4.5-15.7-6.7
	c-3,0-5.2-0.7-7.5-1.5c-5.2,0-6.7,0.7-3,5.2c0,0.8,0,0.8-0.7,1.5c-0.7,0-1.5,0-1.5,0c-6.7,0-8.2,2.2-10.5,7.5
	C394.8,357.3,394.8,358,394,358L394,358z"/>
<path class="st2" d="M488.2,344.6c-0.7,0-0.7,0-0.7-0.7c0-1.5,0-3.7,0-5.2c0-0.7-0.7-0.7-0.7-0.7c-4.5,0-4.5-0.7-6.7,3
	c0,0-0.7,0-0.7,0.7c0-1.5-1.5-1.5-2.2-2.2c0-0.8,0-0.8-0.7-1.5c0-3.7-1.5-3.7-2.2-6c-0.7-0.7-0.7-0.7-1.5-0.7c0-2.2,1.5-2.2,2.2-3.7
	c0-4.5-4.5-3.7-6-5.2c0-0.7,0-0.7,0-1.5c-0.7,0-0.7-0.8-0.7-0.8c0-2.2,2.2-3,3.7-3.7c0.7-0.7,1.5-1.5,2.2-2.2c0-3.7-1.5-7.5-3-9
	c-1.5,0-2.2,0-3,0c-0.7,0-0.7,0.8-0.7,0.8c-0.7,0-0.7,0-1.5,0c-1.5-1.5-1.5-4.5-2.2-6c-0.7-0.8-1.5-0.8-2.2-1.5c0-3,3-4.5,5.2-6.7
	c0.7-3,0-6,0-9c0-0.7,0-0.7,0.7-0.7l0.7,0.7c0.7,0.7,1.5,4.5,4.5,5.2c0.7,0,1.5,0,2.2,0c2.2-2.2,1.5-3.7,3-6.7c0,0,0-0.8,0-1.5
	c-1.5-1.5-3-3-4.5-4.5c0-1.5,0.7-1.5,1.5-1.5c0.7,0,0.7,0,0.7,0c2.2,1.5,4.5,3.7,5.2,6.7c0.7,0.8,1.5,2.2,2.2,3c3,0,6,0.8,9,1.5
	c0.7,0.7,1.5,0.7,2.2,1.5c1.5,3,2.2,8.2,6,11.2c0,0,0,0.7,0.7,0.7s3,0,4.5-0.7c0.7-3,0-1.5,3-2.2c0,0.8,1.5,3,1.5,5.2
	c-1.5,0.7-3.7,0.7-5.2,0.7c-0.7,0.7-1.5,2.2-1.5,3c0,1.5,0,2.2,0,3c-1.5,1.5-1.5,1.5-1.5,3.7c1.5,1.5,3.7,3,5.2,5.2
	c0.7,0,2.2,0,3,1.5c0.7,0.7,1.5,1.5,2.2,2.2c1.5,0,3.7,0,6,0.8c0,0,0.7,0,0.7,0.7s0,0.7,0,1.5c-2.2,3-6,0.8-6,5.2
	c0.7,0.7,0.7,1.5,0.7,2.2c-1.5,0.7-2.2,1.5-3,1.5c0,2.2,0,4.5,0,6c-2.2,3.7-4.5,4.5-8.2,5.2c-3,0.7-4.5,1.5-6.7,0.7
	c-2.2-2.2-2.2-3.7-3.7-4.5c-1.5,0-0.7,0-1.5,1.5c-0.7,1.5-0.7,2.2-0.7,3.7C489,344.6,488.2,344.6,488.2,344.6L488.2,344.6z"/>
<path class="st4" d="M518.9,330.3c-2.2-0.7-3-0.7-3.7-0.7c0-0.8,0-0.8,0-1.5c-3-0.7,3.7-3,4.5-3c0-0.7,0.7-0.7,0.7-1.5
	c0-6-3.7-4.5-6.7-5.2c-2.2,0-3-2.2-3-2.2c-3-1.5-4.5-2.2-5.2-3.7c-2.2-1.5-2.2-2.2-2.2-3c1.5-1.5,1.5-3,1.5-4.5c0-0.7,0-1.5,0.7-2.2
	c1.5,0,3.7,0.7,6-1.5c0-3-0.7-6-2.2-6.7c-2.2,0-3,0-4.5,0c0,0.7,0,1.5,0,2.2c-0.7,0-2.2,0-3,0.7c-0.7-1.5-0.7-1.5-2.2-2.2
	c-2.2-4.5-3-8.2-5.2-10.5c-2.2-1.5-4.5-1.5-6-1.5c-1.5-0.7-3-1.5-4.5-1.5c-0.7-0.7-0.7-0.7-0.7-1.5c-1.5-3-4.5-6.7-6.7-8.2
	c0-2.2-0.7-5.2,2.2-3.7c0.7,0.7,0.7,1.5,1.5,1.5v0.7c1.5,0.7,2.2,1.5,3.7,3.7c1.5,0.8,3.7,1.5,6.7,1.5c2.2-0.7,3.7-6.7,6-3
	c0.7,0,1.5,0,2.2,0c0.7-0.7,1.5-2.2,3-3c0-3,0.7-6.7,4.5-6.7c0,1.5,0,2.2,0,3.7c1.5,0.7,2.2,2.2,3.7,3c2.2,0.7,5.2,3,9,4.5
	c2.2,5.2,5.2,10.5,9,16.5c0,1.5,0.7,4.5,3,6.7c3.7,2.2,6.7,3.7,11.2,6.7c0,0.7,0,0.7,0,1.5c-0.7,0.7-6.7,0-6.7,0c0,0.7,0,1.5,0,3
	c0.7,0,2.2,0.7,3.7,1.5c0,0.7-0.7,1.5,0,3c1.5,0.7,3,1.5,5.2,2.2c0,0.7,0,0.7,0,0.7c0,3-3,3.7-5.2,5.2c0,0.7,0,0.7,0,0.7
	c-0.7,0-5.2,4.5-6,5.2c-1.5,0.7-3,0.7-4.5,1.5v0.8c-2.2,0-4.5,0-6.7-0.8C521.1,329.6,520.3,330.3,518.9,330.3L518.9,330.3z"/>
<path class="st1" d="M466.5,319.1c-2.2,0-3.7,0-6-0.7c-1.5-0.7-3-1.5-4.5-2.2c-4.5,0-6,0-8.2-1.5c-0.7-1.5-1.5-2.2-2.2-3.7
	c-1.5-0.7-2.2-1.5-3.7-2.2c-5.2,0-10.5,0-14.9-0.8c-3.7-0.7-9-3-9.7-4.5c-2.2-1.5-2.2-2.2-3-3c-0.7-6-3.7-9-5.2-12
	c-0.7-2.2-1.5-3.7-2.2-6c0-1.5,0-3,0-4.5c2.2,0,4.5-2.2,6-3.7c0.7,0,1.5-0.7,2.2-0.7c3,0,6-1.5,9-3.7c2.2,0,5.2-1.5,8.2-2.2
	c3-1.5,4.5-3,6.7-5.2c3-2.2,3-7.5,3-10.5c2.2,0.7,4.5,0.7,6.7,1.5c3,0,6.7,0,9.7,0c0.7,0.7,0.7,1.5,1.5,2.2c1.5,0.7,3,3.7,1.5,6.7
	c-2.2,0.7-3.7,1.5-3.7,4.5c-0.7,0-1.5,0-1.5,0.7c0,0,0,0,0,0.8c1.5,0.7,3,2.2,4.5,3v0.8c2.2,1.5,6,6,9.7,3c0.7,0,1.5,0.7,2.2,2.2
	c1.5,0.8,2.2,1.5,3.7,3v0.8c-1.5,1.5-1.5,4.5-2.2,6c-0.7,0-1.5-0.8-1.5-0.8c-3-3-3-6.7-6.7-5.2c0,3,0,6,0,9c-0.7,1.5-3.7,4.5-6,6
	c0,0.7,0,2.2,0,3c0.7,0.8,1.5,1.5,3,2.2c0,0.7,0.7,3,0.7,4.5c0.7,0,1.5,1.5,3.7,1.5c1.5-0.7,0.7-1.5,3-0.7c0.7,1.5,3,5.2,1.5,8.2
	c-0.7,0-3.7,1.5-3.7,2.2C467.3,317.6,466.5,318.3,466.5,319.1L466.5,319.1z"/>
<path class="st2" d="M394,319.1c-4.5-1.5-5.2-3.7-8.2-6c-0.7,0-1.5-0.7-3-0.7c-3,0-6.7,0-9,1.5c-1.5,0-3.7-2.2-3.7-3
	c-4.5,0-5.2-2.2-6.7-3c-1.5,0-3,0-5.2,0c-1.5-0.7-3.7-1.5-5.2-1.5c0-2.2,0.7-2.2,0.7-3.7c0-3,0-3.7-1.5-3.7c-0.7-1.5-0.7-2.2-0.7-3
	c2.2,0,4.5,0,7.5,0c1.5-3,0.7-6,0.7-9c-0.7-1.5-1.5-2.2-1.5-3.7c-1.5-8.2-1.5-9,6.7-9c1.5,0.8,3.7,1.5,5.2,3c0.7,0,2.2,0,3-0.7
	c0-2.2,0-3.7,0-5.2s3.7-2.2,5.2-0.7c0.7,0,2.2,0,3,0c1.5-3,1.5-8.2,0.7-10.5c0-2.2,0.7-2.2,1.5-3.7c0-0.7,0-1.5,0-2.2
	c-0.7-0.7-1.5-0.7-2.2-0.7c-2.2-1.5-5.2-3-6-4.5c-3,0-6.7-1.5-8.2-2.2c0-2.2,0.7-2.2,1.5-3c-0.7-2.2-0.7-3.7-0.7-4.5
	c0.7,0,1.5-2.2,2.2-3c0.7,0,2.2-0.7,4.5,0.7c3,0,6,0,9.7,0c3-3,1.5-8.2,1.5-10.5c0-3,2.2-3,3.7-5.2c0.7-1.5,2.2-3.7,3.7-5.2
	c0.7-0.7,2.2-2.2,3.7-3c0.7-0.7,1.5-2.2,2.2-3c0.7,0.7,1.5,0.7,2.2,1.5c0.7,0,0.7,0,0.7,0c1.5-0.7,2.2-2.2,3-3c0.7,0,3.7,0,3.7,3.7
	c0,0.7-0.7,1.5-1.5,2.2c0,3.7,0,6.7-3,9.7c-1.5,3.7,0,8.2,0.7,12.7c0,3-2.2,6.7-3.7,9c0,3,0,6.7,0,10.5c0.7,1.5,2.2,5.2,2.2,8.2
	c-1.5,3.7-2.2,6.7-0.7,10.5c0.7,1.5,1.5,1.5,2.2,3.7c0,1.5,0,3,0,4.5c0.7,2.2,2.2,4.5,3,7.5c1.5,2.2,3.7,4.5,4.5,9
	c-1.5-0.8-2.2-0.8-3.7-0.8c-3,0-12-0.7-13.5,0.8c0,0,0,0.7,0,1.5c1.5,0.7,3,2.2,5.2,3.7c0,0.8,0,1.5,0,2.2c-3,0.7-3.7,2.2-6,4.5
	c0,2.2,0,4.5,0,7.5C394.8,319.1,394.8,319.1,394,319.1L394,319.1z"/>
<path class="st1" d="M231.8,319.1c-1.5-1.5-3-2.2-3.7-3.7c-0.7-3.7-2.2-6.7-3.7-9c-3-3.7-5.2-3.7-8.2-5.2c-4.5,0-9,0.7-13.5,0.7
	c-4.5-0.7-6.7-3-9-5.2c-4.5-0.7-8.2-1.5-11.2-3.7c0-0.8-1.5-2.2-1.5-3l-0.7-0.8c-3.7-0.7-6.7-1.5-9-3c-5.2-1.5-6.7-9-7.5-12
	c-0.7-6-0.7-11.2-0.7-16.5c0.7-1.5,2.2-4.5,2.2-6c0-2.2-1.5-3.7-1.5-4.5c0.7,0,1.5,0,1.5,0c0.7,0.7,2.2,0,3,0
	c0.7-0.7,0.7-0.7,0.7-1.5c3-1.5,3.7,1.5,7.5,3c0.7,0,3.7,0.7,5.2,0c0-0.7,0.7-1.5,0.7-1.5c0-1.5,0-2.2,0-3c-1.5-3-3.7-4.5-2.2-6
	s2.2-1.5,3.7-2.2c0-0.7,0.7-1.5,1.5-1.5c2.2-5.2-0.7-6-3-7.5c-0.7-3-3-5.2-4.5-5.2c0-0.7-0.7-1.5-0.7-2.2c1.5-2.2-0.7-4.5-1.5-5.2
	c0,0,0,0,0-0.7c5.2-1.5,12.7-0.7,18.7-2.2c4.5-3,9-4.5,15.7-4.5c0.7,0,1.5,0.7,2.2,0.7c5.2,0,10.5-0.7,15.7,1.5
	c3.7,2.2,6.7,4.5,9.7,6.7c0.7,0,0.7,0.7,1.5,1.5c1.5,0.7,3.7,3,7.5,4.5c1.5,0,3,0,3.7,0c0.7-0.7,1.5-1.5,2.2-1.5c0-3,0-5.2-0.7-6.7
	c1.5-0.7,3.7-0.7,6-0.7c0.7,0.7,2.2,1.5,3.7,3c2.2,0,4.5,0.7,8.2,1.5c1.5,0.7,3,1.5,4.5,2.2s3,1.5,4.5,3l0,0c0,0.7,0.7,0.7,0.7,1.5
	c2.2,0,4.5,0,6.7-0.7c1.5,2.2,3,3.7,5.2,6c2.2,1.5,4.5,3.7,6.7,5.2c1.5,0.7,2.2,0.7,3.7,1.5c1.5,0,3.7,0,6,0c1.5,1.5,3,6.7,3.7,9.7
	c0.7,2.2,1.5,4.5,2.2,6.7c0.7,1.5,0.7,3.7,0.7,5.2c0.7,1.5,3.7,4.5,0.7,6.7c-5.2,3-5.2,3.7-9,9.7c-1.5,0.8-3,2.2-3.7,3
	s-0.7,1.5-0.7,2.2c1.5,0.7,3,2.2,4.5,3.7c0,2.2-3.7,1.5-3.7,1.5c-1.5-0.7-3-1.5-4.5-3c-2.2,0-6.7,0-7.5,0.7c0,3.7,0,6.7,4.5,10.5
	c0,1.5,0,3,0,4.5c0.7,2.2,1.5,4.5,2.2,6.7c0,2.2-2.2,2.2-4.5,2.2c-2.2,0.7-2.2,0.7-3.7,2.2c-0.7,0-1.5,0-1.5,0
	c0-0.8-0.7-1.5-0.7-1.5c-1.5,0-2.2-0.7-3.7-0.7c0-0.7-0.7-1.5-1.5-1.5c-0.7,0-1.5,0-2.2,0c0,0-2.2,1.5-3,1.5c0-0.7-0.7-1.5-0.7-1.5
	c-1.5-0.7-2.2-0.7-3.7-0.7c-1.5-2.2-3.7-4.5-5.2-6c0-0.7-0.7-1.5-0.7-1.5c0-4.5-2.2-6-4.5-8.2c-3-0.7-6-0.7-8.2-0.7
	c-4.5,0.7-3,0.7-3.7,5.2c0.7,1.5,2.2,3,3,3.7c0,1.5,0,2.2,0,3c-1.5,1.5-5.2,3.7-3,7.5c0,1.5-3,5.2-4.5,6.7c-0.7,2.2-2.2,2.2-3.7,3
	c0,0.8-0.7,0.8-0.7,1.5c-2.2,0-2.2-1.5-3-2.2c-1.5-0.7-3.7,0-4.5,0C232.6,317.6,232.6,318.3,231.8,319.1L231.8,319.1z"/>
<path class="st3" d="M406.7,276.4c-3.7-2.2-3-5.2-3-7.5c0.7-1.5,0.7-2.2,1.5-3.7c-0.7-1.5-0.7-3-0.7-4.5c-0.7-1.5-1.5-3.7-2.2-5.2
	c0-3,0-6,0-9c2.2-3,3-5.2,3.7-7.5c0-0.7,0-2.2,0.7-3c-1.5-6-3.7-10.5,1.5-13.5c0.7-3.7,0.7-5.2,0.7-7.5c0.7-0.7,0.7-1.5,1.5-3
	c0.7-3.7,3-5.2,6-6.7c1.5-2.2,3-6,5.2-6.7c0.7-0.7,1.5-1.5,2.2-2.2c1.5,0,6.7,0.7,8.2-0.7c1.5-0.7,3.7-1.5,5.2-3
	c0.7-0.7,0.7-0.7,1.5-1.5c0.7,0.7,1.5,1.5,2.2,1.5c0,2.2-5.2,3-3.7,6c3,0.7,4.5,3.7,7.5,8.2c0,0.7,0,1.5,0,2.2c-2.2,3.7-3,3-6,5.2
	c-1.5,2.2-4.5,6-2.2,9c0.7,0.7,2.2,1.5,3,2.2c1.5,2.2,3.7,3.7,3.7,9c-0.7,1.5-0.7,3-1.5,4.5c-0.7,2.2-3.7,5.2-5.2,6.7
	c0,0.7,0,0.7,0,1.5c0.7,0.7,2.2,2.2,3,3c0.7,2.2,0.7,6,0,9c-2.2,2.2-4.5,5.2-7.5,7.5c-3,0-6,0.7-9,1.5c-3.7,3-6,3-9,3.7
	c-1.5,0.7-2.2,1.5-3.7,2.2C409,275.6,407.5,276.4,406.7,276.4L406.7,276.4z"/>
<path class="st3" d="M466.5,274.9c-0.7-0.8-2.2-1.5-3-2.2c-2.2-1.5-3.7-3-5.2-4.5c0-1.5,0.7-2.2,0.7-3c1.5-0.8,3-2.2,3.7-3.7
	c0-1.5,0-3,0-3.7c0-2.2-2.2-9.7-3-10.5c0-2.2-0.7-3,0.7-4.5c1.5-3,3.7-4.5,6-6.7c2.2-4.5,6-5.2,10.5-8.2c2.2-2.2,3.7-4.5,6-6
	c0.7,1.5,0.7,3,1.5,4.5c0.7,0,2.2,0,3,0c0.7-0.7,0.7-2.2,1.5-3c1.5,0,3.7,0.7,6-0.7c0,0.7,0.7,2.2,1.5,3c0,2.2,0,3.7,0,6
	c1.5,1.5,5.2,3.7,9.7,3.7c1.5-3,3-5.2,4.5-8.2c0.7-0.7,1.5-1.5,2.2-2.2c1.5-0.7,3.7-1.5,6.7-1.5c1.5,0.7,3.7,1.5,5.2,2.2
	c3.7,0,8.2,0,12,0c0,0,0.7,0,0.7,0.7c0,0,0,0,0,0.7c-0.7,1.5-0.7,2.2-0.7,3.7c-1.5,0-3,0.7-4.5,0.7c-3.7,2.2-10.5,5.2-12,9.7
	c-0.7,0.7-1.5,0.7-2.2,1.5c-1.5,1.5-3,1.5-4.5,2.2l-0.7,0.7c0,1.5,0,3,0,4.5c-1.5,1.5-3.7,3.7-4.5,6c-0.7,1.5,0,3.7-1.5,5.2
	c-3.7,0-4.5,2.2-6,3.7c-0.7,2.2-1.5,5.2-3.7,6.7v-0.8c-0.7,0-0.7-0.7-1.5-0.7c-0.7,0-1.5,0-1.5,0c-1.5,0.7-2.2,2.2-3.7,3
	c-1.5,0.7-4.5,0-6,0c0-0.7,0-1.5,0-1.5c-2.2-2.2-3.7-3.7-5.2-5.2c-1.5,0-2.2,0-3,0c-0.7,1.5-0.7,3-1.5,5.2c-1.5,0-3,0.7-3,1.5
	C469.5,273.4,468,274.9,466.5,274.9L466.5,274.9z"/>
<path class="st1" d="M347.7,262.9c-0.7-1.5-0.7-3-1.5-3.7c0-4.5-0.7-8.2-1.5-11.2c-2.2-3.7-6-6-7.5-8.2c-0.7-0.7-2.2-0.7-3-1.5
	c0.7-1.5,6-2.2,8.2-2.2c2.2-2.2,1.5-2.2,6-3c0.7-0.7,1.5-1.5,2.2-2.2c-0.7-2.2-0.7-3.7-0.7-5.2c1.5-2.2,3-4.5,3.7-6.7
	c0.7-1.5,0.7-3,0.7-3.7c2.2,0,4.5-3,7.5-0.7c0,0.7,0,1.5,0.7,2.2c-0.7,1.5-1.5,2.2-2.2,4.5c-2.2,3-2.2,3.7-2.2,9
	c2.2,0,3.7,0,5.2,0.7c0.7,0.7,2.2,3,5.2,3.7c0,1.5-0.7,2.2-2.2,3.7c-0.7,1.5-2.2,2.2-3.7,3.7c-5.2,0-2.2,0.7-3.7,5.2
	c-2.2,3-2.2,2.2-2.2,7.5c0.7,0.7,0.7,1.5,1.5,1.5c1.5,0.7,4.5,1.5,3.7,4.5c0,0.7-0.7,1.5-0.7,2.2c-1.5,0-3,0.7-3.7,1.5
	C352.2,268.1,353.7,268.1,347.7,262.9L347.7,262.9z"/>
<path class="st5" d="M460.6,253.9c-0.7-0.7-1.5-1.5-1.5-2.2c-3,0-6,0-9,0.7c-3-0.7-6-1.5-8.2-2.2c-2.2-1.5-3.7-3.7-3.7-3.7
	c1.5-2.2,3-3.7,4.5-5.2c0.7-1.5,0.7-3,1.5-4.5c1.5-8.2-3-11.2-6.7-15c0-5.2,3-6.7,6.7-9c0.7-1.5,1.5-2.2,2.2-3c0-1.5,0-3,0-3.7
	c-2.2-3.7-4.5-6-6.7-8.2H439l0,0c0.7-0.7,1.5-1.5,2.2-2.2s1.5-2.2,1.5-3c-1.5-0.7-2.2-1.5-3-2.2c0-1.5,0-2.2,0-3
	c-1.5-1.5-2.2-2.2-3-3c0-2.2,0-3.7,0-6c0.7-0.7,0.7-1.5,1.5-2.2c0,0,2.2,0,2.2-0.7c0-2.2,0-3.7,0-6c1.5-0.7,1.5-1.5,3-1.5
	c0.7,0.7,3,1.5,3,3.7c-3,2.2-0.7,4.5,2.2,6.7c0.7,0,0.7,0,1.5,0c0.7,0,0.7-0.7,1.5-0.7c0-3,3-3,5.2-4.5c2.2-3.7,7.5-1.5,11.2-3.7
	c-0.7-2.2-0.7-4.5-0.7-6.7c1.5-1.5,2.2-2.2,5.2-3.7c3-3,3.7,0,5.2,3.7c1.5,3,3,5.2,4.5,8.2c0.7,2.2,0,3,3.7,4.5c1.5,0,4.5,0,7.5,0
	c-0.7,1.5-3,1.5-3.7,3.7c0,1.5-0.7,3,3,5.2c2.2,0,5.2,3,8.2,5.2c0.7,0,1.5,0.7,2.2,1.5c-2.2,2.2-3.7,5.2-6,8.2c0,2.2-4.5,5.2-6.7,6
	c-1.5,0-3,0-4.5,0.7c-3-2.2-4.5-4.5-6-6c-0.7-2.2,0-5.2-0.7-6.7c-1.5-0.7-3-0.7-4.5-1.5c0-3,0.7-6.7,0.7-9c-3,0-6,0-6.7-2.2
	c-4.5,0-4.5,0-5.2,3.7c-2.2,1.5-3.7,3-5.2,3.7c0,1.5,0,2.2,0.7,4.5c0,3.7-3.7,3-5.2,4.5c0,1.5-0.7,4.5,0,6c3,0,5.2,0,8.2,0
	c1.5-1.5,2.2-3,6-2.2c0.7,0.7,1.5,0.7,2.2,2.2c0.7,0.7,0.7,1.5,1.5,2.2c0,1.5,0.7,3.7,0.7,5.2c1.5,2.2,3.7,4.5,7.5,6
	c1.5,1.5,2.2,2.2,3,3.7c-2.2,0-3,2.2-4.5,3c-0.7,3-5.2,5.2-7.5,6c-2.2,1.5-3.7,3.7-5.2,6c-6,6-9.7,7.5-6,17.2
	C459.8,252.4,460.6,253.1,460.6,253.9L460.6,253.9z"/>
<path class="st4" d="M177.3,247.9c-0.7-0.7-1.5-0.7-2.2-0.7c-0.7-1.5-1.5-2.2-3-3c-3,0-3-0.7-4.5,2.2c-0.7-0.7-0.7-0.7-1.5-0.7
	c-0.7,0-2.2,0-3,0.7c-1.5-2.2-0.7-3.7-1.5-4.5c-0.7-0.7-1.5-0.7-2.2-1.5c-3.7-3.7-6.7-6-11.2-3.7c-3.7,0-6.7,0.7-9.7,0
	c-1.5,0-3-0.7-4.5-1.5c-1.5,0-3,0-3.7,0c-3,2.2-6.7,3.7-8.2,6.7c-1.5,0-3,0-4.5,0c-1.5-0.7-2.2-1.5-3.7-2.2c-3,0-3.7,0-4.5,0.7
	c-1.5,0.7-2.2,0.7-3.7,1.5c-3,0-4.5,0.7-6.7,1.5c-3.7,0-9-2.2-9.7-3.7c0-4.5-0.7-3.7-3-5.2c-4.5,0-3.7,0-6,3c-3,1.5-6,0.7-8.2,2.2
	h-0.7c0-0.7-0.7-0.7-0.7-1.5c-3-3.7-7.5-5.2-11.2-5.2c-4.5,3-6,4.5-7.5,9c-2.2,2.2-3,3.7-6,3.7c-1.5,0-2.2-0.7-3.7-0.7
	c-0.7-0.7-1.5-1.5-2.2-1.5c-0.7-3.7-4.5-4.5-6-5.2c-0.7-0.7-0.7-1.5-1.5-2.2c0-1.5,0-3,0-5.2c0.7-0.7,0-3,0-3
	c-1.5-4.5-5.2-3.7-8.2-4.5c-0.7-0.7-0.7-1.5-1.5-2.2c-1.5-1.5-2.2-3-3-5.2c-1.5,0-3-0.7-4.5-0.7c-1.5-3,0.7-6,1.5-8.2
	c0-4.5-3-6.7-5.2-9c-2.2-0.7-3.7-1.5-6-3c0,0-0.7,0-0.7-0.7c0-4.5,0-3.7,4.5-5.2c0.7-0.7,2.2-2.2,2.2-3c0-3.7,0-8.2,0-12
	c-0.7-6-5.2-4.5-8.2-4.5c-0.7,0-0.7,0.7-1.5,0.7c0,0.7,0,0.7,0,0.7c-0.7-3-0.7-3.7-0.7-5.2c0.7-0.7,2.2-0.7,3-1.5c0-0.7,0-2.2,0-3
	c-3-4.5-3.7-1.5,1.5-5.2c0.7-1.5,2.2-3,3-4.5c2.2-0.7,3.7-1.5,5.2-2.2c6,0,9,0,13.5-2.2c0.7,0,1.5,0,2.2,0c0,1.5,0.7,5.2,4.5,6
	c1.5,0,3.7,0,5.2-0.7c1.5-2.2,2.2-3.7,3.7-5.2c2.2,0,3.7,0.7,6.7,0c0.7-1.5,1.5-1.5,3-3c0.7,0,1.5,0,2.2,0c2.2,0.7,3.7,1.5,6.7,1.5
	c3-1.5,8.2-0.7,12.7-2.2c1.5-0.7,3-2.2,4.5-3c0.7-1.5,1.5-3,1.5-3.7c3.7-1.5,4.5-6,5.2-9c1.5-0.7,3.7-1.5,4.5-2.2
	c0.7-1.5,1.5-3,1.5-4.5c0-2.2,0.7-4.5,0.7-6.7c-0.7-1.5-0.7-2.2-0.7-3c0-4.5,1.5-8.2,0-10.5c-0.7,0-0.7-0.7-0.7-0.7
	c4.5,0,8.2,0,12.7,0.7c3,1.5,6,0,9.7,3c0.7,0,1.5,0,2.2,0c0.7-0.7,0.7-1.5,1.5-1.5c0-0.7,0-1.5,0-2.2c-0.7-2.2-0.7-4.5,0-6
	c2.2-2.2,3.7-3.7,5.2-5.2c0.7-4.5,2.2-5.2,4.5-8.2c0.7-2.2,0-3,3-3c2.2,1.5,5.2,3,7.5,5.2c1.5,0,4.5,0,6.7,2.2c3,0,9,0,10.5-3.7
	c0-3-0.7-6-0.7-9c3-6,6.7-6,13.5-6.7c2.2-0.7,3-3,3.7-4.5c0-0.7,0.7-1.5,1.5-1.5c1.5-0.7,3.7-0.7,5.2-0.7c0.7,0.7,1.5,5.2,2.2,7.5
	c1.5,3,3.7,5.2,5.2,8.2c1.5,0.7,4.5,1.5,7.5,2.2c1.5,0.7,2.2,2.2,3.7,3c0.7,0.7,1.5,2.2,2.2,3c0,2.2,0,4.5,0.7,6.7
	c0.7,1.5,1.5,3,2.2,4.5c0,2.2,1.5,7.5-0.7,10.5c-5.2,3-4.5,1.5-4.5,7.5c0,0.7,0,3,1.5,5.2c1.5,0.7,3,2.2,4.5,3c1.5,0,3.7,0.7,6,1.5
	c3.7,3,8.2,3,14.2,3c1.5,0.7,5.2,3.7,7.5,6c1.5,2.2,3.7,3.7,5.2,5.2c2.2,0,4.5,0.7,6,3c0.7,2.2,1.5,6,3,9c0.7,0.7,2.2,0.7,3,3
	c0,1.5-0.7,2.2-0.7,3.7c0.7,0.7,0.7,1.5,1.5,3c-3,1.5-3,1.5-3.7,5.2c0,1.5,0,3,0,4.5s0.7,3,0.7,4.5h-0.7c-3,0.7-6,0.7-9,0.7
	c-6.7,0.7-9.7,1.5-12,7.5c-1.5,2.2-3,3-3.7,6c-3,2.2-7.5,2.2-10.5,2.2c0,1.5-1.5,3.7-3,5.2c-0.7,2.2,0,4.5,1.5,8.2
	c0,1.5,0,2.2,0,3.7c-2.2,0-4.5,0.7-6.7,1.5c-2.2,0-3.7,1.5-5.2,2.2c-6,2.2-12,3-17.2,3c-2.2,0-2.2,0-3.7,0.7c0,2.2,0,2.2,2.2,4.5
	c-2.2,3,0,5.2,3,7.5c1.5,0.7,2.2,2.2,3,3.7c1.5,0.7,2.2,1.5,2.2,4.5c-0.7,0.7-1.5,0.7-1.5,1.5c-4.5,2.2-4.5,1.5-4.5,6.7
	c0.7,0.7,2.2,2.2,2.2,5.2C179.5,247.9,178,247.9,177.3,247.9L177.3,247.9z"/>
<path class="st4" d="M331.3,238.9c-1.5-1.5-3-3-4.5-4.5s-2.2-3-3-5.2c0-5.2,0.7-6.7,5.2-9.7c0.7-0.7,1.5-0.7,2.2-1.5
	c0.7-1.5,0.7-2.2,1.5-3c0-0.7,0-1.5,0-2.2c-2.2-4.5-4.5-3.7-8.2-2.2c-0.7,0.7-1.5,1.5-3,2.2c-0.7,0.7-2.2,1.5-3.7,2.2
	c-1.5-1.5-2.2-1.5-3-2.2c-9,0-9-0.7-9.7,8.2c-1.5,1.5-4.5-0.7-5.2-0.7c-1.5-2.2-3.7-4.5-4.5-5.2c-1.5-3.7-2.2-6-5.2-6.7
	c-1.5-1.5-3-3-4.5-5.2c-0.7,0-2.2,0-3,0c0-3.7,3.7-3.7,5.2-6.7c0.7-1.5,1.5-2.2,2.2-3.7c0-2.2-0.7-3-1.5-3.7
	c-5.2,0-11.2,0.7-15.7,2.2c-1.5,1.5-1.5,1.5-3,1.5c0-2.2,0-3.7,0-6c-0.7-0.7-1.5-1.5-2.2-2.2c-1.5-1.5-3-3-4.5-3.7
	c0-2.2,0.7-3,1.5-5.2c0-3,0-4.5,0-6.7c-1.5-0.7-2.2-2.2-3-3c0-1.5,0-3,0-4.5c4.5,1.5,8.2,2.2,12.7,3c6.7,0,14.2,0,21.7,0
	c1.5,0.7,6,1.5,8.2,3s4.5,3.7,7.5,5.2c0,0.7,0.7,0.7,1.5,1.5c2.2,0,4.5,0,6.7,0.7c0.7,0.7,1.5,1.5,3,2.2c2.2,0.7,5.2,1.5,8.2,2.2
	c2.2,0.7,4.5,6,9,3c1.5-2.2,3.7-3,6.7-3.7c2.2-2.2,3.7-3,7.5-3.7c0-1.5,3-1.5,4.5-2.2c2.2-0.7,4.5-3,6.7-3.7s4.5-0.7,7.5-0.7
	c3,0.7,12,3,14.9,0c6-0.7,9.7-6,13.5-10.5c1.5-1.5,3-2.2,4.5-3.7c0.7-0.7,2.2-2.2,3.7-3c0.7-0.7,2.2-1.5,3.7-2.2c0-1.5,0-2.2,0-3.7
	c-1.5-1.5-3-2.2-4.5-3.7c0-0.7-0.7-2.2-0.7-3c0.7-4.5,0-7.5,4.5-9.7c0-1.5,3,0.7,6,3.7c0.7,0,2.2,0,3,0.7c1.5,0,2.2,0,3.7,0
	c3.7-1.5,7.5-6.7,10.5-10.5c2.2-2.2,3.7-0.7,7.5-0.7c0.7-1.5,2.2-1.5,4.5-2.2c0.7-1.5,2.2-2.2,3-3c1.5,0,2.2-4.5,2.2-4.5
	c2.2-6,3.7-3.7,9-6c2.2-2.2,3.7-3.7,6.7-5.2c2.2-1.5,9.7-0.7,14.2,0c0.7-0.7,1.5-0.7,2.2-0.7c2.2-3,0.7-6.7-0.7-9
	c-0.7-0.7-1.5-2.2-3-3c-1.5-1.5-3.7-2.2-6-3c0-2.2-3-4.5-3.7-5.2c-0.7,0-2.2,0-3.7,0c-0.7,0.7-1.5,1.5-1.5,2.2c-1.5,0-3,0-4.5,0
	c0,1.5,0,3-0.7,4.5c-2.2,1.5-6-1.5-7.5-1.5c-0.7,0-2.2,0-3,0c-2.2,0.7-3.7,1.5-5.2,3c-3.7,0-4.5-3-4.5-5.2c1.5-0.7,2.2-2.2,3.7-3
	c0-3.7,0-5.2,0-6.7c0.7-2.2,1.5-3.7,2.2-5.2c0-3.7,0-6,1.5-8.2c0.7,0,2.2,0,3,0c3,0,9,1.5,12.7-1.5c2.2-2.2,5.2-3.7,7.5-6.7
	c0-3.7-0.7-13.5,3-15c2.2-3.7,1.5-7.5,4.5-10.5c-0.7-1.5-0.7-3-0.7-5.2v-1.8c-1.5-1.5-2.2-2.2-3-3c-0.7-0.7-1.5-1.5-2.2-1.5
	c0-3.7,1.5-5.2,4.5-6.7c3,0,4.5-2.2,7.5-2.2c0,0.7,0.7,1.5,1.5,1.5c0,1.5-0.7,2.2-0.7,3.7c-1.5,1.5-2.2,1.5-2.2,4.5
	c0.7,0.7,1.5,1.5,3,2.2c0.7,1.5,1.5,2.2,4.5,2.2c0-1.5,0.7-3,0.7-4.5c1.5,0,3,0,5.2,1.5c0.7,0.7,0.7,0.7,1.5,1.5c0,3,0.7,6.7,3,9
	c0.7,0.7,0.7,0.7,1.5,1.5c1.5-0.7,2.2-0.7,3.7-0.7c3.7-1.5,7.5-0.7,10.5-3.7c2.2-5.2,6-6,9-0.7c0.7,2.2,1.5,4.5,3,6.7
	c0,2.2-2.2,9.7-3.7,12c0,0.7,0,2.2,0,3c0.7,2.2,2.2,3.7,3,6c0,2.2-3.7,7.5,0.7,10.5c0.7,1.5,0,4.5,0,7.5c-0.7,0-1.5,0-3,0
	c-1.5-1.5-0.7-3-0.7-4.5s0-1.5-1.5-2.2c-5.2,0-1.5,2.2-3.7,5.2c-2.2,2.2-3.7,4.5-4.5,8.2c-0.7,1.5-3,3.7-4.5,5.2
	c0,1.5-0.7,3-0.7,4.5c1.5,0.7,1.5,1.5,3,3.7c1.5,0.7,2.2,1.5,3.7,3c1.5-0.7,2.2-0.7,3.7-0.7c0-0.7,0.7-2.2,1.5-3
	c0,0.7,1.5,2.2,1.5,4.5c-1.5,0-3,0.7-4.5,1.5c0,0.7-0.7,3,1.5,4.5c-0.7,2.2-3,4.5-5.2,6c-0.7,0-0.7,0-1.5,0
	c-1.5-1.5-3.7-2.2-5.2-3.7c-0.7,0-1.5,0-2.2,0c-0.7,0.7-1.5,2.2-1.5,3c0,0.7,0,2.2,0,3c1.5,1.5,5.2,3,7.5,6.7c0,1.5,0,3,0,4.5
	c1.5,2.2,3,5.2,3.7,8.2c0,0.7,0.7,1.5,1.5,1.5c0,0,0.7,0,1.5,0c0.7-0.7,1.5-2.2,1.5-3c1.5-1.5,2.2-2.2,3.7-3
	c0.7,1.5,2.2,3.7,3.7,7.5c0.7,2.2,0.7,5.2,4.5,6.7c0,0.7,0.7,0.7,0.7,1.5c-0.7,1.5-0.7,4.5-0.7,6.7c0,0.7-0.7,1.5-1.5,1.5
	c-2.2,0-2.2-0.7-3-1.5c-6.7,0-7.5,0.7-9.7,6c-0.7,0-0.7,0-1.5,0.7c0,1.5-6,5.2-6.7,6c-0.7,1.5-4.5,3.7-6,4.5
	c-0.7,0.7-1.5,1.5-1.5,1.5c-0.7,0-1.5,0.7-2.2,0.7c-0.7-0.7-1.5-1.5-2.2-2.2c-1.5-4.5-2.2-4.5-5.2-4.5c-1.5,3-2.2,7.5,1.5,10.5
	c0,1.5,0,3,0,5.2c-4.5,0-8.2,0.7-10.5-0.7c-0.7-4.5-2.2-5.2-3.7-7.5c-0.7-2.2-2.2-4.5-3-7.5c-3-2.2-2.2-1.5-4.5-1.5
	c-2.2,1.5-4.5,3-6.7,4.5c-0.7,1.5-0.7,4.5,0,7.5c-2.2,0.7-5.2,0.7-7.5,0.7c-3,1.5-5.2,3-7.5,4.5c-0.7,1.5-0.7,3-2.2,3
	c-2.2-1.5-3-2.2-3-3c0.7-0.7,0.7-0.7,1.5-1.5c0-3.7-3-6-5.2-6c-3.7,1.5-3.7,3.7-3,8.2c-0.7,0-1.5,0-2.2,0.7c-0.7,0-0.7,0.7-0.7,1.5
	c-0.7,0-0.7,0-1.5,0.7c0,2.2,0,4.5,0,6.7c0.7,0.7,1.5,2.2,2.2,3c0,0.7,0,1.5,0.7,2.2c-0.7,0.7-1.5,1.5-1.5,2.2
	c-3.7,3-7.5,3.7-11.2,3c-3,0-3.7,1.5-5.2,2.2c-0.7,0.7-1.5,1.5-2.2,2.2c-1.5,3-4.5,6.7-7.5,9.7c-1.5-0.7-2.2-1.5-3-2.2
	c-1.5,0-3,0-3.7,0c0,1.5-0.7,3-1.5,3c-1.5-2.2-3-1.5-4.5-1.5c-0.7,1.5-1.5,3.7-3,4.5c-3.7,1.5-5.2,7.5-9,9.7
	c-1.5,2.2-0.7,3.7-0.7,6.7c0,1.5-0.7,4.5-0.7,6c-0.7,0-0.7,0-0.7,0c-5.2,0-9.7-0.7-13.5-1.5c-1.5-0.7-3-1.5-3.7-2.2
	s-1.5-1.5-2.2-2.2c-1.5,0-3-0.7-4.5-0.7c0-1.5,0-3,0-3.7c1.5-3,3.7-6,3.7-9.7c-0.7-3.7-3.7-3-5.2-3c-0.7,0.7-1.5,0.7-2.2,1.5
	c-4.5,0-2.2,0-3,4.5c-1.5,0.7-1.5,1.5-1.5,2.2c-0.7,1.5-1.5,3-2.2,4.5c0,1.5,0,3.7,0,5.2c-0.7,0.7-1.5,1.5-1.5,2.2
	c-3.7,0-3.7,0.7-5.2,2.2c-3,0-5.2,0.7-7.5,1.5C333.5,236.7,332.7,238.2,331.3,238.9L331.3,238.9z"/>
<path class="st3" d="M479.2,214.9c-2.2-1.5-4.5-3.7-4.5-3.7c-2.2-3-1.5-6-2.2-7.5c0,0,0-0.7-0.7-1.5c-3.7-3-4.5-3.7-9-2.2
	c-0.7,0.7-0.7,0.7-1.5,1.5c-2.2,0-4.5,0-6,0c0-2.2-0.7-3.7,2.2-4.5c0.7-0.7,1.5-1.5,2.2-2.2c1.5-3-0.7-4.5-0.7-6
	c2.2-0.7,4.5-2.2,6-3.7c0.7-2.2,0.7-3,2.2-3c0.7,0.7,1.5,1.5,2.2,2.2c1.5,0,3,0,4.5,0c-0.7,1.5-0.7,6.7,0.7,9
	c0.7,0.7,1.5,0.7,2.2,0.7c0,0,0.7,0.7,1.5,0.7c0,3.7-1.5,5.2,3,8.2c0.7,1.5,1.5,2.2,2.2,3.7c-3,1.5-3,0.7-4.5,3
	C479.2,211.2,479.2,213.4,479.2,214.9L479.2,214.9z"/>
<path class="st2" d="M521.1,206.7c-0.7,0-0.7,0-0.7,0c1.5-3,2.2-3,3.7-4.5c0-0.7,0.7-1.5,1.5-2.2c0-0.7,0-1.5,0-2.2
	c-1.5,0-2.2-0.7-3-1.5c-0.7-4.5,1.5-5.2,3.7-8.2c1.5-2.2,0.7-5.2,0.7-7.5c-1.5-1.5-3-3.7-4.5-5.2c-0.7,0-1.5,0-2.2,0
	c-1.5,0-3,0.7-4.5,0.7c-2.2,2.2-3.7,4.5-6,6.7c-1.5,2.2-3,5.2-5.2,7.5c-3-3-6.7-4.5-9-6.7c-2.2,0-3.7-1.5-4.5-2.2c0-3,0-3,2.2-3.7
	c0.7-0.7,1.5-2.2,3-3c0-2.2-0.7-4.5-0.7-6.7l0,0c-0.7-0.7-0.7-0.7-0.7-1.5c-0.7-0.7-0.7-1.5-1.5-2.2c0-2.2,0-3.7,1.5-4.5
	c0.7,0,1.5,1.5,2.2,3.7c2.2,1.5,2.2,3,6.7,2.2c0.7-0.7,1.5-1.5,2.2-2.2c3.7-2.2,8.2-6.7,12-9.7c1.5-1.5,3-3.7,3.7-5.2
	c3-0.7,4.5-2.2,8.2,0c0.7,0,1.5,0,3,0c0-0.7,0.7-1.5,1.5-2.2c0-2.2,0-3.7,0-6c0-0.7,0.7-1.5,0.7-2.2c1.5,0,3.7,1.5,5.2,3.7
	c1.5,1.5,1.5,2.2,4.5,2.2c0.7-0.7,0.7-2.2,0.7-2.2c0.7-0.7,0.7-1.5,1.5-1.5l0.7,0.7c0,1.5,0.7,3,0.7,5.2c1.5,1.5,3.7,4.5,6.7,7.5
	c0,2.2,0,4.5,0,6.7c0.7,0.7,1.5,1.5,1.5,2.2c1.5,0.7,3,1.5,4.5,3c0.7,0.7,2.2,1.5,3,2.2c0,0.7-7.5,6-8.2,6.7s-1.5,1.5-2.2,2.2
	c-1.5,1.5-3,3-3.7,4.5s-0.7,3-1.5,4.5c-1.5,0.7-2.2,1.5-3.7,1.5c-6.7,1.5-11.2,4.5-14.9,10.5c-0.7,0-0.7,0.7-0.7,1.5
	c-0.7,2.2-1.5,4.5-2.2,6.7C524.8,206.7,522.6,206.7,521.1,206.7L521.1,206.7z"/>
<path class="st5" d="M564.4,166.2c-1.5-2.2-5.2-4.5-6.7-5.2c0-0.7-0.7-0.7-0.7-1.5c0-3,0.7-4.5-0.7-6.7c-2.2-2.2-2.2-2.2-3-3.7
	c-0.7-1.5-2.2-2.2-3-3.7h-0.7c0-1.5,0-3.7,0-5.2c-1.5-1.5-2.2-1.5-3-1.5c-1.5,1.5-1.5,2.2-2.2,4.5c0-0.7-0.7-0.7-0.7-0.7
	c-2.2-1.5-4.5-4.5-6-5.2c-6.7-0.7-6.7-3-7.5-7.5c-1.5-3-3-5.2-3.7-6.7c0-0.7-0.7-0.7-0.7-1.5h-0.7c-1.5,0.7-3,2.2-3.7,3
	c-0.7,0.7-1.5,2.2-2.2,3.7c-3-2.2-2.2-5.2-3-6.7c-0.7-0.7-1.5-2.2-1.5-3c0-1.5,0-3,0-4.5c-2.2-3-4.5-4.5-6-6c-3,0-0.7-3.7-0.7-4.5
	h0.7c2.2,1.5,4.5,3.7,8.2,3.7c1.5-1.5,3-3.7,4.5-4.5c2.2-3,3.7-4.5,6-0.7c0.7,3.7,4.5,6.7,9,8.2c2.2-0.7,5.2-1.5,7.5-2.2
	c1.5-2.2,3.7-3.7,6-5.2c0,0,0,0,0.7,0.7c0,2.2-1.5,6.7,3.7,6.7c0.7,0,1.5-0.7,2.2-0.7c2.2-2.2,3.7,0.7,6,3c0.7,0,2.2,0,3,0.7
	c0.7,1.5,3,5.2,6,7.5c0,0,0.7,0,1.5,0c1.5-2.2,2.2-3.7,2.2-6c0.7,0,1.5,0.7,2.2,0.7c0.7,2.2,2.2,4.5,5.2,6.7l0,0
	c0.7,1.5,2.2,2.2,3,3c1.5,0,3,0,3.7,0c0.7-0.7,1.5-1.5,2.2-2.2l1.5-0.7c0-0.7,0-0.7,0-1.5c-0.7,0-0.7,0-0.7,0c0-1.5,3-2.2,4.5-3
	c0.7,0,1.5-0.7,1.5-0.7c0.7,0,0.7-0.7,0.7-0.7c1.5,0,0.7,2.2,3.7,3.7c1.5,0.7,3,2.2,4.5,3c1.5,0,3,0.7,3.7,0.7
	c0,1.5,0.7,5.2-0.7,6.7c-0.7,0.7-0.7,2.2-1.5,3c0,1.5-0.7,3-0.7,4.5c-0.7,0-0.7,0-1.5,0c0-2.2-3-0.7-3-0.7h-0.7c0-2.2,0-3.7,0-5.2
	c-2.2-3.7-4.5-2.2-6,0.7c-0.7,3-3,6-3.7,9c-0.7,0.7-0.7,1.5-1.5,2.2c-5.2,3.7-8.2-1.5-7.5,6.7c0.7,0.7,2.2,2.2,3,3
	c0,0.7-1.5,2.2-1.5,2.2c-3,0.7-8.2,0-9.7,0c-3-3-4.5-1.5-6,0.7s-2.2,5.2-3,7.5c-0.7,0.7-0.7,1.5-0.7,1.5
	C565.2,165.5,565.2,165.5,564.4,166.2L564.4,166.2z"/>
<path class="st2" d="M586.1,124.3c-1.5-1.5-3-3-5.2-5.2c-1.5-3.7-3-6-6.7-5.2c-0.7,1.5-1.5,3-2.2,5.2c-2.2,0-4.5-5.2-4.5-6
	c-0.7,0-1.5-0.7-1.5-1.5c-0.7,0-1.5,0-3-0.7c-2.2-3.7-3.7-3.7-6.7-3.7c0,0,0,0.7-0.7,0.7c-5.2,3-3.7-2.2-3.7-5.2
	c-1.5-1.5-2.2-1.5-3.7-1.5c-0.7,0.7-1.5,2.2-2.2,3c-0.7,0-0.7,0-1.5,0.7c-1.5,2.2-6.7,3-9,3.7c-4.5-2.2-6-3.7-6.7-7.5
	c-3-3.7-2.2-2.2-5.2-3c-0.7,0-0.7,0-0.7,0.7c-1.5-0.7-1.5-2.2-1.5-3c0.7-0.7,2.2,0,4.5-1.5c0-2.2-0.7-3.7-0.7-4.5
	c-0.7-0.7-0.7-1.5-1.5-1.5c-3,0-2.2,0-3.7,3c-2.2,0-3.7-2.2-5.2-3c-0.7-1.5-0.7-1.5-1.5-3c-0.7-0.7-0.7-2.2-0.7-3
	c3-1.5,3.7-3.7,5.2-6c0.7-4.5,3.7-6,5.2-9.7c0-0.7,0-1.5,0-2.2c1.5,0,1.5,0.7,1.5,1.5c0,1.5-0.7,3.7,2.2,5.2c0.7,0,3,0.7,4.5-0.7
	c0-3,0-7.5,0-9c-3.7-3.7-2.2-5.2-0.7-8.2c0-3-1.5-6.7-3-6.7c0-0.7,0-2.2,0-3c0.7-1.5,0.7-2.2,1.5-3.7c0-2.2,0.7-3.7,1.5-6
	c0-5.2-2.2-12.7-6-14.2c-3,0-4.5,0-6.7,1.5c-1.5,3.7-1.5,4.5-5.2,5.2c-3.7,0-6,0.7-8.2,1.5c-3-1.5-2.2-3.7-3-5.2
	c-0.7-3.7-1.5-5.2-3-6.7c-6.7-3-7.5-2.2-7.5,3.7c-2.2-1.5-3.7-3-5.2-4.5c0,0,0,0,0-0.7c0.7-0.7,1.5-1.5,2.2-2.2c0-1.5,0-3.7,0.7-4.5
	c-0.7-0.7-1.5-1.5-2.2-2.2c3-1.5,5.2-3,8.2-3.7c3-1.5,4.5-2.2,9-1.5c1.5,1.5,3.7,2.2,7.5,2.2c3.7-0.7,5.2-0.7,9.7,0.7
	c3,3.7,6.7,9,11.2,14.2c0.7,1.5,1.5,3.7,2.2,6c2.2,1.5,3.7,3,5.2,4.5c2.2,2.2,3,3,3,6.7c0.7,0.7,2.2,2.2,4.5,3.7c0,0,0,0.7,0.7,0.7
	c0,1.5,0,2.2,0.7,5.2c0.7,0.7,5.2,0.7,8.2,0c1.5,0,2.2-0.7,5.2,1.5c0.7,0,2.2,0,3,0c0.7-0.7,0.7-0.7,3-0.7c2.2,1.5,3.7,3,5.2,4.5
	c1.5,0,4.5-0.7,6,1.5c0.7,1.5,1.5,3,2.2,4.5c0.7,3,3.7,11.2,9.7,7.5c2.2,0,5.2-1.5,8.2-2.2c0.7-0.7,0.7-0.7,1.5-1.5
	c3-4.5,4.5-6,8.2-9c0.7-0.7,2.2-2.2,3-3c2.2-2.2,3.7-3.7,6-5.2c3,0,3.7,0,2.2,3.7c0,2.2,0,3.7,0,6c1.5,0.7,3.7,2.2,4.5,5.2
	c-0.7,1.5-0.7,3-0.7,5.2c-0.7,0.7-0.7,2.2-1.5,3c-1.5,1.5-0.7,4.5,0,7.5c-0.7,3-0.7,5.2-0.7,8.2c0,1.5-0.7,3.7-0.7,5.2s0,3.7,0,5.2
	c-0.7,0.7-1.5,1.5-2.2,2.2c-1.5,0-2.2,0-3,0c-3.7-0.7-4.5-0.7-6.7-0.7c-1.5,0.7-1.5,2.2-2.2,3c-3.7,1.5-4.5,2.2-3.7,6
	c0.7,1.5,1.5,2.2,2.2,3.7c0,3,2.2,6.7,4.5,11.2c0,1.5,0.7,3,0.7,5.2c-4.5,0-6.7-3.7-8.2-4.5c0-3-3-3.7-3.7-3c0,0.7,0,0.7,0,1.5
	c-3,0-5.2,1.5-7.5,3c0,0.7,0,1.5,0,2.2c0,0,0,0,0.7,0c-1.5,0.7-2.2,1.5-3,2.2C587.6,123.5,586.9,124.3,586.1,124.3L586.1,124.3z"/>
<path class="st5" d="M370.1,275.6c-3.7-3-6.7-3-10.5-3c-0.7,0.7-1.5,0.7-2.2,0.7c-3,4.5-1.5,9,0.7,14.2c0,2.2,0.7,4.5,0,7.5
	c-2.2,0-4.5,0-6.7,0c-1.5,0.8-0.7,0.8-1.5,3c0.7,0.7,1.5,1.5,3,2.2c0,0.7,0,0.7,0,1.5c-0.7,1.5-1.5,3-1.5,3.7c-3,0-3.7,1.5-6,2.2
	c-2.2,0-5.2,0-7.5,0.8c0-0.8,0-0.8-0.7-0.8c-0.7-1.5-2.2-2.2-3-2.2c0-0.8,0-1.5-0.7-2.2c-0.7-2.2-1.5-3.7-2.2-6
	c-1.5-0.7-2.2-1.5-3.7-2.2c-1.5-2.2-3.7-3-5.2-3.7c-0.7-0.7-1.5-0.7-2.2-1.5c-3-6.7-4.5-6-9.7-3c-1.5,2.2-1.5,1.5-1.5,4.5
	c0.7,1.5,1.5,2.2,1.5,4.5c-1.5,0.7-1.5,1.5-3.7,2.2c0,0-0.7,0-1.5,0c-4.5-2.2-8.2-5.2-9.7-7.5c-3-1.5-3-6.7-3-7.5c1.5,0,3.7,0,5.2,0
	c1.5,0.8,3,2.2,4.5,3c1.5,0,3.7,0.8,6-1.5c0-0.7,0-1.5,0-2.2c-2.2-1.5-3.7-3.7-4.5-4.5c3-1.5,7.5-6.7,8.2-9.7c1.5-0.8,3-1.5,3.7-2.2
	c0.7,0,1.5-1.5,2.2-2.2c0-1.5,0-3,0-4.5c-3-3-1.5-7.5-2.2-7.5c-0.7-2.2-2.2-4.5-3-6c0-1.5,0-3-0.7-4.5c-0.7-2.2-2.2-6-3-6.7
	c-2.2,0-3.7,0-6,0c-3.7-0.7-7.5-4.5-9.7-5.2c-1.5-2.2-3.7-5.2-6-7.5c-1.5,0-2.2,0.7-3.7,0.7c-0.7,0-1.5,0-3,0
	c-1.5-1.5-3.7-3-5.2-4.5c-2.2-0.7-3.7-1.5-5.2-2.2c-3.7-0.7-6-1.5-8.2-1.5c-3.7-3.7-5.2-2.2-9-3c-0.7,0.7-1.5,1.5-2.2,1.5
	c0,2.2,1.5,3.7,0.7,6.7c-3.7,3.7-10.5-3-12-4.5s-3-3-5.2-3.7c-3-2.2-6-3.7-9-4.5c-5.2,0-10.5,0-14.9-1.5h-1c0-2.2-1.5-6-1.5-6
	c-0.7-3-2.2-5.2,0-6c0.7-1.5,1.5-3,2.2-3.7c3,0,7.5,0,10.5-3c0-1.5,0.7-2.2,0.7-3c1.5-1.5,2.2-2.2,3-3c2.2-6.7,4.5-6,12-6.7
	c0.7,0,7.5,0,9.7-1.5c0-2.2-0.7-4.5-0.7-6c0-3.7,0-9.7,4.5-7.5c3.7,0.7,7.5,1.5,11.2,1.5c-0.7,1.5-0.7,3.7-0.7,5.2
	c1.5,2.2,2.2,3,3.7,6c0,1.5,0,2.2,0,3c-0.7,2.2-2.2,3.7-1.5,6.7c1.5,1.5,3.7,3,5.2,5.2c0,0,0.7,0.7,0.7,1.5c0,1.5,0,3,0,5.2
	c0.7,0,2.2,0,3.7,0c3.7-3,9.7-3.7,15.7-3.7c0,0.7,0.7,1.5,0.7,2.2c-0.7,1.5-1.5,3-1.5,3.7c-3,3.7-6,3-5.2,8.2c0.7,0,2.2,0.7,3.7,1.5
	c1.5,2.2,2.2,3,6,5.2c0.7,1.5,1.5,5.2,3.7,6c1.5,1.5,3,3,4.5,4.5c0.7,0.7,5.2,3,6.7,0c0-5.2-0.7-6,3.7-6.7c2.2,0,3.7-0.7,6,1.5
	c0.7,0,1.5,0,2.2,0c2.2-0.7,4.5-3,6.7-3.7c0.7-0.7,2.2-0.7,4.5-1.5c0.7,1.5,1.5,2.2,1.5,3c0,2.2-3.7,5.2-6,6.7c-2.2,3-3,5.2-3,9.7
	c1.5,2.2,2.2,3.7,3,6c1.5,1.5,3.7,4.5,7.5,4.5c0-0.7,0-0.7,0-0.7c0.7,0,1.5,0,1.5,0c2.2,0.7,7.5,6,9.7,9c0,3,0.7,6.7,1.5,10.5
	c0,1.5,0,3,0.7,3.7c2.2,3,2.2,2.2,6.7,6c0,0,3-1.5,5.2-2.2c0-1.5,0.7-2.2,3.7-3c3-3,1.5-6-0.7-8.2c-3.7-0.7-3.7-1.5-3-4.5
	c0.7-1.5,1.5-2.2,2.2-3.7c0-0.7,0-2.2,0-3.7c0.7-0.7,2.2,0,3-0.7c1.5-0.7,2.2-1.5,3-2.2c0,0.7,0.7,2.2-0.7,3.7c0,0.7,0,1.5,0,3
	c1.5,1.5,5.2,2.2,8.2,3c2.2,1.5,4.5,3,6.7,4.5c0.7,0,1.5,0,2.2,0c-0.7,0.7-1.5,2.2-2.2,3.7c0.7,2.2,0.7,4.5,0.7,7.5
	c0,0.7-0.7,2.2-0.7,3.7c-0.7,0-1.5,0-2.2-0.7c-3-0.7-5.2-0.7-6.7,1.5c0,1.5,0,3,0,5.2C370.9,275.6,370.9,275.6,370.1,275.6
	L370.1,275.6z"/>
</svg>
